{"glyphs":{"0":{"ha":897,"x_min":1,"x_max":871,"o":"m 489 1025 q 367 995 428 1025 q 253 914 307 965 q 153 794 199 863 q 73 650 107 726 q 20 494 39 574 q 1 339 1 414 q 20 208 1 269 q 80 100 39 146 q 186 27 121 54 q 344 0 251 0 q 488 31 419 0 q 614 115 556 63 q 720 236 672 167 q 801 383 768 306 q 853 538 835 460 q 871 689 871 617 q 857 802 871 750 q 814 892 843 854 q 740 953 785 931 q 631 975 694 975 q 596 969 611 975 q 556 1009 582 993 q 489 1025 529 1025 m 706 696 q 694 583 706 644 q 663 459 683 521 q 611 340 642 397 q 540 238 581 282 q 451 167 500 193 q 344 140 401 140 q 278 156 306 140 q 232 198 250 171 q 206 261 214 225 q 197 339 197 297 q 219 488 197 410 q 281 632 242 567 q 374 740 321 697 q 489 783 426 783 q 558 803 529 783 q 600 854 586 824 q 631 850 613 850 q 688 807 669 850 q 706 696 706 764 z "},"1":{"ha":778,"x_min":32,"x_max":776,"o":"m 242 511 q 299 677 242 610 q 465 772 357 744 q 403 590 433 682 q 351 414 374 499 q 314 258 328 329 q 300 138 300 186 q 310 68 300 94 q 334 26 319 42 q 366 6 349 11 q 399 0 383 0 q 449 17 426 0 q 472 69 472 33 q 483 140 472 92 q 511 255 493 189 q 556 399 529 321 q 615 556 582 476 q 685 714 647 636 q 764 857 722 792 q 776 892 776 876 q 742 938 776 922 q 665 954 707 954 q 534 940 604 954 q 393 899 464 926 q 257 833 322 872 q 142 741 192 793 q 62 625 92 689 q 32 488 32 561 q 63 395 32 425 q 129 365 93 365 q 181 378 160 365 q 216 413 203 392 q 235 459 229 433 q 242 511 242 485 z "},"2":{"ha":919,"x_min":33,"x_max":922,"o":"m 397 342 q 506 331 461 342 q 567 402 531 354 q 638 510 604 450 q 697 634 672 569 q 722 754 722 699 q 690 847 722 810 q 581 883 658 883 q 506 874 542 883 q 442 847 469 864 q 399 809 415 831 q 383 764 383 788 q 401 722 383 740 q 457 704 419 704 q 537 672 510 704 q 564 600 564 639 q 536 529 564 561 q 450 497 508 497 q 370 515 408 497 q 303 563 332 532 q 258 633 275 593 q 240 717 240 672 q 265 824 240 769 q 339 923 290 878 q 458 997 388 968 q 618 1025 528 1025 q 758 1001 700 1025 q 852 937 815 976 q 906 847 889 897 q 922 744 922 797 q 901 618 922 682 q 844 493 881 554 q 758 376 807 432 q 656 272 710 319 q 706 238 679 260 q 757 187 733 215 q 796 125 781 158 q 811 56 811 92 q 796 17 811 32 q 757 1 781 1 q 718 17 733 1 q 703 56 703 32 q 688 91 703 74 q 652 122 674 108 q 608 147 631 136 q 568 164 585 158 q 485 102 531 132 q 390 49 439 72 q 294 13 342 26 q 201 0 246 0 q 140 8 171 0 q 86 32 110 15 q 48 75 63 49 q 33 138 33 101 q 64 228 33 190 q 145 292 94 267 q 261 329 196 317 q 397 342 326 342 m 199 101 q 247 110 222 101 q 298 134 272 119 q 349 166 324 149 q 397 200 374 183 l 379 200 q 319 199 356 200 q 247 190 282 197 q 188 168 213 183 q 163 124 163 153 q 174 106 163 110 q 199 101 186 101 z "},"3":{"ha":901,"x_min":25,"x_max":906,"o":"m 356 0 q 549 35 467 0 q 688 125 632 69 q 771 250 743 181 q 799 388 799 319 q 755 547 799 475 q 624 651 711 619 l 892 878 q 906 907 906 890 q 897 935 906 921 q 874 960 889 949 q 838 979 858 972 q 792 986 817 986 q 769 984 782 986 q 725 974 756 982 q 575 940 658 954 q 408 926 492 926 q 373 928 393 926 q 335 934 353 929 q 306 949 318 939 q 293 975 293 958 q 278 1013 293 997 q 240 1028 263 1028 q 200 1009 213 1028 q 188 965 188 990 q 209 892 188 919 q 265 848 231 864 q 339 826 299 832 q 417 821 379 821 q 491 824 453 821 q 569 835 529 828 l 376 672 q 357 632 357 657 q 372 594 357 610 q 410 579 388 579 q 492 563 457 579 q 549 520 526 547 q 583 457 572 493 q 594 382 594 421 q 569 274 594 319 q 505 198 544 228 q 417 153 465 168 q 324 139 369 139 q 263 146 292 139 q 212 167 233 153 q 178 201 190 181 q 165 247 165 221 q 174 291 165 268 q 195 333 182 314 q 226 364 208 351 q 263 376 244 376 q 292 359 286 376 q 297 322 297 342 q 314 245 297 278 q 381 213 331 213 q 474 254 439 213 q 508 353 508 296 q 494 415 508 389 q 454 459 479 442 q 396 485 429 476 q 324 494 363 494 q 205 472 260 494 q 110 411 150 449 q 48 327 71 374 q 25 232 25 281 q 46 146 25 188 q 108 72 67 104 q 210 19 149 39 q 356 0 272 0 z "},"4":{"ha":919,"x_min":28,"x_max":879,"o":"m 725 1010 q 498 983 599 1010 q 320 913 397 957 q 188 813 243 869 q 97 697 132 757 q 44 580 61 638 q 28 475 28 522 q 32 434 28 454 q 49 398 36 414 q 88 372 63 382 q 156 363 114 363 q 296 379 218 363 q 460 410 374 396 q 424 157 424 250 q 433 76 424 107 q 458 28 443 46 q 491 6 474 11 q 522 0 508 0 q 574 17 550 0 q 597 78 597 35 q 602 128 597 94 q 617 208 607 163 q 642 307 626 253 q 676 421 657 361 q 706 416 696 418 q 722 411 717 414 q 738 378 724 392 q 771 365 751 365 q 808 382 796 365 q 821 421 821 399 q 787 487 821 465 q 710 515 753 508 q 770 655 738 586 q 843 788 803 724 q 852 806 849 797 q 856 824 856 815 q 820 869 856 854 q 743 885 785 885 q 692 879 718 885 q 644 862 667 874 q 603 833 621 850 q 578 796 586 817 q 488 517 524 651 q 338 501 413 511 q 190 478 264 490 q 291 626 233 550 q 417 766 349 703 q 565 870 486 829 q 728 911 643 911 q 785 906 761 911 q 831 901 808 901 q 865 916 850 901 q 879 951 879 931 q 869 981 879 968 q 840 999 858 994 q 790 1007 817 1004 q 725 1010 763 1010 z "},"5":{"ha":861,"x_min":-1,"x_max":814,"o":"m 331 494 q 213 474 272 494 q 106 417 154 453 q 28 330 58 381 q -1 219 -1 279 q 22 127 -1 168 q 88 58 46 86 q 185 15 129 29 q 304 0 240 0 q 501 37 408 0 q 663 133 593 74 q 773 267 732 192 q 814 421 814 343 q 786 534 814 486 q 713 613 758 582 q 610 658 668 643 q 492 672 551 672 q 346 651 415 672 l 439 868 q 482 864 457 865 q 535 863 507 863 q 598 866 561 863 q 668 881 635 869 q 725 915 701 893 q 749 974 749 936 q 735 1007 749 993 q 700 1021 721 1021 q 669 1010 683 1021 q 647 983 654 1000 q 608 970 631 974 q 560 967 586 967 q 455 974 511 967 q 350 982 399 982 q 286 974 314 982 q 249 942 258 965 l 94 585 q 90 564 90 575 q 119 506 90 532 q 189 479 147 479 q 235 490 213 479 q 278 521 258 500 q 338 562 301 549 q 415 575 375 575 q 477 566 447 575 q 531 538 507 557 q 570 485 556 518 q 585 404 585 453 q 555 285 585 335 q 479 202 525 235 q 378 153 433 169 q 275 138 324 138 q 178 159 217 138 q 140 229 140 181 q 149 277 140 251 q 174 325 158 303 q 213 362 190 347 q 260 376 235 376 q 294 359 288 376 q 301 322 301 342 q 318 245 301 278 q 385 213 335 213 q 438 224 414 213 q 478 254 461 235 q 503 299 494 274 q 513 353 513 325 q 498 415 513 389 q 459 459 483 442 q 401 485 435 476 q 331 494 368 494 z "},"6":{"ha":840,"x_min":-4,"x_max":846,"o":"m 479 442 q 569 413 540 442 q 597 335 597 385 q 582 263 597 297 q 539 201 567 228 q 471 157 511 174 q 381 140 431 140 q 283 169 322 140 q 235 278 243 199 q 278 340 254 311 q 333 392 303 369 q 401 428 364 415 q 479 442 438 442 m 589 1024 q 433 997 508 1024 q 291 922 357 969 q 171 810 225 874 q 78 672 117 746 q 17 517 39 597 q -4 357 -4 436 q 24 197 -4 264 q 102 85 53 129 q 218 21 151 42 q 361 0 285 0 q 533 30 457 0 q 660 107 608 60 q 738 213 711 154 q 765 331 765 272 q 748 422 765 376 q 698 502 731 467 q 617 560 665 538 q 507 582 569 582 q 414 568 457 582 q 337 533 371 554 q 278 488 303 513 q 243 443 254 464 q 281 581 256 504 q 344 724 306 657 q 433 838 382 792 q 544 883 483 883 q 588 875 569 883 q 617 853 606 867 q 633 824 628 840 q 638 792 638 808 q 669 717 638 744 q 738 690 700 690 q 812 723 778 690 q 846 825 846 756 q 825 914 846 876 q 769 976 804 951 q 687 1012 733 1000 q 589 1024 640 1024 z "},"7":{"ha":817,"x_min":32,"x_max":854,"o":"m 571 479 q 666 634 618 557 q 752 773 714 711 q 816 874 790 835 q 846 918 842 914 q 851 931 849 921 q 854 951 854 940 q 828 999 854 979 q 772 1018 801 1018 q 734 1012 754 1018 q 690 999 714 1006 q 638 985 665 992 q 579 979 611 979 q 515 985 547 979 q 451 999 483 992 q 384 1013 418 1007 q 314 1019 350 1019 q 190 993 243 1019 q 101 925 136 967 q 49 831 67 883 q 32 729 32 779 q 42 654 32 690 q 73 590 53 618 q 124 547 93 563 q 193 531 154 531 q 248 540 224 531 q 289 565 272 550 q 314 600 306 581 q 322 639 322 619 q 292 709 322 678 q 208 740 263 740 q 168 750 178 740 q 158 775 158 760 q 200 846 158 813 q 319 879 242 879 q 383 873 353 879 q 444 859 414 867 q 507 845 475 851 q 574 839 539 839 q 449 680 510 768 q 338 494 389 592 q 249 297 288 397 q 192 106 211 197 q 188 88 189 93 q 188 81 188 83 q 211 22 188 42 q 264 1 235 1 q 309 17 288 1 q 343 75 331 33 q 375 145 353 103 q 428 240 397 188 q 495 354 458 293 q 571 479 532 415 z "},"8":{"ha":724,"x_min":10,"x_max":731,"o":"m 324 410 q 264 376 294 393 q 208 337 233 358 q 167 290 183 315 q 150 235 150 265 q 163 189 150 208 q 198 158 176 169 q 247 140 219 146 q 304 135 275 135 q 368 141 336 135 q 425 160 400 147 q 465 194 450 174 q 481 242 481 214 q 465 294 481 271 q 425 337 449 317 q 374 375 401 357 q 324 410 347 393 m 508 856 q 463 826 492 838 q 393 815 435 815 q 288 788 326 815 q 249 725 249 761 q 278 659 249 694 q 365 575 307 624 q 438 615 399 594 q 510 662 476 636 q 567 721 544 688 q 590 796 590 754 q 576 840 590 828 q 533 851 563 851 q 508 856 519 851 m 310 1 q 203 13 257 1 q 107 51 150 25 q 37 122 64 78 q 10 229 10 165 q 26 317 10 279 q 72 387 43 356 q 140 443 101 418 q 221 493 178 468 q 135 607 165 542 q 104 746 104 672 q 122 849 104 799 q 173 938 139 899 q 260 1001 207 976 q 383 1025 313 1025 q 459 1015 429 1025 q 507 989 489 1004 q 540 996 524 996 q 606 979 572 996 q 668 933 640 963 q 713 866 696 904 q 731 783 731 828 q 706 690 731 732 q 644 614 682 649 q 561 550 607 579 q 471 494 515 521 q 538 442 503 469 q 603 383 574 415 q 651 315 632 351 q 669 232 669 278 q 635 126 669 169 q 547 54 600 82 q 430 14 493 26 q 310 1 367 1 z "},"9":{"ha":857,"x_min":3,"x_max":853,"o":"m 614 746 q 571 683 596 713 q 515 631 546 654 q 449 595 485 608 q 371 582 413 582 q 281 610 308 582 q 253 689 253 639 q 268 762 253 726 q 311 824 283 797 q 379 867 339 851 q 469 883 419 883 q 567 854 526 883 q 614 746 607 825 m 111 332 q 72 324 92 332 q 38 299 53 315 q 13 257 22 282 q 3 197 3 232 q 24 110 3 147 q 80 48 44 72 q 162 12 115 24 q 260 0 208 0 q 417 27 342 0 q 558 102 492 54 q 678 214 624 150 q 771 352 732 278 q 831 507 810 426 q 853 667 853 588 q 824 827 853 760 q 747 938 796 894 q 631 1003 697 982 q 489 1024 565 1024 q 317 994 392 1024 q 190 917 242 964 q 112 810 139 869 q 85 693 85 751 q 102 602 85 647 q 152 522 119 557 q 233 464 185 486 q 342 442 281 442 q 435 456 392 442 q 512 490 478 469 q 570 535 546 511 q 607 581 594 560 q 569 443 594 519 q 505 299 543 367 q 416 186 467 232 q 304 140 365 140 q 233 169 254 140 q 213 232 213 199 q 181 306 213 279 q 111 332 150 332 z "},"a":{"ha":685,"x_min":-43,"x_max":779,"o":"m 197 174 q 173 183 182 174 q 164 208 164 193 q 186 276 164 233 q 244 361 208 318 q 323 438 279 404 q 411 482 367 472 q 391 417 401 454 q 371 336 381 379 q 328 278 351 307 q 283 226 306 250 q 238 188 260 203 q 197 174 215 174 m 474 601 q 413 625 446 618 q 350 632 379 632 q 202 590 274 632 q 76 483 131 547 q -10 342 22 418 q -43 196 -43 265 q -31 119 -43 156 q 3 57 -19 83 q 60 15 26 31 q 139 0 94 0 q 261 31 203 0 q 365 108 319 61 q 412 30 379 60 q 499 0 444 0 q 603 34 557 0 q 685 119 650 68 q 744 232 721 171 q 778 347 768 293 q 779 356 779 350 q 765 385 779 375 q 732 394 750 394 q 704 388 717 394 q 685 365 692 381 q 665 321 679 353 q 631 257 650 289 q 591 200 613 225 q 551 175 569 175 q 534 188 538 175 q 531 211 531 200 q 545 292 531 243 q 578 390 560 342 q 614 477 597 439 q 635 524 631 515 q 644 560 644 542 q 617 612 644 592 q 554 632 590 632 q 514 624 535 632 q 474 601 493 617 z "},"b":{"ha":665,"x_min":-44,"x_max":763,"o":"m 115 171 q 129 226 122 197 q 146 286 136 254 q 193 348 165 317 q 251 404 221 379 q 311 444 282 429 q 363 460 340 460 q 388 451 378 460 q 399 426 399 443 q 388 383 399 410 q 357 325 376 356 q 313 264 338 294 q 260 209 288 233 q 204 169 232 185 q 153 154 176 154 q 115 171 131 154 m 238 569 q 306 752 269 663 q 379 917 343 842 q 386 938 385 928 q 388 956 388 947 q 364 1005 388 988 q 304 1022 340 1022 q 263 1017 283 1022 q 224 999 242 1011 q 191 969 206 988 q 169 926 176 951 q 102 710 139 824 q 33 491 65 597 q -22 292 0 385 q -44 135 -44 199 q -35 67 -44 93 q -11 25 -25 40 q 20 4 3 10 q 51 -1 38 -1 q 82 10 69 -1 q 94 50 94 21 q 203 13 149 25 q 313 1 258 1 q 453 23 386 1 q 579 88 521 44 q 686 197 638 132 q 756 326 735 261 q 762 347 761 342 q 763 356 763 353 q 747 385 763 375 q 713 394 731 394 q 685 388 699 394 q 665 365 671 381 q 633 299 653 332 q 587 236 613 265 q 532 184 561 207 q 472 147 503 161 q 569 298 531 215 q 607 456 607 381 q 561 583 607 535 q 429 632 515 632 q 331 615 379 632 q 238 569 282 597 z "},"c":{"ha":536,"x_min":-29,"x_max":629,"o":"m -29 218 q -16 134 -29 174 q 26 65 -3 94 q 98 17 54 35 q 201 0 142 0 q 348 27 276 0 q 477 101 419 54 q 575 212 535 149 q 629 347 615 275 q 582 394 629 394 q 555 388 567 394 q 536 365 543 381 q 485 279 515 315 q 419 220 454 243 q 349 186 385 197 q 279 175 313 175 q 207 194 236 175 q 178 258 178 213 q 192 327 178 289 q 242 413 207 365 q 284 347 257 367 q 342 326 311 326 q 418 365 386 326 q 450 472 450 404 q 441 534 450 506 q 414 585 432 563 q 368 619 396 607 q 304 632 340 632 q 178 593 239 632 q 72 494 118 554 q -1 360 26 433 q -29 218 -29 286 z "},"d":{"ha":697,"x_min":-49,"x_max":797,"o":"m 379 354 q 335 293 360 325 q 285 235 311 261 q 235 191 260 208 q 192 174 211 174 q 160 208 160 174 q 182 276 160 233 q 240 361 204 318 q 319 439 275 404 q 408 482 364 474 q 379 354 390 418 m 447 613 q 396 628 422 624 q 346 632 369 632 q 198 590 269 632 q 72 483 126 547 q -16 342 17 418 q -49 196 -49 265 q -37 119 -49 156 q -1 57 -25 83 q 56 15 22 31 q 133 0 90 0 q 266 35 204 0 q 374 125 328 71 q 421 33 388 67 q 511 0 454 0 q 616 34 569 0 q 698 119 663 68 q 757 232 733 171 q 790 347 781 293 q 792 356 792 350 q 777 385 792 375 q 746 394 763 394 q 717 388 731 394 q 697 365 704 381 q 677 321 692 353 q 643 257 663 289 q 603 200 624 225 q 563 175 582 175 q 544 190 547 175 q 540 218 540 206 q 556 314 540 254 q 594 444 571 374 q 647 590 618 515 q 702 731 675 665 q 751 844 729 796 q 783 911 772 893 q 794 934 792 924 q 797 956 797 944 q 771 1006 797 988 q 708 1025 744 1025 q 635 1003 672 1025 q 575 933 599 982 q 553 883 567 915 q 522 809 539 851 q 485 717 504 767 q 447 613 465 667 z "},"e":{"ha":493,"x_min":-35,"x_max":586,"o":"m 233 396 q 249 420 238 404 q 272 452 260 436 q 297 481 285 468 q 315 493 308 493 q 288 434 315 458 q 233 396 261 410 m -35 210 q -22 128 -35 167 q 17 61 -8 89 q 83 17 43 33 q 176 0 122 0 q 314 28 246 0 q 438 103 382 56 q 534 213 494 150 q 586 346 574 276 q 538 394 586 394 q 511 388 524 394 q 493 365 499 381 q 454 294 479 329 q 398 233 429 260 q 331 189 367 206 q 258 172 294 172 q 230 175 244 172 q 203 185 215 178 q 182 206 190 193 q 174 240 174 219 q 186 294 174 264 q 277 318 235 294 q 352 378 319 342 q 403 456 385 414 q 422 536 422 499 q 397 604 422 576 q 314 632 372 632 q 181 592 244 632 q 70 489 118 551 q -6 352 22 426 q -35 210 -35 278 z "},"f":{"ha":560,"x_min":-40,"x_max":592,"o":"m -40 110 q -31 58 -40 79 q -6 24 -21 38 q 25 6 8 11 q 56 0 42 0 q 86 10 74 0 q 99 49 99 19 q 118 165 99 85 q 177 163 146 165 q 242 160 208 160 q 341 169 294 160 q 423 199 388 179 q 479 247 458 218 q 500 315 500 276 q 475 381 500 360 q 418 403 450 401 q 385 397 401 403 q 355 382 368 392 q 334 358 342 372 q 326 325 326 343 q 314 290 326 303 q 284 272 301 278 q 249 265 267 265 q 221 264 232 264 l 153 264 l 146 264 q 185 392 164 325 q 231 524 207 458 q 278 648 254 589 q 323 751 301 707 q 362 822 344 796 q 390 849 379 849 q 397 835 396 849 q 397 810 399 821 q 388 758 396 792 q 372 687 381 725 q 355 613 363 649 q 347 553 347 576 q 376 476 347 507 q 447 444 406 444 q 501 463 479 444 q 540 511 524 482 q 567 576 557 540 q 582 648 576 613 q 590 714 588 683 q 592 763 592 744 q 580 860 592 813 q 545 943 568 907 q 488 1001 522 979 q 407 1022 453 1022 q 300 988 350 1022 q 208 897 250 954 q 131 767 167 840 q 69 613 96 693 q 21 453 42 533 q -13 306 0 374 q -33 185 -26 238 q -40 110 -40 133 z "},"g":{"ha":697,"x_min":-47,"x_max":792,"o":"m 396 479 q 379 354 390 428 q 335 292 360 324 q 286 233 311 260 q 237 190 261 207 q 193 174 213 174 q 161 208 161 174 q 182 272 161 232 q 236 354 203 313 q 311 431 269 396 q 396 479 353 467 m 199 -281 q 181 -277 192 -281 q 159 -265 169 -274 q 141 -245 149 -257 q 133 -217 133 -233 q 145 -183 133 -197 q 178 -159 157 -169 q 228 -140 199 -149 q 292 -122 257 -131 q 248 -237 271 -193 q 199 -281 225 -281 m 454 -167 q 469 -116 461 -143 q 486 -57 478 -89 q 581 -1 535 -35 q 668 80 628 32 q 740 194 708 128 q 790 347 772 260 q 792 356 792 350 q 777 385 792 375 q 744 394 763 394 q 717 388 731 394 q 697 365 704 381 q 631 229 668 294 q 532 111 593 164 q 564 238 549 174 q 590 358 579 301 q 608 459 601 414 q 615 531 615 504 q 584 604 615 578 q 507 631 553 631 q 446 614 471 631 q 397 628 422 624 q 347 632 371 632 q 198 590 269 632 q 72 483 126 547 q -15 342 18 418 q -47 196 -47 265 q -35 119 -47 156 q -1 57 -24 83 q 56 15 22 31 q 135 0 90 0 q 243 24 192 0 q 338 86 294 47 q 329 43 333 64 q 321 1 325 22 q 203 -35 261 -18 q 99 -78 144 -53 q 25 -141 53 -103 q -3 -243 -3 -179 q 10 -322 -3 -283 q 48 -389 22 -360 q 114 -436 74 -418 q 208 -454 154 -454 q 278 -442 246 -454 q 340 -399 310 -431 q 397 -312 369 -368 q 454 -167 425 -256 z "},"h":{"ha":669,"x_min":-42,"x_max":763,"o":"m 442 0 q 553 34 500 0 q 650 119 607 68 q 722 232 693 171 q 761 347 751 293 q 763 356 763 350 q 748 385 763 375 q 715 394 733 394 q 688 388 701 394 q 668 365 675 381 q 648 321 663 353 q 615 256 633 289 q 575 199 596 224 q 538 174 554 174 q 519 187 524 174 q 515 213 515 200 q 526 275 515 238 q 549 354 536 313 q 573 438 563 396 q 583 513 583 479 q 549 601 583 571 q 457 632 514 632 q 327 590 390 632 q 210 478 264 549 q 292 708 247 593 q 383 917 338 824 q 390 938 389 928 q 392 956 392 947 q 368 1005 392 988 q 308 1022 344 1022 q 267 1017 288 1022 q 228 999 246 1011 q 195 969 210 988 q 174 926 181 951 q 106 710 143 824 q 35 491 68 597 q -19 292 3 385 q -42 135 -42 199 q -32 67 -42 93 q -8 25 -22 40 q 24 4 7 10 q 56 -1 42 -1 q 91 15 85 -1 q 99 54 97 31 q 142 138 115 86 q 200 246 168 190 q 249 324 224 286 q 296 392 274 363 q 336 440 318 422 q 363 458 354 458 q 369 450 369 458 q 360 403 369 440 q 338 321 350 367 q 315 228 325 275 q 306 147 306 181 q 313 97 306 122 q 335 49 319 71 q 378 14 351 28 q 442 0 404 0 z "},"i":{"ha":307,"x_min":-25,"x_max":400,"o":"m -25 193 q -17 119 -25 154 q 9 57 -8 83 q 54 15 26 31 q 119 0 82 0 q 224 34 178 0 q 306 119 271 68 q 365 232 342 171 q 399 347 389 293 q 400 356 400 350 q 386 385 400 375 q 353 394 372 394 q 326 388 339 394 q 306 365 313 381 q 285 321 300 353 q 252 257 271 289 q 212 200 233 225 q 172 175 190 175 q 155 188 158 175 q 151 211 151 200 q 166 292 151 243 q 199 390 181 342 q 235 477 218 439 q 256 524 251 515 q 265 560 265 542 q 239 612 265 592 q 176 632 213 632 q 102 607 139 632 q 46 524 65 582 q 28 471 40 507 q 5 390 17 435 q -16 293 -7 344 q -25 193 -25 242 m 188 688 q 231 696 210 688 q 270 719 253 704 q 298 753 288 733 q 308 796 308 774 q 277 862 308 835 q 199 889 246 889 q 126 863 154 889 q 97 792 97 838 q 119 721 97 754 q 188 688 140 688 z "},"j":{"ha":315,"x_min":-383,"x_max":411,"o":"m -182 -281 q -200 -277 -189 -281 q -222 -265 -211 -274 q -240 -245 -232 -257 q -247 -217 -247 -233 q -235 -183 -247 -197 q -203 -159 -224 -169 q -153 -140 -182 -149 q -90 -122 -124 -131 q -133 -237 -110 -193 q -182 -281 -156 -281 m 106 -57 q 201 -1 154 -35 q 288 81 247 32 q 360 194 328 129 q 410 347 392 260 q 411 356 411 350 q 397 385 411 375 q 364 394 382 394 q 337 388 350 394 q 317 365 324 381 q 250 229 288 294 q 151 111 213 164 q 183 238 168 174 q 210 358 199 301 q 228 459 221 414 q 235 531 235 504 q 203 604 235 578 q 126 631 172 631 q 63 612 90 631 q 26 551 35 593 q 15 474 22 532 q -3 339 7 417 q -28 172 -14 261 q -60 1 -43 83 q -179 -35 -121 -18 q -283 -78 -237 -53 q -356 -141 -328 -103 q -383 -243 -383 -179 q -371 -322 -383 -283 q -333 -389 -358 -360 q -267 -436 -307 -418 q -172 -454 -226 -454 q -103 -442 -135 -454 q -41 -399 -71 -431 q 17 -312 -11 -368 q 74 -167 44 -256 q 89 -116 81 -143 q 106 -57 97 -89 m 156 688 q 199 696 178 688 q 238 719 221 704 q 266 753 256 733 q 276 796 276 774 q 245 862 276 835 q 167 889 214 889 q 94 863 122 889 q 65 792 65 838 q 87 721 65 754 q 156 688 108 688 z "},"k":{"ha":621,"x_min":-40,"x_max":717,"o":"m 424 0 q 535 34 486 0 q 621 119 585 68 q 681 232 657 171 q 715 347 704 293 q 716 351 715 350 q 717 356 717 353 q 702 385 717 375 q 669 394 688 394 q 642 388 656 394 q 622 365 629 381 q 602 321 617 353 q 568 256 588 289 q 528 199 549 224 q 489 174 507 174 q 469 198 469 174 q 467 256 469 222 q 460 302 464 279 q 440 346 456 325 q 541 440 500 390 q 582 550 582 490 q 552 626 582 601 q 485 650 522 650 q 444 643 464 650 q 409 623 425 636 q 383 590 393 610 q 374 544 374 569 l 374 531 q 339 481 361 504 q 290 436 317 458 q 231 392 263 414 q 169 347 200 371 q 215 492 190 417 q 268 641 240 567 q 325 786 296 715 q 383 917 354 857 q 393 956 393 936 q 369 1005 393 988 q 308 1022 344 1022 q 228 999 268 1022 q 175 926 189 975 q 107 710 144 824 q 37 491 69 597 q -18 292 4 385 q -40 135 -40 199 q -31 67 -40 93 q -6 25 -21 40 q 25 4 8 10 q 56 -1 42 -1 q 88 8 75 -1 q 100 47 100 18 q 100 63 100 54 q 103 82 100 71 q 167 159 122 122 q 271 233 213 196 q 292 193 286 221 q 301 133 297 165 q 311 85 306 110 q 330 42 317 61 q 365 12 343 24 q 424 0 388 0 z "},"l":{"ha":317,"x_min":-17,"x_max":417,"o":"m -17 215 q -8 128 -17 168 q 18 60 0 89 q 64 16 36 32 q 131 0 92 0 q 235 34 189 0 q 317 119 282 68 q 376 232 353 171 q 410 347 399 293 q 410 351 410 350 q 411 356 411 353 q 397 385 411 375 q 364 394 382 394 q 337 388 350 394 q 317 365 324 381 q 297 321 311 353 q 263 257 282 289 q 222 200 243 225 q 182 175 201 175 q 163 190 167 175 q 160 218 160 206 q 175 314 160 254 q 213 444 190 374 q 265 590 236 515 q 320 731 293 665 q 369 844 347 796 q 403 911 392 893 q 417 956 417 935 q 390 1006 417 988 q 326 1025 363 1025 q 254 1003 290 1025 q 194 933 218 982 q 164 865 183 910 q 121 760 144 819 q 73 631 97 701 q 28 490 49 561 q -4 347 8 418 q -17 215 -17 276 z "},"m":{"ha":1006,"x_min":-46,"x_max":1101,"o":"m 485 111 q 517 174 499 138 q 556 248 536 210 q 598 324 576 286 q 639 392 619 363 q 674 440 658 422 q 700 458 690 458 q 707 450 707 458 q 697 403 707 440 q 676 321 688 367 q 654 228 664 275 q 644 147 644 181 q 651 97 644 122 q 674 49 658 71 q 716 14 690 28 q 779 0 742 0 q 892 34 839 0 q 988 119 946 68 q 1060 232 1031 171 q 1100 347 1089 293 q 1101 351 1100 350 q 1101 356 1101 353 q 1087 385 1101 375 q 1054 394 1072 394 q 1027 388 1040 394 q 1007 365 1014 381 q 987 321 1001 353 q 953 256 972 289 q 914 199 935 224 q 875 174 893 174 q 858 187 863 174 q 854 213 854 200 q 865 275 854 238 q 888 354 875 313 q 912 438 901 396 q 922 511 922 479 q 885 601 922 569 q 800 632 849 632 q 690 597 746 632 q 585 510 635 563 q 551 597 578 563 q 465 632 524 632 q 351 596 407 632 q 242 503 294 560 q 249 516 244 510 q 256 529 253 522 q 267 569 267 550 q 242 616 267 600 q 182 632 218 632 q 101 610 142 632 q 46 539 61 588 q 11 415 28 482 q -18 286 -6 349 q -38 172 -31 224 q -46 96 -46 121 q -17 21 -46 43 q 46 -1 13 -1 q 78 9 65 -1 q 93 53 92 19 q 124 108 103 71 q 172 191 144 146 q 229 283 199 236 q 288 369 260 331 q 342 433 317 408 q 381 458 367 458 q 394 449 390 458 q 399 428 399 439 q 382 358 399 404 q 344 264 365 311 q 305 178 324 217 q 282 132 286 140 q 272 96 272 110 q 299 44 272 64 q 363 24 326 24 q 430 44 396 24 q 485 111 464 64 z "},"n":{"ha":665,"x_min":-44,"x_max":761,"o":"m 269 569 q 245 616 269 600 q 185 632 221 632 q 143 626 164 632 q 103 610 122 621 q 70 581 85 599 q 49 539 56 564 q 14 415 31 482 q -16 286 -3 349 q -37 172 -29 224 q -44 96 -44 121 q -15 21 -44 43 q 49 -1 15 -1 q 81 8 68 -1 q 94 50 93 18 q 139 135 113 82 q 199 246 165 188 q 247 324 222 286 q 294 392 272 363 q 335 440 317 422 q 361 458 353 458 q 368 450 368 458 q 358 403 368 440 q 336 321 349 367 q 314 228 324 275 q 304 147 304 181 q 311 97 304 122 q 334 49 318 71 q 376 14 350 28 q 440 0 403 0 q 552 34 499 0 q 649 119 606 68 q 721 232 692 171 q 760 347 750 293 q 761 356 761 350 q 747 385 761 375 q 714 394 732 394 q 687 388 700 394 q 667 365 674 381 q 647 321 661 353 q 613 256 632 289 q 574 199 594 224 q 536 174 553 174 q 518 187 522 174 q 514 213 514 200 q 524 275 514 238 q 548 354 535 313 q 572 438 561 396 q 582 513 582 479 q 547 601 582 571 q 456 632 513 632 q 356 608 404 632 q 263 539 307 583 q 268 555 267 547 q 269 569 269 563 z "},"o":{"ha":556,"x_min":-39,"x_max":654,"o":"m 261 386 q 268 307 261 349 q 301 246 275 265 q 254 172 283 206 q 188 139 225 139 q 145 160 156 139 q 135 201 135 182 q 147 257 135 228 q 178 313 160 286 q 219 363 197 340 q 263 400 242 386 q 262 395 263 397 q 261 390 261 393 q 261 386 261 388 m 653 356 q 654 364 654 358 q 641 390 654 381 q 610 399 628 399 q 578 390 594 399 q 556 365 563 382 q 519 328 544 342 q 469 313 494 314 q 479 345 474 324 q 485 390 485 367 q 478 440 485 411 q 461 488 472 468 q 469 525 469 507 q 442 601 469 569 q 347 632 414 632 q 206 594 275 632 q 82 498 136 557 q -6 365 28 439 q -39 215 -39 290 q -25 130 -39 169 q 15 61 -11 90 q 81 16 42 32 q 171 0 121 0 q 332 54 267 0 q 433 196 397 108 l 442 196 q 503 201 471 196 q 565 224 536 207 q 618 272 594 240 q 653 356 642 304 z "},"p":{"ha":674,"x_min":-153,"x_max":769,"o":"m 124 174 q 146 240 135 207 q 168 304 157 272 q 215 363 189 333 q 270 417 242 393 q 326 456 299 440 q 374 471 353 471 q 399 463 389 471 q 408 438 408 454 q 383 364 408 411 q 322 270 358 317 q 242 189 285 224 q 163 154 199 154 q 124 174 138 154 m 265 581 q 237 619 258 606 q 183 632 215 632 q 142 626 163 632 q 103 609 121 621 q 70 579 85 597 q 49 536 56 561 q -17 311 18 433 q -83 71 -53 189 q -133 -149 -112 -47 q -153 -314 -153 -251 q -143 -384 -153 -357 q -119 -426 -133 -411 q -89 -447 -106 -442 q -58 -453 -72 -453 q -26 -443 -39 -453 q -14 -403 -14 -433 q -6 -335 -14 -381 q 15 -228 1 -289 q 47 -94 28 -167 q 89 57 67 -21 q 206 15 147 29 q 322 1 264 1 q 467 25 399 1 q 594 92 536 49 q 694 194 651 135 q 763 325 738 254 q 769 349 769 344 q 769 356 769 353 q 755 385 769 375 q 722 394 740 394 q 695 388 708 394 q 675 365 682 381 q 640 299 661 332 q 594 236 619 265 q 541 184 569 207 q 482 147 513 161 q 574 298 540 215 q 608 456 608 381 q 567 583 608 535 q 439 632 525 632 q 350 618 394 632 q 265 581 306 604 z "},"q":{"ha":642,"x_min":-47,"x_max":656,"o":"m 161 208 q 185 279 161 235 q 246 368 208 324 q 330 447 283 413 q 422 485 376 481 q 406 428 414 457 q 389 369 397 399 l 388 368 q 344 303 369 338 q 292 240 319 269 q 240 192 265 211 q 193 174 214 174 q 161 208 161 174 m 168 -235 q 242 -231 204 -235 q 238 -275 239 -254 q 236 -314 236 -296 q 246 -384 236 -357 q 269 -426 256 -411 q 301 -447 283 -442 q 332 -453 318 -453 q 363 -443 350 -453 q 375 -403 375 -433 q 384 -324 375 -378 q 410 -199 393 -271 q 462 -188 439 -192 q 500 -185 485 -185 q 518 -193 518 -185 q 540 -212 518 -212 q 561 -206 551 -212 q 571 -185 571 -199 q 541 -136 571 -149 q 467 -124 511 -124 q 448 -124 457 -124 q 428 -126 439 -125 q 472 39 447 -49 q 526 213 497 126 q 585 381 554 300 q 647 526 617 463 q 654 547 653 538 q 656 565 656 557 q 632 615 656 597 q 572 632 608 632 q 522 624 547 632 q 476 597 497 615 q 413 624 449 617 q 347 632 378 632 q 198 590 269 632 q 72 483 126 547 q -15 342 18 418 q -47 196 -47 265 q -35 119 -47 156 q -1 57 -24 83 q 56 15 22 31 q 135 0 90 0 q 223 16 181 0 q 303 58 265 32 q 278 -45 289 6 q 257 -142 267 -96 q 240 -143 249 -143 q 224 -143 232 -143 q 198 -142 211 -143 q 174 -135 185 -140 q 155 -119 163 -131 q 147 -89 147 -108 q 129 -47 147 -60 q 86 -33 111 -33 q 28 -55 51 -33 q 4 -110 4 -76 q 17 -170 4 -146 q 51 -209 29 -194 q 103 -229 74 -224 q 168 -235 133 -235 z "},"r":{"ha":507,"x_min":-22,"x_max":601,"o":"m 321 0 q 426 34 379 0 q 508 119 472 68 q 567 232 543 171 q 600 347 590 293 q 601 356 601 350 q 588 385 601 375 q 554 394 574 394 q 527 388 540 394 q 507 365 514 381 q 487 321 501 353 q 453 257 472 289 q 413 200 435 225 q 374 175 392 175 q 356 188 360 175 q 353 211 353 200 q 367 292 353 243 q 401 390 382 342 q 436 477 419 439 q 457 524 453 515 q 467 560 467 542 q 440 612 467 592 q 378 632 414 632 q 331 623 354 632 q 289 594 308 614 q 261 604 272 594 q 244 626 250 614 q 234 649 238 638 q 231 664 231 660 q 194 732 219 714 q 140 750 169 750 q 91 738 113 750 q 54 708 69 726 q 31 667 39 689 q 22 622 22 644 q 30 585 22 603 q 54 558 38 567 q 43 510 51 542 q 24 444 35 478 q 4 381 14 411 q -11 339 -6 351 q -22 294 -22 317 q -12 258 -22 271 q 17 244 -1 244 q 56 264 38 244 q 86 317 75 283 q 104 372 94 343 q 122 429 114 401 q 138 481 131 457 q 149 522 144 506 q 185 506 160 515 q 238 493 210 496 q 219 433 229 468 q 199 359 208 399 q 183 276 190 319 q 176 193 176 233 q 185 119 176 154 q 210 57 193 83 q 256 15 228 31 q 321 0 283 0 z "},"s":{"ha":563,"x_min":-35,"x_max":554,"o":"m -35 219 q -12 123 -35 164 q 49 55 11 82 q 135 14 86 28 q 233 0 183 0 q 331 13 283 0 q 417 49 379 25 q 478 107 454 72 q 501 186 501 142 q 464 292 501 246 q 381 371 426 338 q 299 425 336 404 q 261 454 261 446 q 284 467 261 461 q 325 474 307 474 q 343 468 343 474 q 385 396 354 419 q 451 372 415 372 q 522 400 490 372 q 554 483 554 428 q 535 553 554 525 q 484 599 515 581 q 415 624 453 617 q 340 632 378 632 q 251 622 296 632 q 171 589 207 611 q 113 532 135 567 q 90 450 90 497 q 105 384 90 411 q 142 338 119 357 q 191 306 165 319 q 240 281 217 293 q 277 255 263 268 q 292 224 292 242 q 271 188 292 201 q 221 174 250 174 q 179 182 200 174 q 142 208 158 190 q 115 251 125 225 q 104 313 104 278 q 88 376 104 358 q 50 394 71 394 q 7 374 24 394 q -19 326 -10 354 q -31 269 -28 299 q -35 219 -35 239 z "},"t":{"ha":318,"x_min":-42,"x_max":444,"o":"m 182 175 q 163 190 167 175 q 160 218 160 206 q 173 305 160 251 q 207 423 186 358 q 253 556 228 488 q 304 689 279 625 l 375 689 q 424 710 404 689 q 444 758 444 731 q 424 808 444 788 q 375 828 404 828 l 363 828 q 386 879 376 858 q 403 911 396 900 q 417 956 417 935 q 390 1006 417 988 q 326 1025 363 1025 q 254 1003 290 1025 q 194 933 218 982 q 176 891 188 918 q 149 828 164 864 l 28 828 q -22 808 -1 828 q -42 758 -42 788 q -22 710 -42 731 q 28 689 -1 689 l 93 689 q 53 572 72 633 q 18 449 33 510 q -7 328 3 388 q -17 215 -17 268 q -8 128 -17 168 q 18 60 0 89 q 64 16 36 32 q 131 0 92 0 q 235 34 189 0 q 317 119 282 68 q 376 232 353 171 q 410 347 399 293 q 410 351 410 350 q 411 356 411 353 q 397 385 411 375 q 364 394 382 394 q 337 388 350 394 q 317 365 324 381 q 297 321 311 353 q 263 257 282 289 q 222 200 243 225 q 182 175 201 175 z "},"u":{"ha":611,"x_min":-25,"x_max":707,"o":"m 265 560 q 239 612 265 592 q 176 632 213 632 q 102 607 139 632 q 46 524 65 582 q 28 471 40 507 q 5 390 17 435 q -16 293 -7 344 q -25 193 -25 242 q -18 119 -25 154 q 5 57 -11 83 q 48 15 21 31 q 115 0 75 0 q 215 28 171 0 q 294 103 258 57 q 342 28 310 57 q 426 0 374 0 q 531 34 485 0 q 613 119 578 68 q 672 232 649 171 q 706 347 696 293 q 707 356 707 350 q 693 385 707 375 q 660 394 679 394 q 633 388 646 394 q 613 365 619 381 q 592 321 607 353 q 559 257 578 289 q 519 200 540 225 q 479 175 497 175 q 462 188 465 175 q 458 211 458 200 q 473 292 458 243 q 506 390 488 342 q 542 477 525 439 q 563 524 558 515 q 572 560 572 542 q 546 612 572 592 q 483 632 519 632 q 409 607 446 632 q 353 524 372 582 q 337 472 347 506 q 313 400 326 439 q 283 322 299 361 q 249 249 267 282 q 214 196 232 217 q 178 175 196 175 q 157 188 163 175 q 151 218 151 201 q 166 295 151 247 q 199 391 181 343 q 235 477 218 439 q 256 524 251 515 q 265 560 265 542 z "},"v":{"ha":575,"x_min":-12,"x_max":675,"o":"m 407 549 q 362 538 382 549 q 328 507 342 526 q 308 462 315 488 q 300 407 300 436 q 308 347 300 382 q 342 283 315 311 q 274 196 303 218 q 225 174 244 174 q 192 197 201 174 q 183 253 183 221 q 203 386 183 310 q 254 528 224 463 q 261 558 261 544 q 232 611 261 590 q 165 632 203 632 q 99 611 132 632 q 47 542 67 590 q 28 486 39 519 q 9 413 18 453 q -6 330 0 374 q -12 243 -12 286 q -1 146 -12 190 q 34 69 10 101 q 97 18 58 36 q 189 0 135 0 q 283 17 242 0 q 356 60 324 33 q 411 123 388 88 q 453 196 435 158 l 461 196 q 523 201 490 196 q 585 224 556 207 q 639 272 615 240 q 674 356 663 304 q 675 364 675 358 q 661 390 675 381 q 629 399 647 399 q 598 391 614 399 q 575 367 582 383 q 537 322 564 343 q 485 300 510 301 q 503 348 494 318 q 511 408 511 378 q 505 457 511 432 q 486 502 499 482 q 454 535 474 522 q 407 549 435 549 z "},"w":{"ha":919,"x_min":-25,"x_max":1021,"o":"m 511 632 q 453 618 476 632 q 415 581 431 604 q 389 531 399 558 q 371 476 379 504 q 332 390 356 442 q 281 291 308 339 q 226 209 254 243 q 178 175 199 175 q 157 188 163 175 q 151 218 151 201 q 166 295 151 247 q 199 391 181 343 q 235 477 218 439 q 256 524 251 515 q 265 560 265 542 q 239 612 265 592 q 176 632 213 632 q 102 607 139 632 q 46 524 65 582 q 28 471 40 507 q 5 390 17 435 q -16 293 -7 344 q -25 193 -25 242 q -18 119 -25 154 q 5 57 -11 83 q 48 15 21 31 q 115 0 75 0 q 242 44 186 0 q 342 154 297 88 q 404 42 358 83 q 535 0 450 0 q 628 17 588 0 q 701 60 669 33 q 757 123 733 88 q 799 196 781 158 l 807 196 q 869 201 836 196 q 931 224 901 207 q 985 272 961 240 q 1019 356 1008 304 q 1021 364 1021 358 q 1007 390 1021 381 q 975 399 993 399 q 944 391 960 399 q 921 367 928 383 q 883 322 910 343 q 831 300 856 301 q 849 348 840 318 q 857 408 857 378 q 851 457 857 432 q 832 502 844 482 q 800 535 819 522 q 753 549 781 549 q 708 538 728 549 q 674 507 688 526 q 653 462 661 488 q 646 407 646 436 q 653 347 646 382 q 688 283 661 311 q 619 196 649 218 q 571 174 590 174 q 538 197 547 174 q 529 253 529 221 q 549 386 529 310 q 600 528 569 463 q 607 558 607 544 q 578 611 607 590 q 511 632 549 632 z "},"x":{"ha":572,"x_min":-21,"x_max":667,"o":"m 228 118 q 298 33 257 67 q 394 0 339 0 q 495 34 450 0 q 575 119 540 68 q 633 232 610 171 q 665 347 656 293 q 667 356 667 350 q 652 385 667 375 q 619 394 638 394 q 592 388 606 394 q 572 365 579 381 q 552 321 567 353 q 517 256 538 289 q 474 199 497 224 q 429 174 451 174 q 388 202 406 174 q 354 275 369 231 l 553 525 q 568 567 568 544 q 549 613 568 593 q 501 632 529 632 q 474 626 488 632 q 449 607 460 619 l 310 433 q 285 508 299 472 q 255 571 272 543 q 215 615 238 599 q 163 632 193 632 q 120 615 140 632 q 83 572 100 599 q 53 511 67 544 q 27 445 39 478 q 6 384 15 413 q -10 339 -3 356 q -18 314 -15 324 q -21 294 -21 304 q -10 258 -21 271 q 18 244 1 244 q 54 261 36 244 q 86 317 72 278 q 97 345 90 328 q 109 379 103 363 q 120 409 115 396 q 126 424 125 422 q 144 351 133 396 q 169 257 154 307 l 51 111 q 40 90 42 100 q 38 74 38 81 q 57 22 38 42 q 104 1 76 1 q 156 28 135 1 l 228 118 z "},"y":{"ha":646,"x_min":-53,"x_max":742,"o":"m 149 -281 q 131 -277 142 -281 q 109 -265 119 -274 q 91 -245 99 -257 q 83 -217 83 -233 q 95 -183 83 -197 q 128 -159 107 -169 q 178 -140 149 -149 q 242 -122 207 -131 q 198 -237 221 -193 q 149 -281 175 -281 m 271 1 q 153 -35 211 -18 q 49 -78 94 -53 q -25 -141 3 -103 q -53 -243 -53 -179 q -40 -322 -53 -283 q -2 -389 -28 -360 q 64 -436 24 -418 q 158 -454 104 -454 q 228 -442 196 -454 q 290 -399 260 -431 q 347 -312 319 -368 q 404 -167 375 -256 q 419 -116 411 -143 q 436 -57 428 -89 q 531 -1 485 -35 q 618 81 578 32 q 690 194 658 129 q 740 347 722 260 q 742 356 742 350 q 727 385 742 375 q 694 394 713 394 q 667 388 681 394 q 647 365 654 381 q 581 229 618 294 q 482 111 543 164 q 514 238 499 174 q 540 358 529 301 q 558 459 551 414 q 565 531 565 504 q 534 604 565 578 q 457 631 503 631 q 393 612 421 631 q 357 551 365 593 q 343 497 353 532 q 320 419 333 461 q 290 334 307 378 q 253 255 272 290 q 215 197 235 219 q 178 175 196 175 q 157 188 163 175 q 151 218 151 201 q 166 295 151 247 q 199 391 181 343 q 235 477 218 439 q 256 524 251 515 q 265 560 265 542 q 239 612 265 592 q 176 632 213 632 q 102 607 139 632 q 46 524 65 582 q 28 471 40 507 q 5 390 17 435 q -16 293 -7 344 q -25 193 -25 242 q -18 119 -25 154 q 5 57 -11 83 q 48 15 21 31 q 115 0 75 0 q 211 26 168 0 q 289 96 254 53 q 281 48 285 71 q 271 1 276 25 z "},"z":{"ha":726,"x_min":-6,"x_max":821,"o":"m 413 204 q 481 268 438 228 q 569 354 525 308 q 644 447 613 400 q 676 533 676 494 q 656 592 676 565 q 603 618 635 618 q 559 610 583 618 q 494 603 535 603 q 376 616 440 603 q 254 629 313 629 q 151 612 199 629 q 68 565 103 594 q 14 494 33 535 q -6 404 -6 453 q 4 345 -6 369 q 29 305 14 321 q 63 281 44 289 q 99 274 81 274 q 169 303 136 274 q 203 386 203 333 q 214 434 203 414 q 244 467 225 454 q 285 487 263 481 q 333 493 308 493 q 410 478 375 493 q 360 431 393 461 q 285 363 326 400 q 201 283 244 325 q 122 201 157 240 q 63 130 86 163 q 40 78 40 97 q 62 21 40 40 q 118 1 83 1 q 155 10 139 1 q 182 28 171 18 q 201 46 193 38 q 214 54 208 54 q 260 46 225 54 q 342 27 296 38 q 435 8 388 17 q 517 0 482 0 q 635 34 583 0 q 724 119 686 68 q 785 232 761 171 q 819 347 808 293 q 820 351 819 350 q 821 356 821 353 q 806 385 821 375 q 774 394 792 394 q 747 388 760 394 q 726 365 733 381 q 705 321 721 353 q 663 257 689 289 q 602 200 638 225 q 522 175 567 175 q 485 179 514 175 q 413 204 456 183 z "}," ":{"ha":435,"x_min":0,"x_max":0,"o":""},"C":{"ha":908,"x_min":0,"x_max":967,"o":"m 0 426 q 26 252 0 331 q 103 117 53 174 q 230 31 154 61 q 406 0 306 0 q 580 28 501 0 q 715 103 658 56 q 802 214 771 150 q 835 350 833 278 q 831 406 836 383 q 815 441 825 428 q 792 460 806 454 q 767 465 779 465 q 724 447 744 465 q 692 371 703 428 q 661 283 682 321 q 611 221 640 246 q 547 183 582 196 q 474 171 511 171 q 379 197 417 171 q 319 264 342 224 q 287 353 296 304 q 278 446 278 401 q 291 573 278 504 q 328 710 304 642 q 383 844 351 779 q 453 958 415 908 q 534 1037 492 1007 q 619 1067 576 1067 q 661 1056 647 1067 q 682 1032 675 1046 q 690 1005 689 1018 q 690 988 690 992 q 683 923 690 956 q 666 858 675 890 q 649 795 657 826 q 642 733 642 764 q 674 642 642 671 q 757 613 707 613 q 852 644 813 613 q 917 722 892 675 q 955 822 943 768 q 967 921 967 875 q 940 1051 967 992 q 866 1151 913 1110 q 756 1217 819 1193 q 618 1240 692 1240 q 442 1203 524 1240 q 291 1104 360 1167 q 168 960 222 1042 q 76 787 114 878 q 19 603 39 696 q 0 426 0 510 z "},"D":{"ha":1268,"x_min":36,"x_max":1286,"o":"m 458 360 q 503 485 479 421 q 556 615 528 550 q 616 741 585 679 q 681 857 647 803 q 692 892 692 876 q 657 938 692 922 q 581 954 622 954 q 481 931 529 954 q 415 865 432 908 q 342 663 378 768 q 278 459 307 557 q 233 277 250 361 q 215 138 215 193 q 225 68 215 94 q 250 26 235 42 q 283 6 265 11 q 314 0 300 0 q 365 17 342 0 q 388 69 388 33 q 390 93 388 79 q 394 126 392 107 q 501 35 435 72 q 672 -1 567 -1 q 847 30 765 -1 q 996 115 928 61 q 1118 240 1064 168 q 1210 394 1172 311 q 1267 565 1247 476 q 1286 739 1286 653 q 1258 930 1286 839 q 1171 1090 1231 1021 q 1019 1199 1111 1158 q 797 1240 926 1240 q 624 1222 714 1240 q 450 1171 535 1204 q 290 1091 365 1138 q 158 986 215 1044 q 69 860 101 928 q 36 719 36 793 q 47 644 36 676 q 77 590 58 613 q 120 557 96 568 q 171 546 144 546 q 222 556 196 546 q 268 588 247 567 q 301 639 289 608 q 314 708 314 669 q 360 851 313 786 q 478 965 408 917 q 630 1040 549 1013 q 776 1067 711 1067 q 883 1043 839 1067 q 956 978 928 1019 q 998 883 985 938 q 1011 765 1011 828 q 982 563 1011 668 q 901 372 953 458 q 778 228 849 285 q 624 172 707 172 q 542 192 574 172 q 493 241 511 213 q 468 302 475 269 q 458 360 461 335 z "},"S":{"ha":883,"x_min":-15,"x_max":981,"o":"m -15 354 q 7 224 -15 288 q 78 110 29 160 q 206 31 128 61 q 397 0 285 0 q 566 22 490 0 q 695 82 642 43 q 778 174 749 121 q 807 289 807 226 q 781 401 807 351 q 715 496 754 451 q 628 581 675 540 q 542 664 582 621 q 474 755 501 707 q 444 860 446 803 q 453 932 443 896 q 484 999 463 968 q 538 1048 506 1029 q 614 1067 571 1067 q 666 1056 647 1067 q 693 1032 685 1046 q 703 1005 701 1018 q 704 988 704 992 q 697 928 704 956 q 679 873 689 900 q 662 819 669 846 q 654 761 654 792 q 688 669 654 699 q 774 640 721 640 q 867 667 828 640 q 931 735 906 694 q 968 826 956 776 q 981 921 981 875 q 953 1051 981 992 q 876 1151 926 1110 q 756 1217 826 1193 q 600 1240 686 1240 q 440 1217 518 1240 q 300 1149 361 1194 q 201 1036 239 1104 q 164 878 164 968 q 191 736 164 800 q 258 620 218 672 q 347 524 299 568 q 435 443 394 481 q 502 371 475 406 q 529 300 529 336 q 518 256 529 278 q 485 215 507 233 q 430 185 463 197 q 356 174 397 174 q 276 185 317 174 q 201 225 235 197 q 147 298 168 253 q 125 410 125 343 q 125 438 125 422 q 120 467 125 453 q 103 492 115 482 q 69 501 92 501 q 24 485 40 501 q -1 447 7 469 q -12 399 -10 424 q -15 354 -15 374 z "},"B":{"ha":1144,"x_min":36,"x_max":1224,"o":"m 671 -1 q 812 15 742 -1 q 938 63 882 31 q 1030 144 994 96 q 1065 258 1065 193 q 1040 360 1065 315 q 976 438 1014 406 q 897 489 939 469 q 824 514 856 508 q 958 549 888 522 q 1088 623 1029 576 q 1185 735 1147 669 q 1224 886 1224 801 q 1193 1022 1224 958 q 1104 1134 1163 1086 q 960 1210 1046 1182 q 765 1238 875 1238 q 592 1219 679 1238 q 423 1169 504 1201 q 271 1090 342 1136 q 148 986 200 1043 q 66 863 96 929 q 36 724 36 797 q 47 646 36 679 q 77 590 58 613 q 120 556 96 567 q 171 544 144 544 q 222 556 196 544 q 268 588 247 567 q 301 642 289 610 q 314 715 314 674 q 353 854 313 790 q 458 965 394 918 q 600 1040 522 1013 q 753 1067 678 1067 q 899 1019 853 1067 q 946 889 946 971 q 917 770 946 821 q 846 684 889 719 q 751 628 803 649 q 651 600 699 608 q 571 569 590 589 q 551 526 551 550 q 567 482 551 501 q 615 456 583 463 q 667 437 638 451 q 723 399 696 422 q 769 344 750 375 q 788 274 788 313 q 748 183 789 215 q 642 151 707 151 q 550 173 586 151 q 492 225 514 194 q 459 288 469 256 q 446 343 449 321 q 490 472 465 404 q 544 606 515 539 q 605 738 572 674 q 672 857 638 801 q 681 876 678 867 q 685 892 685 885 q 649 938 685 922 q 572 954 614 954 q 472 931 521 954 q 407 865 424 908 q 334 663 369 768 q 270 459 299 557 q 224 277 242 361 q 207 138 207 193 q 217 68 207 94 q 241 26 226 42 q 273 6 256 11 q 306 0 290 0 q 357 17 333 0 q 381 69 381 33 q 385 113 381 86 q 494 32 425 65 q 671 -1 564 -1 z "},"R":{"ha":1179,"x_min":36,"x_max":1171,"o":"m 588 407 q 513 387 535 407 q 492 343 492 367 q 506 306 492 319 q 542 287 521 293 q 585 279 563 281 q 624 278 607 278 q 685 203 654 250 q 757 112 717 157 q 851 33 797 67 q 981 0 906 0 q 1077 25 1043 0 q 1111 97 1111 50 q 1077 176 1111 144 q 972 208 1043 208 q 864 235 908 208 q 783 307 819 263 q 935 384 864 335 q 1058 498 1006 433 q 1140 639 1110 563 q 1171 797 1171 715 q 1131 973 1171 892 q 1020 1114 1090 1054 q 857 1207 950 1174 q 657 1240 764 1240 q 503 1222 579 1240 q 358 1172 428 1204 q 230 1092 289 1139 q 128 990 171 1046 q 60 868 85 933 q 36 732 36 803 q 47 649 36 685 q 77 591 58 614 q 120 556 96 568 q 171 544 144 544 q 222 556 196 544 q 268 589 247 567 q 301 644 289 611 q 314 721 314 678 q 347 856 313 793 q 433 966 381 919 q 550 1039 486 1013 q 672 1065 614 1065 q 765 1045 724 1065 q 833 988 806 1025 q 876 901 861 951 q 892 793 892 851 q 867 645 892 715 q 800 522 842 575 q 703 438 758 469 q 588 407 649 407 m 425 865 q 352 663 388 768 q 288 459 317 557 q 242 277 260 361 q 225 138 225 193 q 235 68 225 94 q 259 26 244 42 q 291 6 274 11 q 324 0 308 0 q 374 17 351 0 q 397 69 397 33 q 408 140 397 92 q 436 255 418 189 q 481 399 454 321 q 540 556 507 476 q 610 714 572 636 q 689 857 647 792 q 701 892 701 876 q 667 938 701 922 q 590 954 632 954 q 490 931 539 954 q 425 865 442 908 z "},"P":{"ha":1131,"x_min":36,"x_max":1171,"o":"m 692 857 q 704 892 704 876 q 669 938 704 922 q 592 954 633 954 q 541 949 567 954 q 492 931 515 943 q 453 903 469 919 q 428 865 436 886 q 354 663 390 768 q 290 459 318 557 q 245 277 263 361 q 228 138 228 193 q 238 68 228 94 q 262 26 247 42 q 294 6 276 11 q 325 0 311 0 q 376 17 353 0 q 400 69 400 33 q 413 153 400 94 q 449 289 425 211 q 544 279 479 279 l 569 279 q 818 328 707 283 q 1008 442 929 372 q 1128 603 1086 513 q 1171 792 1171 694 q 1131 971 1171 889 q 1020 1113 1090 1053 q 857 1206 950 1172 q 657 1240 764 1240 q 503 1222 579 1240 q 358 1172 428 1204 q 230 1092 289 1139 q 128 990 171 1046 q 60 868 85 933 q 36 732 36 803 q 47 649 36 685 q 77 591 58 614 q 120 556 96 568 q 171 544 144 544 q 222 556 196 544 q 268 589 247 567 q 301 644 289 611 q 314 721 314 678 q 347 856 313 793 q 433 966 381 919 q 550 1039 486 1013 q 672 1065 614 1065 q 765 1045 724 1065 q 833 990 806 1025 q 876 908 861 956 q 892 808 892 861 q 857 652 892 725 q 767 524 822 579 q 642 438 711 469 q 503 407 572 407 l 486 407 q 578 640 526 521 q 692 857 631 760 z "},"A":{"ha":1143,"x_min":36,"x_max":1143,"o":"m 251 381 q 269 382 261 381 q 285 386 278 383 q 253 247 265 311 q 242 138 242 182 q 251 68 242 94 q 276 26 261 42 q 309 6 292 11 q 340 0 326 0 q 392 17 368 0 q 415 69 415 33 q 422 122 415 88 q 440 201 428 156 q 468 303 451 247 q 506 418 485 358 q 618 406 563 413 q 731 393 674 400 q 722 292 722 342 q 735 182 722 235 q 774 89 747 129 q 843 24 800 49 q 946 0 886 0 q 1008 23 988 0 q 1028 72 1028 46 q 1010 119 1028 99 q 957 139 993 139 q 943 146 949 139 q 935 163 938 153 q 931 185 932 174 q 931 204 931 196 q 942 283 931 239 q 972 381 953 328 q 1025 388 997 382 q 1076 405 1053 393 q 1113 437 1099 417 q 1128 486 1128 457 q 1101 535 1128 515 q 1040 556 1075 556 q 1111 754 1079 656 q 1143 935 1143 853 q 1032 1158 1143 1076 q 711 1240 921 1240 q 551 1228 632 1240 q 395 1190 471 1215 q 254 1128 319 1165 q 140 1042 189 1090 q 64 933 92 993 q 36 800 36 872 q 47 720 36 754 q 77 663 58 686 q 120 629 96 640 q 171 618 144 618 q 222 628 196 618 q 267 660 247 639 q 300 711 288 681 q 313 781 313 742 q 334 873 313 832 q 391 946 356 914 q 472 1001 426 978 q 563 1038 517 1024 q 651 1060 608 1053 q 725 1067 694 1067 q 783 1061 753 1067 q 840 1043 814 1056 q 884 1010 867 1031 q 901 960 901 989 q 887 887 901 932 q 851 785 872 842 q 805 663 829 729 q 761 528 781 597 q 658 540 710 535 q 557 553 607 546 q 627 712 589 633 q 707 857 665 790 q 719 892 719 876 q 684 938 719 922 q 607 954 649 954 q 556 949 582 954 q 508 931 531 943 q 468 903 485 919 q 443 865 451 886 q 388 715 415 792 q 336 563 360 639 q 278 556 308 561 q 224 538 249 550 q 183 503 199 525 q 167 450 167 482 q 191 401 167 421 q 251 381 215 381 z "},"L":{"ha":1142,"x_min":0,"x_max":1071,"o":"m 1071 226 q 974 357 1071 357 q 895 327 928 357 q 863 250 863 297 q 847 199 863 219 q 805 167 832 179 q 740 151 778 156 q 658 147 703 147 q 507 154 588 147 q 347 164 426 161 q 398 249 375 204 q 440 337 421 294 q 472 415 458 379 q 493 472 485 450 q 567 710 538 601 q 620 899 596 819 q 669 1022 644 978 q 728 1067 693 1067 q 758 1053 747 1067 q 773 1025 768 1040 q 778 996 778 1010 q 779 979 779 982 q 772 913 779 944 q 754 852 764 882 q 737 793 744 822 q 729 733 729 764 q 761 642 729 671 q 842 613 793 613 q 935 644 894 613 q 1002 722 975 675 q 1043 825 1029 769 q 1057 929 1057 881 q 1032 1054 1057 997 q 963 1153 1007 1111 q 858 1217 918 1194 q 729 1240 799 1240 q 600 1215 657 1240 q 499 1149 543 1190 q 423 1055 456 1108 q 366 945 390 1001 q 322 833 342 889 q 288 729 303 776 q 216 487 242 596 q 170 301 190 378 q 128 181 150 224 q 69 139 107 139 q 21 119 42 139 q 0 69 0 99 q 22 20 0 40 q 89 0 44 0 q 160 13 122 0 q 233 49 197 25 q 336 31 278 43 q 460 6 394 18 q 593 -16 525 -7 q 725 -25 661 -25 q 859 -10 796 -25 q 969 34 922 4 q 1044 112 1017 64 q 1071 226 1071 160 z "},"V":{"ha":1357,"x_min":36,"x_max":1417,"o":"m 614 1242 q 478 1224 547 1242 q 345 1173 410 1206 q 224 1094 281 1140 q 126 992 168 1049 q 60 871 85 936 q 36 735 36 806 q 47 652 36 688 q 77 594 58 617 q 120 559 96 571 q 171 547 144 547 q 222 558 196 547 q 268 592 247 569 q 301 647 289 614 q 314 724 314 681 q 345 859 313 796 q 423 969 378 922 q 515 1042 468 1015 q 592 1068 563 1068 q 625 1051 615 1068 q 635 1003 635 1033 q 610 870 635 949 q 557 701 586 792 q 503 517 528 611 q 479 338 479 424 q 497 210 479 271 q 550 102 515 149 q 636 28 585 56 q 754 0 688 0 q 931 51 846 0 q 1089 182 1015 101 q 1223 364 1163 263 q 1326 568 1283 465 q 1393 763 1369 671 q 1417 919 1417 856 q 1406 1023 1417 974 q 1373 1109 1396 1072 q 1314 1167 1350 1146 q 1226 1189 1278 1189 q 1132 1160 1158 1189 q 1106 1099 1106 1132 q 1125 1041 1106 1067 q 1181 1015 1144 1015 q 1205 1006 1199 1015 q 1211 967 1211 996 q 1188 815 1211 900 q 1126 641 1164 729 q 1040 469 1088 553 q 943 319 992 385 q 849 214 894 254 q 774 174 804 174 q 748 183 758 174 q 732 207 738 193 q 724 237 726 221 q 722 265 722 253 q 735 348 722 300 q 767 453 747 396 q 808 572 786 510 q 850 700 831 635 q 882 830 869 765 q 894 954 894 894 q 878 1069 894 1017 q 827 1160 861 1122 q 740 1220 793 1199 q 614 1242 688 1242 z "},"W":{"ha":1829,"x_min":36,"x_max":1876,"o":"m 760 174 q 731 189 740 174 q 722 231 722 204 q 735 316 722 265 q 767 427 747 367 q 808 555 786 488 q 850 691 831 622 q 882 826 869 760 q 894 953 894 893 q 878 1069 894 1017 q 827 1160 861 1122 q 740 1220 793 1199 q 614 1242 688 1242 q 478 1224 547 1242 q 345 1173 410 1206 q 224 1094 281 1140 q 126 992 168 1049 q 60 871 85 936 q 36 735 36 806 q 47 652 36 688 q 77 594 58 617 q 120 559 96 571 q 171 547 144 547 q 222 558 196 547 q 268 592 247 569 q 301 647 289 614 q 314 724 314 681 q 345 859 313 796 q 423 969 378 922 q 515 1042 468 1015 q 592 1068 563 1068 q 625 1051 615 1068 q 635 1003 635 1033 q 624 917 635 967 q 595 808 613 867 q 558 683 578 749 q 520 551 538 618 q 492 419 503 485 q 481 294 481 354 q 496 177 481 231 q 543 84 511 124 q 624 22 575 44 q 740 0 672 0 q 854 19 803 0 q 947 71 906 38 q 1021 149 989 104 q 1076 246 1053 194 q 1097 149 1083 194 q 1134 71 1110 104 q 1197 19 1158 38 q 1292 0 1236 0 q 1464 51 1385 0 q 1608 183 1543 101 q 1724 366 1674 264 q 1808 572 1774 468 q 1859 770 1842 675 q 1876 932 1876 865 q 1866 1028 1876 982 q 1833 1110 1856 1075 q 1772 1167 1810 1146 q 1682 1189 1735 1189 q 1592 1160 1618 1189 q 1567 1099 1567 1132 q 1585 1041 1567 1067 q 1640 1015 1604 1015 q 1665 1005 1658 1015 q 1671 961 1671 994 q 1653 812 1671 896 q 1607 640 1636 728 q 1541 469 1578 553 q 1465 319 1504 385 q 1388 214 1426 254 q 1318 174 1350 174 q 1282 200 1292 174 q 1272 271 1272 226 q 1281 376 1272 317 q 1298 497 1289 436 q 1315 611 1307 557 q 1324 703 1324 665 q 1291 812 1324 778 q 1215 846 1258 846 q 1169 836 1193 846 q 1127 807 1146 826 q 1095 760 1108 788 q 1079 697 1082 733 q 1058 604 1076 658 q 1014 492 1040 550 q 954 377 988 435 q 887 274 921 319 q 819 201 853 229 q 760 174 786 174 z "},"U":{"ha":1440,"x_min":36,"x_max":1522,"o":"m 708 229 q 722 314 708 264 q 758 422 736 364 q 804 545 779 481 q 851 674 829 610 q 886 802 872 739 q 900 919 900 865 q 875 1049 900 990 q 806 1151 850 1108 q 702 1217 763 1193 q 569 1242 642 1242 q 381 1202 476 1242 q 209 1094 286 1163 q 84 935 132 1026 q 36 739 36 843 q 47 654 36 690 q 77 594 58 618 q 120 559 96 571 q 171 547 144 547 q 222 558 196 547 q 268 592 247 569 q 301 647 289 614 q 314 725 314 681 q 344 860 313 797 q 421 969 376 922 q 513 1042 465 1015 q 589 1068 560 1068 q 630 1043 619 1068 q 640 990 640 1018 q 627 904 640 954 q 595 797 614 854 q 553 675 576 739 q 512 546 531 611 q 480 415 493 481 q 467 290 467 350 q 482 175 467 228 q 528 83 497 122 q 604 22 558 44 q 710 0 650 0 q 901 58 810 0 q 1071 208 992 115 q 1135 58 1085 115 q 1267 1 1185 1 q 1344 24 1322 1 q 1367 74 1367 47 q 1349 120 1367 100 q 1296 140 1332 140 q 1286 149 1290 140 q 1278 172 1282 158 q 1274 202 1275 186 q 1272 232 1272 218 q 1288 344 1272 276 q 1326 492 1303 413 q 1377 654 1349 571 q 1433 810 1406 738 q 1481 937 1460 882 q 1514 1015 1503 992 q 1522 1047 1522 1032 q 1490 1106 1522 1083 q 1417 1129 1458 1129 q 1348 1110 1378 1129 q 1297 1063 1318 1090 q 1260 1002 1275 1035 q 1236 944 1244 969 q 1191 821 1221 897 q 1123 659 1161 744 q 1039 487 1085 574 q 944 331 993 400 q 845 217 896 261 q 747 174 794 174 q 717 189 726 174 q 708 229 708 204 z "},"E":{"ha":975,"x_min":49,"x_max":1029,"o":"m 503 174 q 374 213 424 174 q 324 311 324 251 q 341 378 324 346 q 385 437 358 411 q 444 478 413 463 q 507 497 476 494 q 565 522 546 500 q 583 568 583 543 q 569 612 583 592 q 532 638 556 632 q 491 660 513 642 q 451 706 469 678 q 422 769 433 733 q 410 843 410 804 q 424 923 410 883 q 465 994 438 963 q 535 1047 493 1026 q 631 1067 576 1067 q 696 1056 672 1067 q 732 1029 719 1044 q 748 997 744 1014 q 751 967 751 979 q 744 914 751 942 q 727 856 736 886 q 710 795 718 826 q 703 733 703 764 q 735 642 703 671 q 818 613 768 613 q 913 644 874 613 q 978 721 953 675 q 1017 820 1004 767 q 1029 918 1029 874 q 999 1049 1029 990 q 917 1151 969 1108 q 790 1217 864 1193 q 625 1240 715 1240 q 425 1207 517 1240 q 268 1119 333 1174 q 166 994 203 1064 q 129 853 129 925 q 142 768 129 813 q 179 684 154 724 q 243 612 204 644 q 335 563 282 579 q 215 535 268 561 q 125 469 163 510 q 68 380 88 429 q 49 282 49 331 q 74 176 49 228 q 149 86 99 125 q 274 24 199 47 q 447 0 349 0 q 629 25 546 0 q 773 96 713 50 q 867 207 833 142 q 901 353 901 272 q 880 442 901 418 q 831 465 858 465 q 788 447 808 465 q 758 376 768 429 q 724 287 749 325 q 663 224 699 249 q 586 186 628 199 q 503 174 544 174 z "},"Y":{"ha":1438,"x_min":36,"x_max":1463,"o":"m 640 990 q 627 904 640 954 q 595 797 614 854 q 553 675 576 739 q 512 546 531 611 q 480 415 493 481 q 467 290 467 350 q 482 175 467 228 q 528 83 497 122 q 604 22 558 44 q 710 0 650 0 q 902 59 810 0 q 1074 213 994 118 q 1055 133 1067 183 q 1027 23 1043 82 q 990 -97 1011 -36 q 946 -208 969 -158 q 896 -288 922 -257 q 840 -319 869 -319 q 819 -311 825 -319 q 814 -290 814 -303 q 817 -257 814 -275 q 821 -219 821 -239 q 810 -167 821 -189 q 781 -129 799 -144 q 740 -106 763 -114 q 692 -99 717 -99 q 638 -108 664 -99 q 590 -135 611 -117 q 556 -182 569 -154 q 543 -247 543 -210 q 561 -333 543 -289 q 613 -412 579 -376 q 696 -470 647 -447 q 806 -493 744 -493 q 947 -455 885 -493 q 1060 -352 1010 -417 q 1152 -203 1111 -287 q 1228 -25 1193 -118 q 1324 257 1281 114 q 1399 525 1368 400 q 1446 745 1429 650 q 1463 882 1463 840 q 1449 946 1463 918 q 1415 993 1436 974 q 1369 1023 1394 1013 q 1317 1033 1343 1033 q 1228 999 1268 1033 q 1183 889 1189 964 q 1160 772 1181 843 q 1106 622 1139 701 q 1031 463 1074 543 q 940 319 988 383 q 843 214 893 254 q 747 174 793 174 q 717 189 726 174 q 708 229 708 204 q 722 314 708 264 q 758 422 736 364 q 804 545 779 481 q 851 674 829 610 q 886 802 872 739 q 900 919 900 865 q 875 1049 900 990 q 806 1151 850 1108 q 702 1217 763 1193 q 569 1242 642 1242 q 381 1202 476 1242 q 209 1094 286 1163 q 84 935 132 1026 q 36 739 36 843 q 47 654 36 690 q 77 594 58 618 q 120 559 96 571 q 171 547 144 547 q 222 558 196 547 q 268 592 247 569 q 301 647 289 614 q 314 725 314 681 q 344 860 313 797 q 421 969 376 922 q 513 1042 465 1015 q 589 1068 560 1068 q 630 1043 619 1068 q 640 990 640 1018 z "},"X":{"ha":1240,"x_min":36,"x_max":1351,"o":"m 665 382 q 718 235 686 304 q 797 113 750 165 q 907 31 843 61 q 1057 0 971 0 q 1138 28 1111 0 q 1164 90 1164 57 q 1141 148 1164 122 q 1069 174 1118 174 q 1013 211 1036 174 q 972 312 990 249 q 938 458 954 375 q 904 629 922 540 l 1324 1064 q 1350 1133 1350 1088 q 1320 1209 1351 1181 q 1246 1238 1289 1238 q 1168 1203 1201 1238 l 844 868 q 790 1012 821 944 q 717 1130 758 1079 q 619 1210 675 1181 q 493 1240 564 1240 q 329 1201 411 1240 q 182 1095 247 1163 q 76 938 117 1028 q 36 747 36 849 q 47 658 36 696 q 77 595 58 619 q 120 559 96 571 q 171 547 144 547 q 222 559 196 547 q 268 594 247 571 q 301 655 289 618 q 314 743 314 692 q 332 867 313 808 q 380 971 351 926 q 441 1042 408 1015 q 499 1068 474 1068 q 546 1033 528 1068 q 576 938 564 997 q 597 799 588 878 q 617 633 606 719 l 181 181 q 160 147 165 164 q 154 111 154 131 q 184 38 154 68 q 258 7 214 7 q 303 18 281 7 q 336 42 325 29 l 665 382 z "},"F":{"ha":1183,"x_min":39,"x_max":1796,"o":"m 460 -1 q 643 35 567 -1 q 772 132 719 72 q 859 267 825 192 q 915 421 893 343 q 983 409 947 414 q 1050 404 1018 404 q 1142 425 1104 404 q 1181 503 1181 446 q 1165 551 1181 536 q 1131 565 1150 565 q 1099 554 1113 565 q 1083 521 1085 543 q 1072 515 1083 515 q 1022 524 1056 515 q 944 542 988 532 q 964 642 956 594 q 982 724 972 689 q 1003 778 992 758 q 1029 799 1014 799 q 1075 822 1058 800 q 1092 871 1092 843 q 1084 906 1092 889 q 1060 938 1076 924 q 1019 962 1044 953 q 957 971 993 971 q 830 937 879 971 q 750 847 781 903 q 703 720 719 792 q 674 574 686 649 q 647 427 661 499 q 606 299 632 356 q 538 208 581 243 q 428 174 496 174 q 337 192 376 174 q 269 242 297 211 q 227 314 242 274 q 213 396 213 354 q 223 469 213 433 q 253 533 233 504 q 299 578 272 561 q 356 596 325 596 q 385 590 375 596 q 399 577 394 585 q 405 562 404 569 q 406 550 406 554 q 400 503 406 526 q 388 456 394 479 q 375 410 381 433 q 369 365 369 388 q 394 299 369 321 q 454 278 418 278 q 523 301 494 278 q 570 357 551 324 q 597 430 589 390 q 606 503 606 469 q 586 597 606 554 q 532 671 567 640 q 450 718 497 701 q 346 735 403 735 q 214 706 271 735 q 118 631 157 678 q 59 523 79 583 q 39 399 39 463 q 66 253 39 325 q 146 126 93 182 q 277 34 199 69 q 460 -1 356 -1 m 418 933 q 443 842 418 875 q 517 808 468 808 q 595 842 563 808 q 628 943 628 875 q 649 1028 628 997 q 698 1075 669 1060 q 756 1094 726 1090 q 801 1097 785 1097 q 939 1074 871 1097 q 1082 1022 1007 1050 q 1225 977 1150 997 q 1390 957 1300 957 q 1575 988 1499 957 q 1701 1067 1651 1019 q 1773 1168 1750 1114 q 1796 1268 1796 1222 q 1784 1328 1796 1303 q 1753 1372 1772 1354 q 1709 1397 1733 1389 q 1658 1406 1685 1406 q 1607 1397 1632 1406 q 1562 1372 1582 1389 q 1530 1331 1542 1356 q 1518 1274 1518 1306 q 1486 1197 1518 1228 q 1372 1165 1454 1165 q 1265 1178 1319 1165 q 1151 1207 1210 1190 q 986 1251 1072 1231 q 800 1272 900 1272 q 619 1238 692 1272 q 501 1151 546 1203 q 437 1040 456 1099 q 418 933 418 982 z "},"T":{"ha":1017,"x_min":39,"x_max":1796,"o":"m 428 174 q 337 192 376 174 q 269 242 297 211 q 227 314 242 274 q 213 396 213 354 q 223 469 213 433 q 253 533 233 504 q 299 578 272 561 q 356 596 325 596 q 385 590 375 596 q 399 577 394 585 q 405 562 404 569 q 406 550 406 554 q 400 503 406 526 q 388 456 394 479 q 375 410 381 433 q 369 365 369 388 q 394 299 369 321 q 454 278 418 278 q 523 301 494 278 q 570 357 551 324 q 597 430 589 390 q 606 503 606 469 q 586 597 606 554 q 532 671 567 640 q 450 718 497 701 q 346 735 403 735 q 214 706 271 735 q 118 631 157 678 q 59 523 79 583 q 39 399 39 463 q 66 253 39 325 q 146 126 93 182 q 277 34 199 69 q 460 -1 356 -1 q 637 33 563 -1 q 764 123 711 67 q 851 251 817 179 q 908 397 886 322 q 944 544 931 472 q 970 672 958 615 q 995 764 982 729 q 1029 799 1008 799 q 1067 826 1049 800 q 1088 882 1086 853 q 1059 944 1090 918 q 957 971 1028 971 q 830 937 879 971 q 750 847 781 903 q 703 720 719 792 q 674 574 686 649 q 647 427 661 499 q 606 299 632 356 q 538 208 581 243 q 428 174 496 174 m 800 1272 q 619 1238 692 1272 q 501 1151 546 1203 q 437 1040 456 1099 q 418 933 418 982 q 443 842 418 875 q 517 808 468 808 q 595 842 563 808 q 628 943 628 875 q 649 1028 628 997 q 698 1075 669 1060 q 756 1094 726 1090 q 801 1097 785 1097 q 939 1074 871 1097 q 1082 1022 1007 1050 q 1225 977 1150 997 q 1390 957 1300 957 q 1575 988 1499 957 q 1701 1067 1651 1019 q 1773 1168 1750 1114 q 1796 1268 1796 1222 q 1784 1328 1796 1303 q 1753 1372 1772 1354 q 1709 1397 1733 1389 q 1658 1406 1685 1406 q 1607 1397 1632 1406 q 1562 1372 1582 1389 q 1530 1331 1542 1356 q 1518 1274 1518 1306 q 1486 1197 1518 1228 q 1372 1165 1454 1165 q 1265 1178 1319 1165 q 1151 1207 1210 1190 q 986 1251 1072 1231 q 800 1272 900 1272 z "},"I":{"ha":775,"x_min":35,"x_max":1089,"o":"m 36 725 q 47 647 36 681 q 77 590 58 613 q 120 556 96 567 q 171 544 144 544 q 222 556 196 544 q 268 589 247 567 q 301 644 289 611 q 314 721 314 678 q 378 896 313 817 q 588 1022 444 975 q 485 837 526 938 q 411 636 443 736 q 364 460 382 544 q 328 311 346 376 q 292 207 311 246 q 240 168 272 168 q 180 144 206 168 q 154 85 154 119 q 181 24 154 49 q 239 0 207 0 q 378 25 319 0 q 478 94 436 50 q 551 197 521 138 q 603 324 581 256 q 646 466 626 392 q 688 613 665 540 q 740 786 715 703 q 797 933 764 869 q 877 1034 829 996 q 1000 1072 925 1072 q 1067 1100 1044 1072 q 1089 1160 1089 1128 q 1068 1215 1089 1190 q 1003 1240 1047 1240 q 826 1231 928 1240 q 617 1197 725 1221 q 406 1135 510 1174 q 219 1040 301 1097 q 85 905 136 983 q 36 725 35 826 z "},"J":{"ha":976,"x_min":36,"x_max":1018,"o":"m 36 726 q 47 647 36 681 q 77 590 58 613 q 120 556 96 567 q 171 544 144 544 q 222 556 196 544 q 268 589 247 567 q 301 644 289 611 q 314 722 314 678 q 342 846 313 788 q 426 949 371 904 q 560 1024 482 994 q 738 1063 639 1054 q 729 942 735 1018 q 710 767 724 865 q 672 556 696 669 q 607 324 647 442 q 593 285 603 310 q 569 235 583 260 q 535 192 554 210 q 490 174 515 174 q 469 181 475 174 q 464 203 464 189 q 467 236 464 218 q 471 274 471 254 q 460 326 471 304 q 431 364 449 349 q 389 387 413 379 q 340 394 365 394 q 288 385 314 394 q 240 358 261 376 q 206 311 219 339 q 193 246 193 283 q 210 159 193 203 q 260 80 228 115 q 338 22 293 44 q 438 0 383 0 q 669 109 556 0 q 865 422 782 218 q 925 593 897 500 q 974 777 953 686 q 1006 949 994 868 q 1018 1083 1018 1029 q 1008 1144 1018 1115 q 978 1194 997 1172 q 932 1228 958 1215 q 872 1240 906 1240 q 551 1199 703 1240 q 284 1089 399 1158 q 103 926 169 1019 q 36 726 36 832 z "},"K":{"ha":1218,"x_min":35,"x_max":1229,"o":"m 688 613 q 740 785 715 703 q 797 932 764 868 q 877 1034 829 996 q 1000 1072 925 1072 q 1067 1100 1044 1072 q 1089 1160 1089 1128 q 1068 1216 1089 1192 q 1003 1240 1047 1240 q 826 1231 928 1240 q 617 1197 725 1221 q 406 1135 510 1174 q 219 1040 301 1097 q 85 905 136 983 q 36 725 35 826 q 47 647 36 681 q 77 590 58 613 q 120 556 96 567 q 171 544 144 544 q 222 556 196 544 q 268 589 247 567 q 301 644 289 611 q 314 721 314 678 q 378 896 313 817 q 588 1022 444 975 q 485 837 526 938 q 411 636 443 736 q 364 460 382 544 q 328 311 346 376 q 292 207 311 246 q 240 168 272 168 q 180 144 206 168 q 154 85 154 119 q 181 24 154 49 q 239 0 207 0 q 400 35 335 0 q 510 131 465 71 q 583 271 554 192 q 638 438 613 350 q 672 428 654 431 q 708 426 690 426 q 746 369 729 408 q 781 283 763 331 q 822 186 800 236 q 874 94 844 136 q 944 26 904 53 q 1038 0 983 0 q 1121 25 1089 0 q 1153 97 1153 50 q 1124 176 1153 144 q 1051 208 1094 208 q 999 226 1021 208 q 960 269 976 243 q 931 328 943 296 q 907 392 918 361 q 885 447 896 422 q 860 485 874 472 q 984 528 924 499 q 1094 602 1044 558 q 1176 702 1143 646 q 1219 825 1210 758 q 1199 922 1229 888 q 1122 956 1169 956 q 1047 925 1075 956 q 1011 847 1018 894 q 976 741 1001 788 q 913 663 950 694 q 827 615 875 632 q 724 599 779 599 q 703 599 713 599 q 685 600 694 599 q 688 613 685 604 z "},"H":{"ha":1358,"x_min":35,"x_max":1432,"o":"m 1176 1 q 1253 24 1231 1 q 1276 74 1276 47 q 1258 120 1276 100 q 1206 140 1240 140 q 1196 149 1200 140 q 1188 172 1192 158 q 1183 202 1185 186 q 1182 232 1182 218 q 1188 299 1182 260 q 1206 383 1194 338 q 1252 393 1229 386 q 1294 412 1275 400 q 1324 442 1313 424 q 1335 486 1335 460 q 1312 534 1335 514 q 1254 556 1289 554 q 1303 702 1278 629 q 1353 838 1329 775 q 1395 947 1376 900 q 1424 1015 1414 994 q 1432 1047 1432 1032 q 1400 1106 1432 1083 q 1326 1129 1368 1129 q 1258 1110 1288 1129 q 1206 1063 1228 1090 q 1169 1002 1185 1035 q 1146 944 1154 969 q 1123 878 1139 922 q 1088 778 1107 835 q 1047 657 1068 722 q 1010 524 1026 592 q 841 543 926 532 q 672 561 756 554 q 698 657 685 603 q 729 768 711 711 q 771 879 747 825 q 826 976 794 933 q 901 1046 858 1019 q 1000 1072 944 1072 q 1068 1099 1044 1072 q 1092 1158 1092 1126 q 1069 1215 1092 1190 q 1003 1240 1047 1240 q 826 1231 928 1240 q 617 1197 725 1221 q 406 1135 510 1174 q 219 1040 301 1097 q 85 905 136 983 q 36 725 35 826 q 47 647 36 681 q 77 590 58 613 q 120 556 96 567 q 171 544 144 544 q 222 556 196 544 q 268 589 247 567 q 301 644 289 611 q 314 721 314 678 q 378 896 313 817 q 588 1022 444 975 q 485 837 526 938 q 411 636 443 736 q 364 460 382 544 q 328 311 346 376 q 292 207 311 246 q 240 168 272 168 q 180 144 206 168 q 154 85 154 119 q 181 24 154 49 q 239 0 207 0 q 398 35 333 0 q 507 128 463 69 q 581 263 551 186 q 635 424 610 339 q 808 409 719 421 q 983 388 896 397 q 976 333 979 360 q 974 281 974 306 q 988 168 974 219 q 1027 80 1001 117 q 1091 22 1053 43 q 1176 1 1129 1 z "},"G":{"ha":1036,"x_min":0,"x_max":978,"o":"m 451 -289 q 454 -256 451 -274 q 457 -219 457 -239 q 417 -128 457 -158 q 328 -97 378 -97 q 274 -106 301 -97 q 226 -134 247 -115 q 192 -181 206 -153 q 179 -246 179 -208 q 197 -333 179 -289 q 249 -412 215 -376 q 332 -469 283 -447 q 442 -492 381 -492 q 583 -454 521 -492 q 694 -358 646 -417 q 778 -228 742 -300 q 843 -86 815 -156 q 949 237 919 100 q 976 457 978 374 q 963 521 976 493 q 929 568 950 549 q 883 598 908 588 q 831 608 857 608 q 742 574 782 608 q 697 465 703 540 q 683 360 693 413 q 649 265 674 307 q 583 197 625 224 q 474 171 540 171 q 379 197 417 171 q 319 264 342 224 q 287 353 296 304 q 278 446 278 401 q 291 573 278 504 q 328 710 304 642 q 383 844 351 779 q 453 958 415 908 q 534 1037 492 1007 q 619 1067 576 1067 q 661 1056 647 1067 q 682 1032 675 1046 q 690 1005 689 1018 q 690 988 690 992 q 683 923 690 956 q 666 858 675 890 q 649 795 657 826 q 642 733 642 764 q 674 642 642 671 q 757 613 707 613 q 852 644 813 613 q 917 722 892 675 q 955 822 943 768 q 967 921 967 875 q 940 1051 967 992 q 866 1151 913 1110 q 756 1217 819 1193 q 618 1240 692 1240 q 442 1203 524 1240 q 291 1104 360 1167 q 168 960 222 1042 q 76 787 114 878 q 19 603 39 696 q 0 426 0 510 q 26 252 0 331 q 103 117 53 174 q 230 31 154 61 q 406 0 306 0 q 551 19 485 0 q 671 71 618 38 q 658 8 667 46 q 636 -74 649 -31 q 607 -161 624 -118 q 570 -240 590 -204 q 526 -297 550 -275 q 476 -318 503 -318 q 456 -310 461 -318 q 451 -289 451 -303 z "},"M":{"ha":1688,"x_min":35,"x_max":1761,"o":"m 154 85 q 181 24 154 49 q 239 0 207 0 q 378 25 319 0 q 478 94 436 50 q 551 197 521 138 q 603 324 581 256 q 646 466 626 392 q 688 613 665 540 q 738 779 715 700 q 792 922 760 858 q 820 797 806 865 q 845 659 835 729 q 860 520 856 589 q 858 393 865 451 q 801 342 822 375 q 781 269 781 308 q 821 171 781 211 q 919 131 861 131 q 998 147 964 131 q 1056 191 1032 164 q 1093 253 1079 218 q 1113 328 1107 289 q 1231 408 1174 360 q 1335 506 1288 457 q 1313 389 1321 446 q 1304 281 1304 332 q 1317 168 1304 219 q 1357 80 1331 117 q 1421 22 1383 43 q 1506 1 1458 1 q 1583 24 1560 1 q 1606 74 1606 47 q 1588 120 1606 100 q 1535 140 1571 140 q 1525 149 1529 140 q 1517 172 1521 158 q 1513 202 1514 186 q 1511 232 1511 218 q 1526 344 1511 276 q 1565 492 1542 413 q 1616 654 1588 571 q 1672 810 1644 738 q 1721 937 1699 882 q 1753 1015 1743 992 q 1761 1047 1761 1032 q 1729 1106 1761 1083 q 1656 1129 1697 1129 q 1587 1109 1617 1129 q 1535 1060 1557 1089 q 1497 998 1513 1031 q 1474 940 1482 965 q 1392 831 1435 886 q 1301 722 1349 775 q 1204 619 1254 668 q 1101 528 1154 569 q 1072 665 1090 594 q 1032 806 1054 736 q 985 942 1010 876 q 939 1064 961 1007 q 1000 1072 967 1072 q 1067 1100 1044 1072 q 1089 1160 1089 1128 q 1068 1215 1089 1190 q 1003 1240 1047 1240 q 826 1231 928 1240 q 617 1197 725 1221 q 406 1135 510 1174 q 219 1040 301 1097 q 85 905 136 983 q 36 725 35 826 q 47 647 36 681 q 77 590 58 613 q 120 556 96 567 q 171 544 144 544 q 222 556 196 544 q 268 589 247 567 q 301 644 289 611 q 314 721 314 678 q 378 896 313 817 q 588 1022 444 975 q 485 837 526 938 q 411 636 443 736 q 364 460 382 544 q 328 311 346 376 q 292 207 311 246 q 240 168 272 168 q 180 144 206 168 q 154 85 154 119 z "},"O":{"ha":1081,"x_min":57,"x_max":1100,"o":"m 282 408 q 292 508 282 454 q 320 617 301 563 q 365 722 339 672 q 421 807 390 772 q 435 706 422 760 q 473 608 447 653 q 538 533 499 563 q 631 503 576 503 q 713 532 681 503 q 746 624 746 561 q 738 685 746 654 q 722 748 731 717 q 705 810 713 779 q 697 869 697 840 q 701 920 697 888 q 717 985 706 953 q 750 1042 729 1018 q 803 1065 771 1065 q 871 1014 849 1065 q 893 882 893 963 q 879 741 893 818 q 840 585 865 664 q 776 431 814 506 q 691 299 739 357 q 586 207 643 242 q 464 172 529 172 q 376 194 411 172 q 321 251 342 217 q 291 328 300 286 q 282 408 282 369 m 443 0 q 632 38 544 0 q 793 139 719 75 q 924 286 867 203 q 1019 462 981 369 q 1079 649 1058 554 q 1100 829 1100 743 q 1078 993 1100 918 q 1015 1123 1056 1068 q 917 1208 975 1178 q 785 1239 858 1239 q 661 1213 717 1239 q 561 1146 606 1188 q 537 1150 550 1149 q 510 1151 524 1151 q 382 1119 442 1151 q 272 1033 322 1088 q 181 908 221 979 q 114 758 142 836 q 72 601 86 681 q 57 449 57 521 q 79 282 57 363 q 148 139 101 201 q 268 38 194 76 q 443 0 342 0 z "},"Q":{"ha":1081,"x_min":19,"x_max":1100,"o":"m 464 172 q 376 194 411 172 q 321 251 342 217 q 291 328 300 286 q 282 408 282 369 q 292 508 282 454 q 320 617 301 563 q 365 722 339 672 q 421 807 390 772 q 435 706 422 760 q 473 608 447 653 q 538 533 499 563 q 631 503 576 503 q 713 532 681 503 q 746 624 746 561 q 738 685 746 654 q 722 748 731 717 q 705 810 713 779 q 697 869 697 840 q 701 920 697 888 q 717 985 706 953 q 750 1042 729 1018 q 803 1065 771 1065 q 871 1014 849 1065 q 893 882 893 963 q 879 741 893 818 q 840 585 865 664 q 776 431 814 506 q 691 299 739 357 q 586 207 643 242 q 464 172 529 172 m 510 1151 q 382 1119 442 1151 q 272 1033 322 1088 q 181 908 221 979 q 114 758 142 836 q 72 601 86 681 q 57 449 57 521 q 103 215 57 324 q 250 47 150 106 q 183 67 214 60 q 124 75 151 75 q 88 69 106 75 q 54 53 69 64 q 29 28 39 43 q 19 -8 19 13 q 38 -49 19 -32 q 76 -65 57 -65 q 110 -40 100 -65 q 124 -31 113 -31 q 183 -53 143 -31 q 277 -111 224 -76 q 394 -187 331 -146 q 524 -262 457 -228 q 656 -320 590 -297 q 779 -343 721 -343 q 874 -326 829 -343 q 952 -279 918 -308 q 1006 -212 986 -250 q 1026 -132 1026 -174 q 992 -40 1026 -74 q 917 -6 958 -6 q 860 -26 888 -6 q 822 -86 833 -46 q 790 -135 811 -122 q 740 -149 769 -149 q 655 -133 703 -149 q 553 -92 607 -117 q 443 -40 500 -68 q 331 14 386 -11 q 383 3 356 7 q 443 0 411 0 q 632 38 544 0 q 793 139 719 75 q 924 286 867 203 q 1019 462 981 369 q 1079 649 1058 554 q 1100 829 1100 743 q 1078 993 1100 918 q 1015 1123 1056 1068 q 917 1208 975 1178 q 785 1239 858 1239 q 661 1213 717 1239 q 561 1146 606 1188 q 537 1150 550 1149 q 510 1151 524 1151 z "},"Z":{"ha":1325,"x_min":29,"x_max":1356,"o":"m 582 958 q 604 1021 582 996 q 664 1061 626 1046 q 751 1083 701 1076 q 857 1089 801 1089 q 999 1081 928 1089 q 910 1004 964 1056 q 792 885 857 953 q 656 738 728 817 q 513 582 583 660 q 375 432 442 504 q 255 304 308 360 q 164 215 201 249 q 114 182 126 182 q 47 158 64 182 q 29 99 29 133 q 54 38 29 63 q 113 14 79 14 q 203 23 168 14 q 267 43 239 32 q 407 24 324 35 q 579 1 490 13 q 752 -17 668 -10 q 894 -25 836 -25 q 1028 -10 965 -25 q 1139 34 1092 4 q 1213 112 1186 64 q 1240 226 1240 160 q 1215 323 1240 289 q 1143 357 1190 357 q 1065 327 1097 357 q 1032 250 1032 297 q 1017 199 1032 219 q 974 167 1001 179 q 909 151 947 156 q 826 147 871 147 q 753 149 799 147 q 653 152 707 150 q 542 156 599 154 q 435 161 485 158 q 526 235 475 186 q 637 349 578 285 q 760 486 696 413 q 887 633 824 560 q 1010 774 950 706 q 1120 896 1069 843 q 1211 982 1171 949 q 1275 1018 1251 1015 q 1334 1053 1313 1024 q 1356 1117 1356 1083 q 1337 1172 1356 1147 q 1276 1200 1318 1196 q 1033 1222 1158 1211 q 788 1233 907 1233 q 600 1222 688 1233 q 447 1183 513 1211 q 342 1106 381 1154 q 304 982 304 1057 q 315 910 304 942 q 345 858 326 879 q 388 825 364 836 q 439 814 413 814 q 491 824 465 814 q 537 853 517 835 q 569 899 557 872 q 582 958 582 926 z "},"":{"ha":510,"x_min":74,"x_max":440,"o":"m 350 632 q 383 638 367 632 q 411 656 399 644 q 432 681 424 667 q 440 713 440 696 q 417 761 440 740 q 358 782 393 782 q 305 763 326 782 q 283 708 283 743 q 299 656 283 681 q 350 632 315 632 m 140 632 q 173 638 157 632 q 201 656 189 644 q 222 681 214 667 q 231 713 231 696 q 207 761 231 740 q 149 782 183 782 q 95 763 117 782 q 74 708 74 743 q 90 656 74 681 q 140 632 106 632 z "},"":{"ha":340,"x_min":43,"x_max":321,"o":"m 101 633 q 146 663 126 631 q 200 719 158 685 q 292 782 242 753 q 313 801 304 789 q 321 828 321 814 q 313 856 321 843 q 293 876 306 868 q 266 890 281 885 q 238 894 251 894 q 208 889 222 894 q 181 872 193 883 q 144 838 168 861 q 99 789 121 815 q 60 737 76 763 q 43 692 43 711 q 60 651 43 668 q 101 633 78 633 z "},"`":{"ha":338,"x_min":28,"x_max":304,"o":"m 57 782 q 148 719 107 753 q 201 663 189 685 q 247 633 221 631 q 288 651 271 633 q 304 692 304 668 q 288 737 304 711 q 249 789 271 763 q 203 838 226 815 q 168 872 181 861 q 141 889 156 883 q 111 894 126 894 q 83 890 97 894 q 56 876 68 885 q 35 856 43 868 q 28 828 28 843 q 36 801 28 814 q 57 782 44 789 z "},"":{"ha":271,"x_min":61,"x_max":218,"o":"m 128 632 q 190 656 161 632 q 218 713 218 679 q 195 761 218 740 q 138 782 172 782 q 83 763 104 782 q 61 708 61 743 q 77 656 61 681 q 128 632 93 632 z "},"'":{"ha":199,"x_min":92,"x_max":290,"o":"m 200 664 q 224 735 203 689 q 278 828 246 782 q 288 853 285 839 q 283 879 290 867 q 259 906 276 899 q 222 914 242 914 q 176 901 197 914 q 146 865 156 889 q 128 821 139 850 q 108 760 117 792 q 96 698 100 728 q 100 651 92 668 q 122 626 107 636 q 153 617 136 617 q 186 630 175 617 q 200 664 197 643 z "},"\"":{"ha":476,"x_min":92,"x_max":485,"o":"m 294 651 q 316 626 301 636 q 347 617 331 617 q 381 630 369 617 q 394 664 392 643 q 419 735 397 689 q 472 828 440 782 q 482 853 479 839 q 478 879 485 867 q 453 906 471 899 q 417 914 436 914 q 371 901 392 914 q 340 865 350 889 q 322 821 333 850 q 303 760 311 792 q 290 698 294 728 q 294 651 286 668 m 100 651 q 122 626 107 636 q 153 617 136 617 q 186 630 175 617 q 200 664 197 643 q 224 735 203 689 q 278 828 246 782 q 288 853 285 839 q 283 879 290 867 q 259 906 276 899 q 222 914 242 914 q 176 901 197 914 q 146 865 156 889 q 128 821 139 850 q 108 760 117 792 q 96 698 100 728 q 100 651 92 668 z "},"":{"ha":444,"x_min":29,"x_max":393,"o":"m 89 632 q 134 642 111 632 q 175 669 157 651 q 194 692 182 678 q 221 722 207 706 q 231 692 226 706 q 238 669 235 678 q 299 632 251 632 q 329 637 313 632 q 360 650 346 642 q 383 671 374 658 q 393 700 393 683 q 375 743 393 715 q 344 804 356 771 q 325 867 332 838 q 309 912 318 900 q 281 924 300 924 q 247 910 264 922 q 201 864 229 899 q 145 802 179 836 q 61 728 111 768 q 39 704 49 718 q 29 674 29 690 q 49 642 29 653 q 89 632 68 632 z "},".":{"ha":393,"x_min":93,"x_max":304,"o":"m 93 104 q 115 33 93 67 q 183 0 136 0 q 227 8 206 0 q 266 31 249 17 q 294 66 283 46 q 304 108 304 86 q 273 174 304 147 q 194 201 242 201 q 122 176 150 201 q 93 104 93 150 z "},":":{"ha":393,"x_min":93,"x_max":304,"o":"m 93 535 q 115 464 93 497 q 183 431 136 431 q 227 439 206 431 q 266 462 249 447 q 294 497 283 476 q 304 539 304 517 q 273 605 304 578 q 194 632 242 632 q 122 606 150 632 q 93 535 93 581 m 93 104 q 115 33 93 67 q 183 0 136 0 q 227 8 206 0 q 266 31 249 17 q 294 66 283 46 q 304 108 304 86 q 273 174 304 147 q 194 201 242 201 q 122 176 150 201 q 93 104 93 150 z "},"/":{"ha":422,"x_min":46,"x_max":476,"o":"m 46 65 q 67 17 46 38 q 114 -3 88 -3 q 150 9 133 -3 q 174 40 167 21 l 472 935 q 476 961 476 947 q 457 1006 476 988 q 410 1025 438 1025 q 373 1014 390 1025 q 347 983 356 1003 l 50 90 q 46 65 46 74 z "},"":{"ha":633,"x_min":71,"x_max":563,"o":"m 71 703 q 89 648 71 664 q 128 632 107 632 q 162 644 147 632 q 176 675 176 656 q 185 679 176 679 q 224 672 200 679 q 278 654 247 664 q 342 638 308 646 q 410 631 375 631 q 520 663 478 631 q 563 753 563 694 q 544 810 563 792 q 506 829 526 829 q 472 815 486 829 q 457 775 457 801 q 456 772 456 774 q 449 769 453 769 q 405 778 433 769 q 342 796 376 786 q 277 811 310 804 q 214 818 244 818 q 162 811 188 818 q 116 790 136 804 q 83 755 96 776 q 71 703 71 733 z "},"N":{"ha":1344,"x_min":35,"x_max":1414,"o":"m 881 1003 q 872 1031 879 1015 q 929 1061 899 1050 q 1000 1072 960 1072 q 1072 1100 1047 1072 q 1096 1160 1096 1128 q 1073 1215 1096 1190 q 1003 1240 1050 1240 q 826 1231 928 1240 q 617 1197 725 1221 q 406 1135 510 1174 q 219 1040 301 1097 q 85 905 136 983 q 36 725 35 826 q 47 647 36 681 q 77 590 58 613 q 120 556 96 567 q 171 544 144 544 q 222 556 196 544 q 268 589 247 567 q 301 644 289 611 q 314 721 314 678 q 378 896 313 817 q 588 1022 444 975 q 485 837 526 938 q 411 636 443 736 q 364 460 382 544 q 328 311 346 376 q 292 207 311 246 q 240 168 272 168 q 180 144 206 168 q 154 85 154 119 q 181 24 154 49 q 239 0 207 0 q 378 25 319 0 q 478 94 436 50 q 551 197 521 138 q 603 324 581 256 q 646 466 626 392 q 688 613 665 540 q 702 660 694 636 q 717 708 710 685 q 737 511 724 614 q 775 315 750 408 q 840 147 800 222 q 939 35 881 72 l 946 31 q 1054 0 999 1 q 1153 40 1113 0 q 1193 139 1193 81 q 1188 174 1193 157 q 1176 206 1183 190 q 1246 381 1206 283 q 1324 579 1286 478 q 1388 777 1361 681 q 1414 947 1414 874 q 1406 1015 1414 983 q 1379 1070 1397 1046 q 1334 1108 1361 1094 q 1269 1122 1307 1122 q 1181 1097 1219 1122 q 1143 1019 1143 1071 q 1171 945 1143 976 q 1242 911 1199 914 q 1219 785 1242 861 q 1163 625 1196 708 q 1094 461 1129 542 q 1038 322 1060 381 q 981 464 1006 381 q 938 636 956 547 q 907 807 919 725 q 888 944 894 889 l 881 1003 z "},"":{"ha":485,"x_min":0,"x_max":443,"o":"m 60 633 q 91 644 79 633 q 108 675 103 656 q 147 742 115 699 q 218 828 178 786 q 235 868 235 847 q 210 911 235 897 q 160 925 185 925 q 118 915 138 925 q 88 886 99 906 q 64 849 79 874 q 35 795 49 824 q 10 738 21 767 q 0 689 0 710 q 18 649 0 665 q 60 633 36 633 m 208 689 q 226 649 208 665 q 268 633 244 633 q 299 644 288 633 q 317 675 311 656 q 355 742 324 699 q 426 828 386 786 q 443 868 443 847 q 418 911 443 897 q 368 925 393 925 q 326 915 346 925 q 296 886 307 906 q 272 849 288 874 q 243 795 257 824 q 219 738 229 767 q 208 689 208 710 z "},"":{"ha":442,"x_min":56,"x_max":419,"o":"m 56 856 q 72 813 56 839 q 104 751 92 785 q 122 689 117 718 q 139 643 129 654 q 167 632 149 632 q 202 645 185 633 q 247 692 219 657 q 303 753 269 719 q 388 828 338 788 q 410 851 400 838 q 419 882 419 865 q 400 913 419 903 q 358 924 381 924 q 274 886 311 924 q 253 863 265 876 q 226 833 242 850 q 218 863 222 850 q 211 886 214 876 q 188 914 204 904 q 149 924 171 924 q 118 919 135 924 q 88 906 101 914 q 65 885 74 897 q 56 856 56 872 z "},"":{"ha":685,"x_min":-43,"x_max":779,"o":"m 197 174 q 173 183 182 174 q 164 208 164 193 q 186 276 164 233 q 244 361 208 318 q 323 438 279 404 q 411 482 367 472 q 391 417 401 454 q 371 336 381 379 q 328 278 351 307 q 283 226 306 250 q 238 188 260 203 q 197 174 215 174 m 474 601 q 413 625 446 618 q 350 632 379 632 q 202 590 274 632 q 76 483 131 547 q -10 342 22 418 q -43 196 -43 265 q -31 119 -43 156 q 3 57 -19 83 q 60 15 26 31 q 139 0 94 0 q 261 31 203 0 q 365 108 319 61 q 412 30 379 60 q 499 0 444 0 q 603 34 557 0 q 685 119 650 68 q 744 232 721 171 q 778 347 768 293 q 779 356 779 350 q 765 385 779 375 q 732 394 750 394 q 704 388 717 394 q 685 365 692 381 q 665 321 679 353 q 631 257 650 289 q 591 200 613 225 q 551 175 569 175 q 534 188 538 175 q 531 211 531 200 q 545 292 531 243 q 578 390 560 342 q 614 477 597 439 q 635 524 631 515 q 644 560 644 542 q 617 612 644 592 q 554 632 590 632 q 514 624 535 632 q 474 601 493 617 m 161 815 q 252 752 211 786 q 306 696 293 718 q 351 667 325 664 q 392 684 375 667 q 408 725 408 701 q 392 770 408 744 q 353 822 375 796 q 308 872 331 849 q 272 906 285 894 q 245 922 260 917 q 215 928 231 928 q 187 923 201 928 q 160 910 172 918 q 140 889 147 901 q 132 861 132 876 q 140 835 132 847 q 161 815 149 822 z "},"":{"ha":685,"x_min":-43,"x_max":779,"o":"m 197 174 q 173 183 182 174 q 164 208 164 193 q 186 276 164 233 q 244 361 208 318 q 323 438 279 404 q 411 482 367 472 q 391 417 401 454 q 371 336 381 379 q 328 278 351 307 q 283 226 306 250 q 238 188 260 203 q 197 174 215 174 m 474 601 q 413 625 446 618 q 350 632 379 632 q 202 590 274 632 q 76 483 131 547 q -10 342 22 418 q -43 196 -43 265 q -31 119 -43 156 q 3 57 -19 83 q 60 15 26 31 q 139 0 94 0 q 261 31 203 0 q 365 108 319 61 q 412 30 379 60 q 499 0 444 0 q 603 34 557 0 q 685 119 650 68 q 744 232 721 171 q 778 347 768 293 q 779 356 779 350 q 765 385 779 375 q 732 394 750 394 q 704 388 717 394 q 685 365 692 381 q 665 321 679 353 q 631 257 650 289 q 591 200 613 225 q 551 175 569 175 q 534 188 538 175 q 531 211 531 200 q 545 292 531 243 q 578 390 560 342 q 614 477 597 439 q 635 524 631 515 q 644 560 644 542 q 617 612 644 592 q 554 632 590 632 q 514 624 535 632 q 474 601 493 617 m 354 667 q 399 696 379 664 q 453 752 411 718 q 544 815 494 786 q 565 835 557 822 q 574 861 574 847 q 566 889 574 876 q 546 910 558 901 q 519 923 533 918 q 490 928 504 928 q 460 922 475 928 q 433 906 446 917 q 397 872 421 894 q 351 822 374 849 q 313 770 329 796 q 296 725 296 744 q 313 684 296 701 q 354 667 331 667 z "},"":{"ha":685,"x_min":-43,"x_max":779,"o":"m 197 174 q 173 183 182 174 q 164 208 164 193 q 186 276 164 233 q 244 361 208 318 q 323 438 279 404 q 411 482 367 472 q 391 417 401 454 q 371 336 381 379 q 328 278 351 307 q 283 226 306 250 q 238 188 260 203 q 197 174 215 174 m 474 601 q 413 625 446 618 q 350 632 379 632 q 202 590 274 632 q 76 483 131 547 q -10 342 22 418 q -43 196 -43 265 q -31 119 -43 156 q 3 57 -19 83 q 60 15 26 31 q 139 0 94 0 q 261 31 203 0 q 365 108 319 61 q 412 30 379 60 q 499 0 444 0 q 603 34 557 0 q 685 119 650 68 q 744 232 721 171 q 778 347 768 293 q 779 356 779 350 q 765 385 779 375 q 732 394 750 394 q 704 388 717 394 q 685 365 692 381 q 665 321 679 353 q 631 257 650 289 q 591 200 613 225 q 551 175 569 175 q 534 188 538 175 q 531 211 531 200 q 545 292 531 243 q 578 390 560 342 q 614 477 597 439 q 635 524 631 515 q 644 560 644 542 q 617 612 644 592 q 554 632 590 632 q 514 624 535 632 q 474 601 493 617 m 229 649 q 274 658 251 649 q 315 686 297 668 q 335 708 322 694 q 361 739 347 722 q 371 708 367 722 q 378 686 375 694 q 439 649 392 649 q 469 653 453 649 q 500 667 486 658 q 524 688 514 675 q 533 717 533 700 q 515 760 533 732 q 484 821 496 788 q 465 883 472 854 q 449 928 458 917 q 421 940 440 940 q 387 927 404 939 q 342 881 369 915 q 285 819 319 853 q 201 744 251 785 q 179 721 189 735 q 169 690 169 707 q 189 659 169 669 q 229 649 208 649 z "},"":{"ha":685,"x_min":-43,"x_max":779,"o":"m 197 174 q 173 183 182 174 q 164 208 164 193 q 186 276 164 233 q 244 361 208 318 q 323 438 279 404 q 411 482 367 472 q 391 417 401 454 q 371 336 381 379 q 328 278 351 307 q 283 226 306 250 q 238 188 260 203 q 197 174 215 174 m 474 601 q 413 625 446 618 q 350 632 379 632 q 202 590 274 632 q 76 483 131 547 q -10 342 22 418 q -43 196 -43 265 q -31 119 -43 156 q 3 57 -19 83 q 60 15 26 31 q 139 0 94 0 q 261 31 203 0 q 365 108 319 61 q 412 30 379 60 q 499 0 444 0 q 603 34 557 0 q 685 119 650 68 q 744 232 721 171 q 778 347 768 293 q 779 356 779 350 q 765 385 779 375 q 732 394 750 394 q 704 388 717 394 q 685 365 692 381 q 665 321 679 353 q 631 257 650 289 q 591 200 613 225 q 551 175 569 175 q 534 188 538 175 q 531 211 531 200 q 545 292 531 243 q 578 390 560 342 q 614 477 597 439 q 635 524 631 515 q 644 560 644 542 q 617 612 644 592 q 554 632 590 632 q 514 624 535 632 q 474 601 493 617 m 106 736 q 124 681 106 697 q 163 665 142 665 q 197 677 182 665 q 211 708 211 689 q 219 713 211 713 q 258 705 235 713 q 313 688 282 697 q 376 672 343 679 q 444 664 410 664 q 555 696 513 664 q 597 786 597 728 q 579 844 597 825 q 540 863 561 863 q 506 849 521 863 q 492 808 492 835 q 490 806 490 807 q 483 803 488 803 q 440 811 468 803 q 376 829 411 819 q 312 844 344 838 q 249 851 279 851 q 197 844 222 851 q 151 824 171 838 q 118 788 131 810 q 106 736 106 767 z "},"":{"ha":685,"x_min":-43,"x_max":779,"o":"m 197 174 q 173 183 182 174 q 164 208 164 193 q 186 276 164 233 q 244 361 208 318 q 323 438 279 404 q 411 482 367 472 q 391 417 401 454 q 371 336 381 379 q 328 278 351 307 q 283 226 306 250 q 238 188 260 203 q 197 174 215 174 m 474 601 q 413 625 446 618 q 350 632 379 632 q 202 590 274 632 q 76 483 131 547 q -10 342 22 418 q -43 196 -43 265 q -31 119 -43 156 q 3 57 -19 83 q 60 15 26 31 q 139 0 94 0 q 261 31 203 0 q 365 108 319 61 q 412 30 379 60 q 499 0 444 0 q 603 34 557 0 q 685 119 650 68 q 744 232 721 171 q 778 347 768 293 q 779 356 779 350 q 765 385 779 375 q 732 394 750 394 q 704 388 717 394 q 685 365 692 381 q 665 321 679 353 q 631 257 650 289 q 591 200 613 225 q 551 175 569 175 q 534 188 538 175 q 531 211 531 200 q 545 292 531 243 q 578 390 560 342 q 614 477 597 439 q 635 524 631 515 q 644 560 644 542 q 617 612 644 592 q 554 632 590 632 q 514 624 535 632 q 474 601 493 617 m 450 665 q 483 672 467 665 q 511 689 499 678 q 532 715 524 700 q 540 746 540 729 q 517 794 540 774 q 458 815 493 815 q 405 796 426 815 q 383 742 383 776 q 399 690 383 714 q 450 665 415 665 m 240 665 q 273 672 257 665 q 301 689 289 678 q 322 715 314 700 q 331 746 331 729 q 307 794 331 774 q 249 815 283 815 q 195 796 217 815 q 174 742 174 776 q 190 690 174 714 q 240 665 206 665 z "},"":{"ha":493,"x_min":-35,"x_max":586,"o":"m 233 396 q 249 420 238 404 q 272 452 260 436 q 297 481 285 468 q 315 493 308 493 q 288 434 315 458 q 233 396 261 410 m -35 210 q -22 128 -35 167 q 17 61 -8 89 q 83 17 43 33 q 176 0 122 0 q 314 28 246 0 q 438 103 382 56 q 534 213 494 150 q 586 346 574 276 q 538 394 586 394 q 511 388 524 394 q 493 365 499 381 q 454 294 479 329 q 398 233 429 260 q 331 189 367 206 q 258 172 294 172 q 230 175 244 172 q 203 185 215 178 q 182 206 190 193 q 174 240 174 219 q 186 294 174 264 q 277 318 235 294 q 352 378 319 342 q 403 456 385 414 q 422 536 422 499 q 397 604 422 576 q 314 632 372 632 q 181 592 244 632 q 70 489 118 551 q -6 352 22 426 q -35 210 -35 278 m 124 814 q 215 751 174 785 q 268 694 256 717 q 314 665 288 663 q 354 683 338 665 q 371 724 371 700 q 354 769 371 743 q 315 821 338 794 q 270 870 293 847 q 235 904 247 893 q 208 921 222 915 q 178 926 193 926 q 149 922 164 926 q 122 908 135 917 q 102 888 110 900 q 94 860 94 875 q 103 833 94 846 q 124 814 111 821 z "},"":{"ha":493,"x_min":-35,"x_max":586,"o":"m 233 396 q 249 420 238 404 q 272 452 260 436 q 297 481 285 468 q 315 493 308 493 q 288 434 315 458 q 233 396 261 410 m -35 210 q -22 128 -35 167 q 17 61 -8 89 q 83 17 43 33 q 176 0 122 0 q 314 28 246 0 q 438 103 382 56 q 534 213 494 150 q 586 346 574 276 q 538 394 586 394 q 511 388 524 394 q 493 365 499 381 q 454 294 479 329 q 398 233 429 260 q 331 189 367 206 q 258 172 294 172 q 230 175 244 172 q 203 185 215 178 q 182 206 190 193 q 174 240 174 219 q 186 294 174 264 q 277 318 235 294 q 352 378 319 342 q 403 456 385 414 q 422 536 422 499 q 397 604 422 576 q 314 632 372 632 q 181 592 244 632 q 70 489 118 551 q -6 352 22 426 q -35 210 -35 278 m 317 665 q 361 694 342 663 q 415 751 374 717 q 507 814 457 785 q 528 833 519 821 q 536 860 536 846 q 528 888 536 875 q 508 908 521 900 q 481 922 496 917 q 453 926 467 926 q 423 921 438 926 q 396 904 408 915 q 360 870 383 893 q 314 821 336 847 q 275 769 292 794 q 258 724 258 743 q 276 683 258 700 q 317 665 293 665 z "},"":{"ha":493,"x_min":-35,"x_max":586,"o":"m 233 396 q 249 420 238 404 q 272 452 260 436 q 297 481 285 468 q 315 493 308 493 q 288 434 315 458 q 233 396 261 410 m -35 210 q -22 128 -35 167 q 17 61 -8 89 q 83 17 43 33 q 176 0 122 0 q 314 28 246 0 q 438 103 382 56 q 534 213 494 150 q 586 346 574 276 q 538 394 586 394 q 511 388 524 394 q 493 365 499 381 q 454 294 479 329 q 398 233 429 260 q 331 189 367 206 q 258 172 294 172 q 230 175 244 172 q 203 185 215 178 q 182 206 190 193 q 174 240 174 219 q 186 294 174 264 q 277 318 235 294 q 352 378 319 342 q 403 456 385 414 q 422 536 422 499 q 397 604 422 576 q 314 632 372 632 q 181 592 244 632 q 70 489 118 551 q -6 352 22 426 q -35 210 -35 278 m 192 647 q 237 657 214 647 q 278 685 260 667 q 297 707 285 693 q 324 738 310 721 q 333 707 329 721 q 340 685 338 693 q 401 647 354 647 q 432 652 415 647 q 463 665 449 657 q 486 686 476 674 q 496 715 496 699 q 478 758 496 731 q 447 819 458 786 q 428 882 435 853 q 412 927 421 915 q 383 939 403 939 q 349 926 367 938 q 304 879 332 914 q 248 817 282 851 q 164 743 214 783 q 142 719 151 733 q 132 689 132 706 q 151 658 132 668 q 192 647 171 647 z "},"":{"ha":493,"x_min":-35,"x_max":586,"o":"m 233 396 q 249 420 238 404 q 272 452 260 436 q 297 481 285 468 q 315 493 308 493 q 288 434 315 458 q 233 396 261 410 m -35 210 q -22 128 -35 167 q 17 61 -8 89 q 83 17 43 33 q 176 0 122 0 q 314 28 246 0 q 438 103 382 56 q 534 213 494 150 q 586 346 574 276 q 538 394 586 394 q 511 388 524 394 q 493 365 499 381 q 454 294 479 329 q 398 233 429 260 q 331 189 367 206 q 258 172 294 172 q 230 175 244 172 q 203 185 215 178 q 182 206 190 193 q 174 240 174 219 q 186 294 174 264 q 277 318 235 294 q 352 378 319 342 q 403 456 385 414 q 422 536 422 499 q 397 604 422 576 q 314 632 372 632 q 181 592 244 632 q 70 489 118 551 q -6 352 22 426 q -35 210 -35 278 m 413 664 q 445 670 429 664 q 474 688 461 676 q 494 713 486 699 q 503 744 503 728 q 479 793 503 772 q 421 814 456 814 q 367 794 389 814 q 346 740 346 775 q 362 688 346 713 q 413 664 378 664 m 203 664 q 235 670 219 664 q 264 688 251 676 q 285 713 276 699 q 293 744 293 728 q 269 793 293 772 q 211 814 246 814 q 158 794 179 814 q 136 740 136 775 q 152 688 136 713 q 203 664 168 664 z "},"":{"ha":665,"x_min":-44,"x_max":761,"o":"m 269 569 q 245 616 269 600 q 185 632 221 632 q 143 626 164 632 q 103 610 122 621 q 70 581 85 599 q 49 539 56 564 q 14 415 31 482 q -16 286 -3 349 q -37 172 -29 224 q -44 96 -44 121 q -15 21 -44 43 q 49 -1 15 -1 q 81 8 68 -1 q 94 50 93 18 q 139 135 113 82 q 199 246 165 188 q 247 324 222 286 q 294 392 272 363 q 335 440 317 422 q 361 458 353 458 q 368 450 368 458 q 358 403 368 440 q 336 321 349 367 q 314 228 324 275 q 304 147 304 181 q 311 97 304 122 q 334 49 318 71 q 376 14 350 28 q 440 0 403 0 q 552 34 499 0 q 649 119 606 68 q 721 232 692 171 q 760 347 750 293 q 761 356 761 350 q 747 385 761 375 q 714 394 732 394 q 687 388 700 394 q 667 365 674 381 q 647 321 661 353 q 613 256 632 289 q 574 199 594 224 q 536 174 553 174 q 518 187 522 174 q 514 213 514 200 q 524 275 514 238 q 548 354 535 313 q 572 438 561 396 q 582 513 582 479 q 547 601 582 571 q 456 632 513 632 q 356 608 404 632 q 263 539 307 583 q 268 555 267 547 q 269 569 269 563 m 139 735 q 157 680 139 696 q 196 664 175 664 q 230 676 215 664 q 244 707 244 688 q 253 711 244 711 q 292 703 268 711 q 346 686 315 696 q 410 670 376 678 q 478 663 443 663 q 588 694 546 663 q 631 785 631 726 q 613 842 631 824 q 574 861 594 861 q 540 847 554 861 q 525 807 525 833 q 524 804 524 806 q 517 801 521 801 q 473 810 501 801 q 410 828 444 818 q 345 843 378 836 q 282 850 313 850 q 230 843 256 850 q 184 822 204 836 q 151 787 164 808 q 139 735 139 765 z "},"":{"ha":556,"x_min":-39,"x_max":654,"o":"m 261 386 q 268 307 261 349 q 301 246 275 265 q 254 172 283 206 q 188 139 225 139 q 145 160 156 139 q 135 201 135 182 q 147 257 135 228 q 178 313 160 286 q 219 363 197 340 q 263 400 242 386 q 262 395 263 397 q 261 390 261 393 q 261 386 261 388 m 653 356 q 654 364 654 358 q 641 390 654 381 q 610 399 628 399 q 578 390 594 399 q 556 365 563 382 q 519 328 544 342 q 469 313 494 314 q 479 345 474 324 q 485 390 485 367 q 478 440 485 411 q 461 488 472 468 q 469 525 469 507 q 442 601 469 569 q 347 632 414 632 q 206 594 275 632 q 82 498 136 557 q -6 365 28 439 q -39 215 -39 290 q -25 130 -39 169 q 15 61 -11 90 q 81 16 42 32 q 171 0 121 0 q 332 54 267 0 q 433 196 397 108 l 442 196 q 503 201 471 196 q 565 224 536 207 q 618 272 594 240 q 653 356 642 304 m 153 814 q 244 751 203 785 q 297 694 285 717 q 343 665 317 663 q 383 683 367 665 q 400 724 400 700 q 383 769 400 743 q 344 821 367 794 q 299 870 322 847 q 264 904 276 893 q 237 921 251 915 q 207 926 222 926 q 178 922 193 926 q 151 908 164 917 q 131 888 139 900 q 124 860 124 875 q 132 833 124 846 q 153 814 140 821 z "},"":{"ha":556,"x_min":-39,"x_max":654,"o":"m 261 386 q 268 307 261 349 q 301 246 275 265 q 254 172 283 206 q 188 139 225 139 q 145 160 156 139 q 135 201 135 182 q 147 257 135 228 q 178 313 160 286 q 219 363 197 340 q 263 400 242 386 q 262 395 263 397 q 261 390 261 393 q 261 386 261 388 m 653 356 q 654 364 654 358 q 641 390 654 381 q 610 399 628 399 q 578 390 594 399 q 556 365 563 382 q 519 328 544 342 q 469 313 494 314 q 479 345 474 324 q 485 390 485 367 q 478 440 485 411 q 461 488 472 468 q 469 525 469 507 q 442 601 469 569 q 347 632 414 632 q 206 594 275 632 q 82 498 136 557 q -6 365 28 439 q -39 215 -39 290 q -25 130 -39 169 q 15 61 -11 90 q 81 16 42 32 q 171 0 121 0 q 332 54 267 0 q 433 196 397 108 l 442 196 q 503 201 471 196 q 565 224 536 207 q 618 272 594 240 q 653 356 642 304 m 346 665 q 390 694 371 663 q 444 751 403 717 q 536 814 486 785 q 557 833 549 821 q 565 860 565 846 q 558 888 565 875 q 538 908 550 900 q 510 922 525 917 q 482 926 496 926 q 452 921 467 926 q 425 904 438 915 q 389 870 413 893 q 343 821 365 847 q 304 769 321 794 q 288 724 288 743 q 305 683 288 700 q 346 665 322 665 z "},"":{"ha":556,"x_min":-39,"x_max":654,"o":"m 261 386 q 268 307 261 349 q 301 246 275 265 q 254 172 283 206 q 188 139 225 139 q 145 160 156 139 q 135 201 135 182 q 147 257 135 228 q 178 313 160 286 q 219 363 197 340 q 263 400 242 386 q 262 395 263 397 q 261 390 261 393 q 261 386 261 388 m 653 356 q 654 364 654 358 q 641 390 654 381 q 610 399 628 399 q 578 390 594 399 q 556 365 563 382 q 519 328 544 342 q 469 313 494 314 q 479 345 474 324 q 485 390 485 367 q 478 440 485 411 q 461 488 472 468 q 469 525 469 507 q 442 601 469 569 q 347 632 414 632 q 206 594 275 632 q 82 498 136 557 q -6 365 28 439 q -39 215 -39 290 q -25 130 -39 169 q 15 61 -11 90 q 81 16 42 32 q 171 0 121 0 q 332 54 267 0 q 433 196 397 108 l 442 196 q 503 201 471 196 q 565 224 536 207 q 618 272 594 240 q 653 356 642 304 m 221 647 q 266 657 243 647 q 307 685 289 667 q 326 707 314 693 q 353 738 339 721 q 363 707 358 721 q 369 685 367 693 q 431 647 383 647 q 461 652 444 647 q 492 665 478 657 q 515 686 506 674 q 525 715 525 699 q 507 758 525 731 q 476 819 488 786 q 457 882 464 853 q 441 927 450 915 q 413 939 432 939 q 378 926 396 938 q 333 879 361 914 q 277 817 311 851 q 193 743 243 783 q 171 719 181 733 q 161 689 161 706 q 181 658 161 668 q 221 647 200 647 z "},"":{"ha":556,"x_min":-39,"x_max":654,"o":"m 261 386 q 268 307 261 349 q 301 246 275 265 q 254 172 283 206 q 188 139 225 139 q 145 160 156 139 q 135 201 135 182 q 147 257 135 228 q 178 313 160 286 q 219 363 197 340 q 263 400 242 386 q 262 395 263 397 q 261 390 261 393 q 261 386 261 388 m 653 356 q 654 364 654 358 q 641 390 654 381 q 610 399 628 399 q 578 390 594 399 q 556 365 563 382 q 519 328 544 342 q 469 313 494 314 q 479 345 474 324 q 485 390 485 367 q 478 440 485 411 q 461 488 472 468 q 469 525 469 507 q 442 601 469 569 q 347 632 414 632 q 206 594 275 632 q 82 498 136 557 q -6 365 28 439 q -39 215 -39 290 q -25 130 -39 169 q 15 61 -11 90 q 81 16 42 32 q 171 0 121 0 q 332 54 267 0 q 433 196 397 108 l 442 196 q 503 201 471 196 q 565 224 536 207 q 618 272 594 240 q 653 356 642 304 m 97 735 q 115 680 97 696 q 154 664 133 664 q 188 676 174 664 q 203 707 203 688 q 211 711 203 711 q 250 703 226 711 q 304 686 274 696 q 368 670 335 678 q 436 663 401 663 q 547 694 504 663 q 589 785 589 726 q 571 842 589 824 q 532 861 553 861 q 498 847 513 861 q 483 807 483 833 q 482 804 482 806 q 475 801 479 801 q 431 810 460 801 q 368 828 403 818 q 303 843 336 836 q 240 850 271 850 q 188 843 214 850 q 142 822 163 836 q 110 787 122 808 q 97 735 97 765 z "},"":{"ha":556,"x_min":-39,"x_max":654,"o":"m 261 386 q 268 307 261 349 q 301 246 275 265 q 254 172 283 206 q 188 139 225 139 q 145 160 156 139 q 135 201 135 182 q 147 257 135 228 q 178 313 160 286 q 219 363 197 340 q 263 400 242 386 q 262 395 263 397 q 261 390 261 393 q 261 386 261 388 m 653 356 q 654 364 654 358 q 641 390 654 381 q 610 399 628 399 q 578 390 594 399 q 556 365 563 382 q 519 328 544 342 q 469 313 494 314 q 479 345 474 324 q 485 390 485 367 q 478 440 485 411 q 461 488 472 468 q 469 525 469 507 q 442 601 469 569 q 347 632 414 632 q 206 594 275 632 q 82 498 136 557 q -6 365 28 439 q -39 215 -39 290 q -25 130 -39 169 q 15 61 -11 90 q 81 16 42 32 q 171 0 121 0 q 332 54 267 0 q 433 196 397 108 l 442 196 q 503 201 471 196 q 565 224 536 207 q 618 272 594 240 q 653 356 642 304 m 442 664 q 474 670 458 664 q 503 688 490 676 q 524 713 515 699 q 532 744 532 728 q 508 793 532 772 q 450 814 485 814 q 397 794 418 814 q 375 740 375 775 q 391 688 375 713 q 442 664 407 664 m 232 664 q 265 670 249 664 q 293 688 281 676 q 314 713 306 699 q 322 744 322 728 q 299 793 322 772 q 240 814 275 814 q 187 794 208 814 q 165 740 165 775 q 181 688 165 713 q 232 664 197 664 z "},"":{"ha":611,"x_min":-25,"x_max":707,"o":"m 265 560 q 239 612 265 592 q 176 632 213 632 q 102 607 139 632 q 46 524 65 582 q 28 471 40 507 q 5 390 17 435 q -16 293 -7 344 q -25 193 -25 242 q -18 119 -25 154 q 5 57 -11 83 q 48 15 21 31 q 115 0 75 0 q 215 28 171 0 q 294 103 258 57 q 342 28 310 57 q 426 0 374 0 q 531 34 485 0 q 613 119 578 68 q 672 232 649 171 q 706 347 696 293 q 707 356 707 350 q 693 385 707 375 q 660 394 679 394 q 633 388 646 394 q 613 365 619 381 q 592 321 607 353 q 559 257 578 289 q 519 200 540 225 q 479 175 497 175 q 462 188 465 175 q 458 211 458 200 q 473 292 458 243 q 506 390 488 342 q 542 477 525 439 q 563 524 558 515 q 572 560 572 542 q 546 612 572 592 q 483 632 519 632 q 409 607 446 632 q 353 524 372 582 q 337 472 347 506 q 313 400 326 439 q 283 322 299 361 q 249 249 267 282 q 214 196 232 217 q 178 175 196 175 q 157 188 163 175 q 151 218 151 201 q 166 295 151 247 q 199 391 181 343 q 235 477 218 439 q 256 524 251 515 q 265 560 265 542 m 146 814 q 237 751 196 785 q 290 694 278 717 q 336 665 310 663 q 376 683 360 665 q 393 724 393 700 q 376 769 393 743 q 338 821 360 794 q 292 870 315 847 q 257 904 269 893 q 230 921 244 915 q 200 926 215 926 q 172 922 186 926 q 144 908 157 917 q 124 888 132 900 q 117 860 117 875 q 125 833 117 846 q 146 814 133 821 z "},"":{"ha":611,"x_min":-25,"x_max":707,"o":"m 265 560 q 239 612 265 592 q 176 632 213 632 q 102 607 139 632 q 46 524 65 582 q 28 471 40 507 q 5 390 17 435 q -16 293 -7 344 q -25 193 -25 242 q -18 119 -25 154 q 5 57 -11 83 q 48 15 21 31 q 115 0 75 0 q 215 28 171 0 q 294 103 258 57 q 342 28 310 57 q 426 0 374 0 q 531 34 485 0 q 613 119 578 68 q 672 232 649 171 q 706 347 696 293 q 707 356 707 350 q 693 385 707 375 q 660 394 679 394 q 633 388 646 394 q 613 365 619 381 q 592 321 607 353 q 559 257 578 289 q 519 200 540 225 q 479 175 497 175 q 462 188 465 175 q 458 211 458 200 q 473 292 458 243 q 506 390 488 342 q 542 477 525 439 q 563 524 558 515 q 572 560 572 542 q 546 612 572 592 q 483 632 519 632 q 409 607 446 632 q 353 524 372 582 q 337 472 347 506 q 313 400 326 439 q 283 322 299 361 q 249 249 267 282 q 214 196 232 217 q 178 175 196 175 q 157 188 163 175 q 151 218 151 201 q 166 295 151 247 q 199 391 181 343 q 235 477 218 439 q 256 524 251 515 q 265 560 265 542 m 338 665 q 382 694 363 663 q 436 751 394 717 q 528 814 478 785 q 549 833 540 821 q 557 860 557 846 q 549 888 557 875 q 529 908 542 900 q 502 922 517 917 q 474 926 488 926 q 444 921 458 926 q 417 904 429 915 q 381 870 404 893 q 335 821 357 847 q 296 769 313 794 q 279 724 279 743 q 297 683 279 700 q 338 665 314 665 z "},"":{"ha":611,"x_min":-25,"x_max":707,"o":"m 265 560 q 239 612 265 592 q 176 632 213 632 q 102 607 139 632 q 46 524 65 582 q 28 471 40 507 q 5 390 17 435 q -16 293 -7 344 q -25 193 -25 242 q -18 119 -25 154 q 5 57 -11 83 q 48 15 21 31 q 115 0 75 0 q 215 28 171 0 q 294 103 258 57 q 342 28 310 57 q 426 0 374 0 q 531 34 485 0 q 613 119 578 68 q 672 232 649 171 q 706 347 696 293 q 707 356 707 350 q 693 385 707 375 q 660 394 679 394 q 633 388 646 394 q 613 365 619 381 q 592 321 607 353 q 559 257 578 289 q 519 200 540 225 q 479 175 497 175 q 462 188 465 175 q 458 211 458 200 q 473 292 458 243 q 506 390 488 342 q 542 477 525 439 q 563 524 558 515 q 572 560 572 542 q 546 612 572 592 q 483 632 519 632 q 409 607 446 632 q 353 524 372 582 q 337 472 347 506 q 313 400 326 439 q 283 322 299 361 q 249 249 267 282 q 214 196 232 217 q 178 175 196 175 q 157 188 163 175 q 151 218 151 201 q 166 295 151 247 q 199 391 181 343 q 235 477 218 439 q 256 524 251 515 q 265 560 265 542 m 213 647 q 258 657 235 647 q 299 685 281 667 q 318 707 306 693 q 344 738 331 721 q 354 707 350 721 q 361 685 358 693 q 422 647 375 647 q 453 652 436 647 q 483 665 469 657 q 507 686 497 674 q 517 715 517 699 q 499 758 517 731 q 467 819 479 786 q 449 882 456 853 q 433 927 442 915 q 404 939 424 939 q 370 926 388 938 q 325 879 353 914 q 269 817 303 851 q 185 743 235 783 q 163 719 172 733 q 153 689 153 706 q 172 658 153 668 q 213 647 192 647 z "},"":{"ha":611,"x_min":-25,"x_max":707,"o":"m 265 560 q 239 612 265 592 q 176 632 213 632 q 102 607 139 632 q 46 524 65 582 q 28 471 40 507 q 5 390 17 435 q -16 293 -7 344 q -25 193 -25 242 q -18 119 -25 154 q 5 57 -11 83 q 48 15 21 31 q 115 0 75 0 q 215 28 171 0 q 294 103 258 57 q 342 28 310 57 q 426 0 374 0 q 531 34 485 0 q 613 119 578 68 q 672 232 649 171 q 706 347 696 293 q 707 356 707 350 q 693 385 707 375 q 660 394 679 394 q 633 388 646 394 q 613 365 619 381 q 592 321 607 353 q 559 257 578 289 q 519 200 540 225 q 479 175 497 175 q 462 188 465 175 q 458 211 458 200 q 473 292 458 243 q 506 390 488 342 q 542 477 525 439 q 563 524 558 515 q 572 560 572 542 q 546 612 572 592 q 483 632 519 632 q 409 607 446 632 q 353 524 372 582 q 337 472 347 506 q 313 400 326 439 q 283 322 299 361 q 249 249 267 282 q 214 196 232 217 q 178 175 196 175 q 157 188 163 175 q 151 218 151 201 q 166 295 151 247 q 199 391 181 343 q 235 477 218 439 q 256 524 251 515 q 265 560 265 542 m 433 664 q 466 670 450 664 q 494 688 482 676 q 515 713 507 699 q 524 744 524 728 q 500 793 524 772 q 442 814 476 814 q 388 794 410 814 q 367 740 367 775 q 383 688 367 713 q 433 664 399 664 m 224 664 q 256 670 240 664 q 285 688 272 676 q 306 713 297 699 q 314 744 314 728 q 290 793 314 772 q 232 814 267 814 q 178 794 200 814 q 157 740 157 775 q 173 688 157 713 q 224 664 189 664 z "},"":{"ha":646,"x_min":-53,"x_max":742,"o":"m 149 -281 q 131 -277 142 -281 q 109 -265 119 -274 q 91 -245 99 -257 q 83 -217 83 -233 q 95 -183 83 -197 q 128 -159 107 -169 q 178 -140 149 -149 q 242 -122 207 -131 q 198 -237 221 -193 q 149 -281 175 -281 m 271 1 q 153 -35 211 -18 q 49 -78 94 -53 q -25 -141 3 -103 q -53 -243 -53 -179 q -40 -322 -53 -283 q -2 -389 -28 -360 q 64 -436 24 -418 q 158 -454 104 -454 q 228 -442 196 -454 q 290 -399 260 -431 q 347 -312 319 -368 q 404 -167 375 -256 q 419 -116 411 -143 q 436 -57 428 -89 q 531 -1 485 -35 q 618 81 578 32 q 690 194 658 129 q 740 347 722 260 q 742 356 742 350 q 727 385 742 375 q 694 394 713 394 q 667 388 681 394 q 647 365 654 381 q 581 229 618 294 q 482 111 543 164 q 514 238 499 174 q 540 358 529 301 q 558 459 551 414 q 565 531 565 504 q 534 604 565 578 q 457 631 503 631 q 393 612 421 631 q 357 551 365 593 q 343 497 353 532 q 320 419 333 461 q 290 334 307 378 q 253 255 272 290 q 215 197 235 219 q 178 175 196 175 q 157 188 163 175 q 151 218 151 201 q 166 295 151 247 q 199 391 181 343 q 235 477 218 439 q 256 524 251 515 q 265 560 265 542 q 239 612 265 592 q 176 632 213 632 q 102 607 139 632 q 46 524 65 582 q 28 471 40 507 q 5 390 17 435 q -16 293 -7 344 q -25 193 -25 242 q -18 119 -25 154 q 5 57 -11 83 q 48 15 21 31 q 115 0 75 0 q 211 26 168 0 q 289 96 254 53 q 281 48 285 71 q 271 1 276 25 m 329 665 q 374 694 354 663 q 428 751 386 717 q 519 814 469 785 q 540 833 532 821 q 549 860 549 846 q 541 888 549 875 q 521 908 533 900 q 494 922 508 917 q 465 926 479 926 q 435 921 450 926 q 408 904 421 915 q 372 870 396 893 q 326 821 349 847 q 288 769 304 794 q 271 724 271 743 q 288 683 271 700 q 329 665 306 665 z "},"":{"ha":646,"x_min":-53,"x_max":742,"o":"m 149 -281 q 131 -277 142 -281 q 109 -265 119 -274 q 91 -245 99 -257 q 83 -217 83 -233 q 95 -183 83 -197 q 128 -159 107 -169 q 178 -140 149 -149 q 242 -122 207 -131 q 198 -237 221 -193 q 149 -281 175 -281 m 271 1 q 153 -35 211 -18 q 49 -78 94 -53 q -25 -141 3 -103 q -53 -243 -53 -179 q -40 -322 -53 -283 q -2 -389 -28 -360 q 64 -436 24 -418 q 158 -454 104 -454 q 228 -442 196 -454 q 290 -399 260 -431 q 347 -312 319 -368 q 404 -167 375 -256 q 419 -116 411 -143 q 436 -57 428 -89 q 531 -1 485 -35 q 618 81 578 32 q 690 194 658 129 q 740 347 722 260 q 742 356 742 350 q 727 385 742 375 q 694 394 713 394 q 667 388 681 394 q 647 365 654 381 q 581 229 618 294 q 482 111 543 164 q 514 238 499 174 q 540 358 529 301 q 558 459 551 414 q 565 531 565 504 q 534 604 565 578 q 457 631 503 631 q 393 612 421 631 q 357 551 365 593 q 343 497 353 532 q 320 419 333 461 q 290 334 307 378 q 253 255 272 290 q 215 197 235 219 q 178 175 196 175 q 157 188 163 175 q 151 218 151 201 q 166 295 151 247 q 199 391 181 343 q 235 477 218 439 q 256 524 251 515 q 265 560 265 542 q 239 612 265 592 q 176 632 213 632 q 102 607 139 632 q 46 524 65 582 q 28 471 40 507 q 5 390 17 435 q -16 293 -7 344 q -25 193 -25 242 q -18 119 -25 154 q 5 57 -11 83 q 48 15 21 31 q 115 0 75 0 q 211 26 168 0 q 289 96 254 53 q 281 48 285 71 q 271 1 276 25 m 425 664 q 458 670 442 664 q 486 688 474 676 q 507 713 499 699 q 515 744 515 728 q 492 793 515 772 q 433 814 468 814 q 380 794 401 814 q 358 740 358 775 q 374 688 358 713 q 425 664 390 664 m 215 664 q 248 670 232 664 q 276 688 264 676 q 297 713 289 699 q 306 744 306 728 q 282 793 306 772 q 224 814 258 814 q 170 794 192 814 q 149 740 149 775 q 165 688 149 713 q 215 664 181 664 z "},"":{"ha":507,"x_min":-22,"x_max":601,"o":"m 321 0 q 426 34 379 0 q 508 119 472 68 q 567 232 543 171 q 600 347 590 293 q 601 356 601 350 q 588 385 601 375 q 554 394 574 394 q 527 388 540 394 q 507 365 514 381 q 487 321 501 353 q 453 257 472 289 q 413 200 435 225 q 374 175 392 175 q 356 188 360 175 q 353 211 353 200 q 367 292 353 243 q 401 390 382 342 q 436 477 419 439 q 457 524 453 515 q 467 560 467 542 q 440 612 467 592 q 378 632 414 632 q 331 623 354 632 q 289 594 308 614 q 261 604 272 594 q 244 626 250 614 q 234 649 238 638 q 231 664 231 660 q 194 732 219 714 q 140 750 169 750 q 91 738 113 750 q 54 708 69 726 q 31 667 39 689 q 22 622 22 644 q 30 585 22 603 q 54 558 38 567 q 43 510 51 542 q 24 444 35 478 q 4 381 14 411 q -11 339 -6 351 q -22 294 -22 317 q -12 258 -22 271 q 17 244 -1 244 q 56 264 38 244 q 86 317 75 283 q 104 372 94 343 q 122 429 114 401 q 138 481 131 457 q 149 522 144 506 q 185 506 160 515 q 238 493 210 496 q 219 433 229 468 q 199 359 208 399 q 183 276 190 319 q 176 193 176 233 q 185 119 176 154 q 210 57 193 83 q 256 15 228 31 q 321 0 283 0 m 331 772 q 375 801 356 769 q 429 858 388 824 q 521 921 471 892 q 542 940 533 928 q 550 967 550 953 q 542 994 550 982 q 522 1015 535 1007 q 495 1028 510 1024 q 467 1033 481 1033 q 437 1028 451 1033 q 410 1011 422 1022 q 374 977 397 1000 q 328 928 350 954 q 289 876 306 901 q 272 831 272 850 q 290 790 272 807 q 331 772 307 772 z "},"":{"ha":317,"x_min":-17,"x_max":549,"o":"m -17 215 q -8 128 -17 168 q 18 60 0 89 q 64 16 36 32 q 131 0 92 0 q 235 34 189 0 q 317 119 282 68 q 376 232 353 171 q 410 347 399 293 q 410 351 410 350 q 411 356 411 353 q 397 385 411 375 q 364 394 382 394 q 337 388 350 394 q 317 365 324 381 q 297 321 311 353 q 263 257 282 289 q 222 200 243 225 q 182 175 201 175 q 163 190 167 175 q 160 218 160 206 q 175 314 160 254 q 213 444 190 374 q 265 590 236 515 q 320 731 293 665 q 369 844 347 796 q 403 911 392 893 q 417 956 417 935 q 390 1006 417 988 q 326 1025 363 1025 q 254 1003 290 1025 q 194 933 218 982 q 164 865 183 910 q 121 760 144 819 q 73 631 97 701 q 28 490 49 561 q -4 347 8 418 q -17 215 -17 276 m 329 1063 q 374 1092 354 1060 q 428 1148 386 1114 q 519 1211 469 1182 q 540 1231 532 1218 q 549 1257 549 1243 q 541 1285 549 1272 q 521 1306 533 1297 q 494 1319 508 1314 q 465 1324 479 1324 q 435 1318 450 1324 q 408 1301 421 1313 q 372 1267 396 1290 q 326 1218 349 1244 q 288 1166 304 1192 q 271 1121 271 1140 q 288 1080 271 1097 q 329 1063 306 1063 z "},"":{"ha":536,"x_min":-29,"x_max":629,"o":"m -29 218 q -16 134 -29 174 q 26 65 -3 94 q 98 17 54 35 q 201 0 142 0 q 348 27 276 0 q 477 101 419 54 q 575 212 535 149 q 629 347 615 275 q 582 394 629 394 q 555 388 567 394 q 536 365 543 381 q 485 279 515 315 q 419 220 454 243 q 349 186 385 197 q 279 175 313 175 q 207 194 236 175 q 178 258 178 213 q 192 327 178 289 q 242 413 207 365 q 284 347 257 367 q 342 326 311 326 q 418 365 386 326 q 450 472 450 404 q 441 534 450 506 q 414 585 432 563 q 368 619 396 607 q 304 632 340 632 q 178 593 239 632 q 72 494 118 554 q -1 360 26 433 q -29 218 -29 286 m 311 665 q 356 694 336 663 q 410 751 368 717 q 501 814 451 785 q 522 833 514 821 q 531 860 531 846 q 523 888 531 875 q 503 908 515 900 q 476 922 490 917 q 447 926 461 926 q 417 921 432 926 q 390 904 403 915 q 354 870 378 893 q 308 821 331 847 q 269 769 286 794 q 253 724 253 743 q 270 683 253 700 q 311 665 288 665 z "},"":{"ha":536,"x_min":-29,"x_max":629,"o":"m -29 218 q -16 134 -29 174 q 26 65 -3 94 q 98 17 54 35 q 201 0 142 0 q 348 27 276 0 q 477 101 419 54 q 575 212 535 149 q 629 347 615 275 q 582 394 629 394 q 555 388 567 394 q 536 365 543 381 q 485 279 515 315 q 419 220 454 243 q 349 186 385 197 q 279 175 313 175 q 207 194 236 175 q 178 258 178 213 q 192 327 178 289 q 242 413 207 365 q 284 347 257 367 q 342 326 311 326 q 418 365 386 326 q 450 472 450 404 q 441 534 450 506 q 414 585 432 563 q 368 619 396 607 q 304 632 340 632 q 178 593 239 632 q 72 494 118 554 q -1 360 26 433 q -29 218 -29 286 m 197 888 q 214 844 197 871 q 246 783 233 817 q 264 721 258 750 q 281 675 271 686 q 308 664 290 664 q 344 677 326 665 q 389 724 361 689 q 445 785 411 751 q 529 860 479 819 q 551 883 542 869 q 561 914 561 897 q 542 945 561 935 q 500 956 522 956 q 415 918 453 956 q 395 895 407 908 q 368 865 383 882 q 360 895 364 882 q 353 918 356 908 q 329 946 346 936 q 290 956 313 956 q 260 951 276 956 q 229 938 243 946 q 206 917 215 929 q 197 888 197 904 z "},"":{"ha":493,"x_min":-35,"x_max":586,"o":"m 233 396 q 249 420 238 404 q 272 452 260 436 q 297 481 285 468 q 315 493 308 493 q 288 434 315 458 q 233 396 261 410 m -35 210 q -22 128 -35 167 q 17 61 -8 89 q 83 17 43 33 q 176 0 122 0 q 314 28 246 0 q 438 103 382 56 q 534 213 494 150 q 586 346 574 276 q 538 394 586 394 q 511 388 524 394 q 493 365 499 381 q 454 294 479 329 q 398 233 429 260 q 331 189 367 206 q 258 172 294 172 q 230 175 244 172 q 203 185 215 178 q 182 206 190 193 q 174 240 174 219 q 186 294 174 264 q 277 318 235 294 q 352 378 319 342 q 403 456 385 414 q 422 536 422 499 q 397 604 422 576 q 314 632 372 632 q 181 592 244 632 q 70 489 118 551 q -6 352 22 426 q -35 210 -35 278 m 203 888 q 219 844 203 871 q 251 783 239 817 q 269 721 264 750 q 286 675 276 686 q 314 664 296 664 q 349 677 332 665 q 394 724 367 689 q 451 785 417 751 q 535 860 485 819 q 557 883 547 869 q 567 914 567 897 q 547 945 567 935 q 506 956 528 956 q 421 918 458 956 q 401 895 413 908 q 374 865 389 882 q 365 895 369 882 q 358 918 361 908 q 335 946 351 936 q 296 956 318 956 q 265 951 282 956 q 235 938 249 946 q 212 917 221 929 q 203 888 203 904 z "},"":{"ha":665,"x_min":-44,"x_max":761,"o":"m 269 569 q 245 616 269 600 q 185 632 221 632 q 143 626 164 632 q 103 610 122 621 q 70 581 85 599 q 49 539 56 564 q 14 415 31 482 q -16 286 -3 349 q -37 172 -29 224 q -44 96 -44 121 q -15 21 -44 43 q 49 -1 15 -1 q 81 8 68 -1 q 94 50 93 18 q 139 135 113 82 q 199 246 165 188 q 247 324 222 286 q 294 392 272 363 q 335 440 317 422 q 361 458 353 458 q 368 450 368 458 q 358 403 368 440 q 336 321 349 367 q 314 228 324 275 q 304 147 304 181 q 311 97 304 122 q 334 49 318 71 q 376 14 350 28 q 440 0 403 0 q 552 34 499 0 q 649 119 606 68 q 721 232 692 171 q 760 347 750 293 q 761 356 761 350 q 747 385 761 375 q 714 394 732 394 q 687 388 700 394 q 667 365 674 381 q 647 321 661 353 q 613 256 632 289 q 574 199 594 224 q 536 174 553 174 q 518 187 522 174 q 514 213 514 200 q 524 275 514 238 q 548 354 535 313 q 572 438 561 396 q 582 513 582 479 q 547 601 582 571 q 456 632 513 632 q 356 608 404 632 q 263 539 307 583 q 268 555 267 547 q 269 569 269 563 m 275 888 q 292 844 275 871 q 324 783 311 817 q 342 721 336 750 q 358 675 349 686 q 386 664 368 664 q 422 677 404 665 q 467 724 439 689 q 523 785 489 751 q 607 860 557 819 q 629 883 619 869 q 639 914 639 897 q 619 945 639 935 q 578 956 600 956 q 493 918 531 956 q 473 895 485 908 q 446 865 461 882 q 438 895 442 882 q 431 918 433 908 q 407 946 424 936 q 368 956 390 956 q 338 951 354 956 q 307 938 321 946 q 284 917 293 929 q 275 888 275 904 z "},"":{"ha":556,"x_min":-39,"x_max":654,"o":"m 261 386 q 268 307 261 349 q 301 246 275 265 q 254 172 283 206 q 188 139 225 139 q 145 160 156 139 q 135 201 135 182 q 147 257 135 228 q 178 313 160 286 q 219 363 197 340 q 263 400 242 386 q 262 395 263 397 q 261 390 261 393 q 261 386 261 388 m 653 356 q 654 364 654 358 q 641 390 654 381 q 610 399 628 399 q 578 390 594 399 q 556 365 563 382 q 519 328 544 342 q 469 313 494 314 q 479 345 474 324 q 485 390 485 367 q 478 440 485 411 q 461 488 472 468 q 469 525 469 507 q 442 601 469 569 q 347 632 414 632 q 206 594 275 632 q 82 498 136 557 q -6 365 28 439 q -39 215 -39 290 q -25 130 -39 169 q 15 61 -11 90 q 81 16 42 32 q 171 0 121 0 q 332 54 267 0 q 433 196 397 108 l 442 196 q 503 201 471 196 q 565 224 536 207 q 618 272 594 240 q 653 356 642 304 m 294 707 q 333 774 301 731 q 404 860 364 818 q 422 900 422 878 q 397 943 422 929 q 347 957 372 957 q 274 918 300 957 q 251 881 265 906 q 222 827 236 856 q 197 770 207 799 q 186 721 186 742 q 204 681 186 697 q 246 665 222 665 q 277 676 265 665 q 294 707 289 688 m 503 707 q 541 774 510 731 q 613 860 572 818 q 631 900 631 878 q 606 943 631 929 q 556 957 581 957 q 482 918 508 957 q 459 881 474 906 q 430 827 444 856 q 405 770 415 799 q 394 721 394 742 q 413 681 394 697 q 454 665 431 665 q 485 676 474 665 q 503 707 497 688 z "},"":{"ha":507,"x_min":-22,"x_max":601,"o":"m 321 0 q 426 34 379 0 q 508 119 472 68 q 567 232 543 171 q 600 347 590 293 q 601 356 601 350 q 588 385 601 375 q 554 394 574 394 q 527 388 540 394 q 507 365 514 381 q 487 321 501 353 q 453 257 472 289 q 413 200 435 225 q 374 175 392 175 q 356 188 360 175 q 353 211 353 200 q 367 292 353 243 q 401 390 382 342 q 436 477 419 439 q 457 524 453 515 q 467 560 467 542 q 440 612 467 592 q 378 632 414 632 q 331 623 354 632 q 289 594 308 614 q 261 604 272 594 q 244 626 250 614 q 234 649 238 638 q 231 664 231 660 q 194 732 219 714 q 140 750 169 750 q 91 738 113 750 q 54 708 69 726 q 31 667 39 689 q 22 622 22 644 q 30 585 22 603 q 54 558 38 567 q 43 510 51 542 q 24 444 35 478 q 4 381 14 411 q -11 339 -6 351 q -22 294 -22 317 q -12 258 -22 271 q 17 244 -1 244 q 56 264 38 244 q 86 317 75 283 q 104 372 94 343 q 122 429 114 401 q 138 481 131 457 q 149 522 144 506 q 185 506 160 515 q 238 493 210 496 q 219 433 229 468 q 199 359 208 399 q 183 276 190 319 q 176 193 176 233 q 185 119 176 154 q 210 57 193 83 q 256 15 228 31 q 321 0 283 0 m 217 994 q 233 951 217 978 q 265 890 253 924 q 283 828 278 857 q 300 782 290 793 q 328 771 310 771 q 363 784 346 772 q 408 831 381 796 q 465 892 431 858 q 549 967 499 926 q 571 990 561 976 q 581 1021 581 1004 q 561 1052 581 1042 q 519 1063 542 1063 q 435 1025 472 1063 q 415 1002 426 1015 q 388 972 403 989 q 379 1002 383 989 q 372 1025 375 1015 q 349 1053 365 1043 q 310 1063 332 1063 q 279 1058 296 1063 q 249 1044 263 1053 q 226 1024 235 1036 q 217 994 217 1011 z "},"":{"ha":611,"x_min":-25,"x_max":707,"o":"m 265 560 q 239 612 265 592 q 176 632 213 632 q 102 607 139 632 q 46 524 65 582 q 28 471 40 507 q 5 390 17 435 q -16 293 -7 344 q -25 193 -25 242 q -18 119 -25 154 q 5 57 -11 83 q 48 15 21 31 q 115 0 75 0 q 215 28 171 0 q 294 103 258 57 q 342 28 310 57 q 426 0 374 0 q 531 34 485 0 q 613 119 578 68 q 672 232 649 171 q 706 347 696 293 q 707 356 707 350 q 693 385 707 375 q 660 394 679 394 q 633 388 646 394 q 613 365 619 381 q 592 321 607 353 q 559 257 578 289 q 519 200 540 225 q 479 175 497 175 q 462 188 465 175 q 458 211 458 200 q 473 292 458 243 q 506 390 488 342 q 542 477 525 439 q 563 524 558 515 q 572 560 572 542 q 546 612 572 592 q 483 632 519 632 q 409 607 446 632 q 353 524 372 582 q 337 472 347 506 q 313 400 326 439 q 283 322 299 361 q 249 249 267 282 q 214 196 232 217 q 178 175 196 175 q 157 188 163 175 q 151 218 151 201 q 166 295 151 247 q 199 391 181 343 q 235 477 218 439 q 256 524 251 515 q 265 560 265 542 m 288 707 q 326 774 294 731 q 397 860 357 818 q 414 900 414 879 q 389 943 414 929 q 339 957 364 957 q 297 947 317 957 q 267 918 278 938 q 243 881 258 906 q 214 827 228 856 q 190 770 200 799 q 179 721 179 742 q 197 681 179 697 q 238 665 215 665 q 269 676 257 665 q 288 707 282 688 m 496 707 q 534 774 503 731 q 606 860 565 818 q 622 900 622 879 q 597 943 622 929 q 547 957 572 957 q 506 947 525 957 q 475 918 486 938 q 451 881 467 906 q 422 827 436 856 q 398 770 408 799 q 388 721 388 742 q 406 681 388 697 q 446 665 424 665 q 478 676 465 665 q 496 707 490 688 z "},"":{"ha":665,"x_min":-44,"x_max":761,"o":"m 269 569 q 245 616 269 600 q 185 632 221 632 q 143 626 164 632 q 103 610 122 621 q 70 581 85 599 q 49 539 56 564 q 14 415 31 482 q -16 286 -3 349 q -37 172 -29 224 q -44 96 -44 121 q -15 21 -44 43 q 49 -1 15 -1 q 81 8 68 -1 q 94 50 93 18 q 139 135 113 82 q 199 246 165 188 q 247 324 222 286 q 294 392 272 363 q 335 440 317 422 q 361 458 353 458 q 368 450 368 458 q 358 403 368 440 q 336 321 349 367 q 314 228 324 275 q 304 147 304 181 q 311 97 304 122 q 334 49 318 71 q 376 14 350 28 q 440 0 403 0 q 552 34 499 0 q 649 119 606 68 q 721 232 692 171 q 760 347 750 293 q 761 356 761 350 q 747 385 761 375 q 714 394 732 394 q 687 388 700 394 q 667 365 674 381 q 647 321 661 353 q 613 256 632 289 q 574 199 594 224 q 536 174 553 174 q 518 187 522 174 q 514 213 514 200 q 524 275 514 238 q 548 354 535 313 q 572 438 561 396 q 582 513 582 479 q 547 601 582 571 q 456 632 513 632 q 356 608 404 632 q 263 539 307 583 q 268 555 267 547 q 269 569 269 563 m 388 665 q 432 694 413 663 q 486 751 444 717 q 578 814 528 785 q 599 833 590 821 q 607 860 607 846 q 599 888 607 875 q 579 908 592 900 q 552 922 567 917 q 524 926 538 926 q 494 921 508 926 q 467 904 479 915 q 431 870 454 893 q 385 821 407 847 q 346 769 363 794 q 329 724 329 743 q 347 683 329 700 q 388 665 364 665 z "},"":{"ha":726,"x_min":-6,"x_max":821,"o":"m 413 204 q 481 268 438 228 q 569 354 525 308 q 644 447 613 400 q 676 533 676 494 q 656 592 676 565 q 603 618 635 618 q 559 610 583 618 q 494 603 535 603 q 376 616 440 603 q 254 629 313 629 q 151 612 199 629 q 68 565 103 594 q 14 494 33 535 q -6 404 -6 453 q 4 345 -6 369 q 29 305 14 321 q 63 281 44 289 q 99 274 81 274 q 169 303 136 274 q 203 386 203 333 q 214 434 203 414 q 244 467 225 454 q 285 487 263 481 q 333 493 308 493 q 410 478 375 493 q 360 431 393 461 q 285 363 326 400 q 201 283 244 325 q 122 201 157 240 q 63 130 86 163 q 40 78 40 97 q 62 21 40 40 q 118 1 83 1 q 155 10 139 1 q 182 28 171 18 q 201 46 193 38 q 214 54 208 54 q 260 46 225 54 q 342 27 296 38 q 435 8 388 17 q 517 0 482 0 q 635 34 583 0 q 724 119 686 68 q 785 232 761 171 q 819 347 808 293 q 820 351 819 350 q 821 356 821 353 q 806 385 821 375 q 774 394 792 394 q 747 388 760 394 q 726 365 733 381 q 705 321 721 353 q 663 257 689 289 q 602 200 638 225 q 522 175 567 175 q 485 179 514 175 q 413 204 456 183 m 369 664 q 431 688 403 664 q 460 744 460 711 q 437 793 460 772 q 379 814 414 814 q 324 794 346 814 q 303 740 303 775 q 319 688 303 713 q 369 664 335 664 z "},"":{"ha":563,"x_min":-35,"x_max":593,"o":"m -35 219 q -12 123 -35 164 q 49 55 11 82 q 135 14 86 28 q 233 0 183 0 q 331 13 283 0 q 417 49 379 25 q 478 107 454 72 q 501 186 501 142 q 464 292 501 246 q 381 371 426 338 q 299 425 336 404 q 261 454 261 446 q 284 467 261 461 q 325 474 307 474 q 343 468 343 474 q 385 396 354 419 q 451 372 415 372 q 522 400 490 372 q 554 483 554 428 q 535 553 554 525 q 484 599 515 581 q 415 624 453 617 q 340 632 378 632 q 251 622 296 632 q 171 589 207 611 q 113 532 135 567 q 90 450 90 497 q 105 384 90 411 q 142 338 119 357 q 191 306 165 319 q 240 281 217 293 q 277 255 263 268 q 292 224 292 242 q 271 188 292 201 q 221 174 250 174 q 179 182 200 174 q 142 208 158 190 q 115 251 125 225 q 104 313 104 278 q 88 376 104 358 q 50 394 71 394 q 7 374 24 394 q -19 326 -10 354 q -31 269 -28 299 q -35 219 -35 239 m 229 888 q 246 844 229 871 q 278 783 265 817 q 296 721 290 750 q 313 675 303 686 q 340 664 322 664 q 376 677 358 665 q 421 724 393 689 q 477 785 443 751 q 561 860 511 819 q 583 883 574 869 q 593 914 593 897 q 574 945 593 935 q 532 956 554 956 q 447 918 485 956 q 427 895 439 908 q 400 865 415 882 q 392 895 396 882 q 385 918 388 908 q 361 946 378 936 q 322 956 344 956 q 292 951 308 956 q 261 938 275 946 q 238 917 247 929 q 229 888 229 904 z "},"":{"ha":563,"x_min":-35,"x_max":563,"o":"m -35 219 q -12 123 -35 164 q 49 55 11 82 q 135 14 86 28 q 233 0 183 0 q 331 13 283 0 q 417 49 379 25 q 478 107 454 72 q 501 186 501 142 q 464 292 501 246 q 381 371 426 338 q 299 425 336 404 q 261 454 261 446 q 284 467 261 461 q 325 474 307 474 q 343 468 343 474 q 385 396 354 419 q 451 372 415 372 q 522 400 490 372 q 554 483 554 428 q 535 553 554 525 q 484 599 515 581 q 415 624 453 617 q 340 632 378 632 q 251 622 296 632 q 171 589 207 611 q 113 532 135 567 q 90 450 90 497 q 105 384 90 411 q 142 338 119 357 q 191 306 165 319 q 240 281 217 293 q 277 255 263 268 q 292 224 292 242 q 271 188 292 201 q 221 174 250 174 q 179 182 200 174 q 142 208 158 190 q 115 251 125 225 q 104 313 104 278 q 88 376 104 358 q 50 394 71 394 q 7 374 24 394 q -19 326 -10 354 q -31 269 -28 299 q -35 219 -35 239 m 343 665 q 388 694 368 663 q 442 751 400 717 q 533 814 483 785 q 554 833 546 821 q 563 860 563 846 q 555 888 563 875 q 535 908 547 900 q 508 922 522 917 q 479 926 493 926 q 449 921 464 926 q 422 904 435 915 q 386 870 410 893 q 340 821 363 847 q 301 769 318 794 q 285 724 285 743 q 302 683 285 700 q 343 665 319 665 z "},"":{"ha":726,"x_min":-6,"x_max":821,"o":"m 413 204 q 481 268 438 228 q 569 354 525 308 q 644 447 613 400 q 676 533 676 494 q 656 592 676 565 q 603 618 635 618 q 559 610 583 618 q 494 603 535 603 q 376 616 440 603 q 254 629 313 629 q 151 612 199 629 q 68 565 103 594 q 14 494 33 535 q -6 404 -6 453 q 4 345 -6 369 q 29 305 14 321 q 63 281 44 289 q 99 274 81 274 q 169 303 136 274 q 203 386 203 333 q 214 434 203 414 q 244 467 225 454 q 285 487 263 481 q 333 493 308 493 q 410 478 375 493 q 360 431 393 461 q 285 363 326 400 q 201 283 244 325 q 122 201 157 240 q 63 130 86 163 q 40 78 40 97 q 62 21 40 40 q 118 1 83 1 q 155 10 139 1 q 182 28 171 18 q 201 46 193 38 q 214 54 208 54 q 260 46 225 54 q 342 27 296 38 q 435 8 388 17 q 517 0 482 0 q 635 34 583 0 q 724 119 686 68 q 785 232 761 171 q 819 347 808 293 q 820 351 819 350 q 821 356 821 353 q 806 385 821 375 q 774 394 792 394 q 747 388 760 394 q 726 365 733 381 q 705 321 721 353 q 663 257 689 289 q 602 200 638 225 q 522 175 567 175 q 485 179 514 175 q 413 204 456 183 m 260 901 q 276 858 260 885 q 308 797 296 831 q 326 735 321 764 q 343 689 333 700 q 371 678 353 678 q 406 691 389 679 q 451 738 424 703 q 508 799 474 765 q 592 874 542 833 q 614 897 604 883 q 624 928 624 911 q 604 959 624 949 q 563 969 585 969 q 478 932 515 969 q 458 909 469 922 q 431 879 446 896 q 422 909 426 896 q 415 932 418 922 q 392 960 408 950 q 353 969 375 969 q 322 965 339 969 q 292 951 306 960 q 269 931 278 943 q 260 901 260 918 z "},"":{"ha":726,"x_min":-6,"x_max":821,"o":"m 413 204 q 481 268 438 228 q 569 354 525 308 q 644 447 613 400 q 676 533 676 494 q 656 592 676 565 q 603 618 635 618 q 559 610 583 618 q 494 603 535 603 q 376 616 440 603 q 254 629 313 629 q 151 612 199 629 q 68 565 103 594 q 14 494 33 535 q -6 404 -6 453 q 4 345 -6 369 q 29 305 14 321 q 63 281 44 289 q 99 274 81 274 q 169 303 136 274 q 203 386 203 333 q 214 434 203 414 q 244 467 225 454 q 285 487 263 481 q 333 493 308 493 q 410 478 375 493 q 360 431 393 461 q 285 363 326 400 q 201 283 244 325 q 122 201 157 240 q 63 130 86 163 q 40 78 40 97 q 62 21 40 40 q 118 1 83 1 q 155 10 139 1 q 182 28 171 18 q 201 46 193 38 q 214 54 208 54 q 260 46 225 54 q 342 27 296 38 q 435 8 388 17 q 517 0 482 0 q 635 34 583 0 q 724 119 686 68 q 785 232 761 171 q 819 347 808 293 q 820 351 819 350 q 821 356 821 353 q 806 385 821 375 q 774 394 792 394 q 747 388 760 394 q 726 365 733 381 q 705 321 721 353 q 663 257 689 289 q 602 200 638 225 q 522 175 567 175 q 485 179 514 175 q 413 204 456 183 m 374 679 q 418 708 399 676 q 472 765 431 731 q 564 828 514 799 q 585 847 576 835 q 593 874 593 860 q 585 901 593 889 q 565 922 578 914 q 538 935 553 931 q 510 940 524 940 q 480 935 494 940 q 453 918 465 929 q 417 884 440 907 q 371 835 393 861 q 332 783 349 808 q 315 738 315 757 q 333 697 315 714 q 374 679 350 679 z "},"":{"ha":1160,"x_min":53,"x_max":1160,"o":"m 268 381 q 286 382 278 381 q 301 386 294 383 q 270 247 282 311 q 258 138 258 182 q 268 68 258 94 q 293 26 278 42 q 326 6 308 11 q 357 0 343 0 q 408 17 385 0 q 432 69 432 33 q 438 122 432 88 q 456 201 444 156 q 485 303 468 247 q 522 418 501 358 q 635 406 579 413 q 747 393 690 400 q 739 292 739 342 q 751 182 739 235 q 790 89 764 129 q 860 24 817 49 q 963 0 903 0 q 1024 23 1004 0 q 1044 72 1044 46 q 1027 119 1044 99 q 974 139 1010 139 q 960 146 965 139 q 951 163 954 153 q 948 185 949 174 q 947 204 947 196 q 958 283 947 239 q 989 381 969 328 q 1042 388 1014 382 q 1092 405 1069 393 q 1130 437 1115 417 q 1144 486 1144 457 q 1118 535 1144 515 q 1057 556 1092 556 q 1128 754 1096 656 q 1160 935 1160 853 q 1049 1158 1160 1076 q 728 1240 938 1240 q 568 1228 649 1240 q 412 1190 488 1215 q 271 1128 336 1165 q 157 1042 206 1090 q 81 933 108 993 q 53 800 53 872 q 64 720 53 754 q 94 663 75 686 q 137 629 113 640 q 188 618 161 618 q 238 628 213 618 q 284 660 264 639 q 317 711 304 681 q 329 781 329 742 q 351 873 329 832 q 408 946 372 914 q 488 1001 443 978 q 579 1038 533 1024 q 668 1060 625 1053 q 742 1067 711 1067 q 800 1061 769 1067 q 857 1043 831 1056 q 901 1010 883 1031 q 918 960 918 989 q 903 887 918 932 q 867 785 889 842 q 822 663 846 729 q 778 528 797 597 q 675 540 726 535 q 574 553 624 546 q 644 712 606 633 q 724 857 682 790 q 736 892 736 876 q 701 938 736 922 q 624 954 665 954 q 573 949 599 954 q 524 931 547 943 q 485 903 501 919 q 460 865 468 886 q 404 715 432 792 q 353 563 376 639 q 295 556 325 561 q 240 538 265 550 q 199 503 215 525 q 183 450 183 482 q 208 401 183 421 q 268 381 232 381 m 806 1296 q 850 1325 831 1293 q 904 1381 863 1347 q 996 1444 946 1415 q 1017 1464 1008 1451 q 1025 1490 1025 1476 q 1017 1518 1025 1506 q 997 1539 1010 1531 q 970 1552 985 1547 q 942 1557 956 1557 q 912 1551 926 1557 q 885 1535 897 1546 q 849 1501 872 1524 q 803 1451 825 1478 q 764 1399 781 1425 q 747 1354 747 1374 q 765 1313 747 1331 q 806 1296 782 1296 z "},"":{"ha":1160,"x_min":53,"x_max":1160,"o":"m 268 381 q 286 382 278 381 q 301 386 294 383 q 270 247 282 311 q 258 138 258 182 q 268 68 258 94 q 293 26 278 42 q 326 6 308 11 q 357 0 343 0 q 408 17 385 0 q 432 69 432 33 q 438 122 432 88 q 456 201 444 156 q 485 303 468 247 q 522 418 501 358 q 635 406 579 413 q 747 393 690 400 q 739 292 739 342 q 751 182 739 235 q 790 89 764 129 q 860 24 817 49 q 963 0 903 0 q 1024 23 1004 0 q 1044 72 1044 46 q 1027 119 1044 99 q 974 139 1010 139 q 960 146 965 139 q 951 163 954 153 q 948 185 949 174 q 947 204 947 196 q 958 283 947 239 q 989 381 969 328 q 1042 388 1014 382 q 1092 405 1069 393 q 1130 437 1115 417 q 1144 486 1144 457 q 1118 535 1144 515 q 1057 556 1092 556 q 1128 754 1096 656 q 1160 935 1160 853 q 1049 1158 1160 1076 q 728 1240 938 1240 q 568 1228 649 1240 q 412 1190 488 1215 q 271 1128 336 1165 q 157 1042 206 1090 q 81 933 108 993 q 53 800 53 872 q 64 720 53 754 q 94 663 75 686 q 137 629 113 640 q 188 618 161 618 q 238 628 213 618 q 284 660 264 639 q 317 711 304 681 q 329 781 329 742 q 351 873 329 832 q 408 946 372 914 q 488 1001 443 978 q 579 1038 533 1024 q 668 1060 625 1053 q 742 1067 711 1067 q 800 1061 769 1067 q 857 1043 831 1056 q 901 1010 883 1031 q 918 960 918 989 q 903 887 918 932 q 867 785 889 842 q 822 663 846 729 q 778 528 797 597 q 675 540 726 535 q 574 553 624 546 q 644 712 606 633 q 724 857 682 790 q 736 892 736 876 q 701 938 736 922 q 624 954 665 954 q 573 949 599 954 q 524 931 547 943 q 485 903 501 919 q 460 865 468 886 q 404 715 432 792 q 353 563 376 639 q 295 556 325 561 q 240 538 265 550 q 199 503 215 525 q 183 450 183 482 q 208 401 183 421 q 268 381 232 381 m 681 1278 q 726 1288 703 1278 q 767 1315 749 1297 q 786 1338 774 1324 q 813 1368 799 1351 q 822 1338 818 1351 q 829 1315 826 1324 q 890 1278 843 1278 q 921 1283 904 1278 q 951 1296 938 1288 q 975 1317 965 1304 q 985 1346 985 1329 q 967 1389 985 1361 q 935 1450 947 1417 q 917 1513 924 1483 q 901 1558 910 1546 q 872 1569 892 1569 q 838 1556 856 1568 q 793 1510 821 1544 q 737 1448 771 1482 q 653 1374 703 1414 q 631 1350 640 1364 q 621 1319 621 1336 q 640 1288 621 1299 q 681 1278 660 1278 z "},"":{"ha":1160,"x_min":53,"x_max":1160,"o":"m 268 381 q 286 382 278 381 q 301 386 294 383 q 270 247 282 311 q 258 138 258 182 q 268 68 258 94 q 293 26 278 42 q 326 6 308 11 q 357 0 343 0 q 408 17 385 0 q 432 69 432 33 q 438 122 432 88 q 456 201 444 156 q 485 303 468 247 q 522 418 501 358 q 635 406 579 413 q 747 393 690 400 q 739 292 739 342 q 751 182 739 235 q 790 89 764 129 q 860 24 817 49 q 963 0 903 0 q 1024 23 1004 0 q 1044 72 1044 46 q 1027 119 1044 99 q 974 139 1010 139 q 960 146 965 139 q 951 163 954 153 q 948 185 949 174 q 947 204 947 196 q 958 283 947 239 q 989 381 969 328 q 1042 388 1014 382 q 1092 405 1069 393 q 1130 437 1115 417 q 1144 486 1144 457 q 1118 535 1144 515 q 1057 556 1092 556 q 1128 754 1096 656 q 1160 935 1160 853 q 1049 1158 1160 1076 q 728 1240 938 1240 q 568 1228 649 1240 q 412 1190 488 1215 q 271 1128 336 1165 q 157 1042 206 1090 q 81 933 108 993 q 53 800 53 872 q 64 720 53 754 q 94 663 75 686 q 137 629 113 640 q 188 618 161 618 q 238 628 213 618 q 284 660 264 639 q 317 711 304 681 q 329 781 329 742 q 351 873 329 832 q 408 946 372 914 q 488 1001 443 978 q 579 1038 533 1024 q 668 1060 625 1053 q 742 1067 711 1067 q 800 1061 769 1067 q 857 1043 831 1056 q 901 1010 883 1031 q 918 960 918 989 q 903 887 918 932 q 867 785 889 842 q 822 663 846 729 q 778 528 797 597 q 675 540 726 535 q 574 553 624 546 q 644 712 606 633 q 724 857 682 790 q 736 892 736 876 q 701 938 736 922 q 624 954 665 954 q 573 949 599 954 q 524 931 547 943 q 485 903 501 919 q 460 865 468 886 q 404 715 432 792 q 353 563 376 639 q 295 556 325 561 q 240 538 265 550 q 199 503 215 525 q 183 450 183 482 q 208 401 183 421 q 268 381 232 381 m 901 1294 q 934 1301 918 1294 q 963 1318 950 1307 q 983 1344 975 1329 q 992 1375 992 1358 q 968 1424 992 1403 q 910 1444 944 1444 q 856 1425 878 1444 q 835 1371 835 1406 q 851 1319 835 1343 q 901 1294 867 1294 m 692 1294 q 724 1301 708 1294 q 753 1318 740 1307 q 774 1344 765 1329 q 782 1375 782 1358 q 758 1424 782 1403 q 700 1444 735 1444 q 647 1425 668 1444 q 625 1371 625 1406 q 641 1319 625 1343 q 692 1294 657 1294 z "},"":{"ha":1160,"x_min":53,"x_max":1160,"o":"m 268 381 q 286 382 278 381 q 301 386 294 383 q 270 247 282 311 q 258 138 258 182 q 268 68 258 94 q 293 26 278 42 q 326 6 308 11 q 357 0 343 0 q 408 17 385 0 q 432 69 432 33 q 438 122 432 88 q 456 201 444 156 q 485 303 468 247 q 522 418 501 358 q 635 406 579 413 q 747 393 690 400 q 739 292 739 342 q 751 182 739 235 q 790 89 764 129 q 860 24 817 49 q 963 0 903 0 q 1024 23 1004 0 q 1044 72 1044 46 q 1027 119 1044 99 q 974 139 1010 139 q 960 146 965 139 q 951 163 954 153 q 948 185 949 174 q 947 204 947 196 q 958 283 947 239 q 989 381 969 328 q 1042 388 1014 382 q 1092 405 1069 393 q 1130 437 1115 417 q 1144 486 1144 457 q 1118 535 1144 515 q 1057 556 1092 556 q 1128 754 1096 656 q 1160 935 1160 853 q 1049 1158 1160 1076 q 728 1240 938 1240 q 568 1228 649 1240 q 412 1190 488 1215 q 271 1128 336 1165 q 157 1042 206 1090 q 81 933 108 993 q 53 800 53 872 q 64 720 53 754 q 94 663 75 686 q 137 629 113 640 q 188 618 161 618 q 238 628 213 618 q 284 660 264 639 q 317 711 304 681 q 329 781 329 742 q 351 873 329 832 q 408 946 372 914 q 488 1001 443 978 q 579 1038 533 1024 q 668 1060 625 1053 q 742 1067 711 1067 q 800 1061 769 1067 q 857 1043 831 1056 q 901 1010 883 1031 q 918 960 918 989 q 903 887 918 932 q 867 785 889 842 q 822 663 846 729 q 778 528 797 597 q 675 540 726 535 q 574 553 624 546 q 644 712 606 633 q 724 857 682 790 q 736 892 736 876 q 701 938 736 922 q 624 954 665 954 q 573 949 599 954 q 524 931 547 943 q 485 903 501 919 q 460 865 468 886 q 404 715 432 792 q 353 563 376 639 q 295 556 325 561 q 240 538 265 550 q 199 503 215 525 q 183 450 183 482 q 208 401 183 421 q 268 381 232 381 m 558 1365 q 576 1310 558 1326 q 615 1294 594 1294 q 649 1306 635 1294 q 664 1338 664 1318 q 672 1342 664 1342 q 711 1334 688 1342 q 765 1317 735 1326 q 829 1301 796 1308 q 897 1293 863 1293 q 1008 1325 965 1293 q 1050 1415 1050 1357 q 1032 1473 1050 1454 q 993 1492 1014 1492 q 959 1478 974 1492 q 944 1438 944 1464 q 943 1435 943 1436 q 936 1432 940 1432 q 892 1440 921 1432 q 829 1458 864 1449 q 765 1474 797 1467 q 701 1481 732 1481 q 649 1474 675 1481 q 603 1453 624 1467 q 571 1417 583 1439 q 558 1365 558 1396 z "},"":{"ha":1160,"x_min":53,"x_max":1160,"o":"m 268 381 q 286 382 278 381 q 301 386 294 383 q 270 247 282 311 q 258 138 258 182 q 268 68 258 94 q 293 26 278 42 q 326 6 308 11 q 357 0 343 0 q 408 17 385 0 q 432 69 432 33 q 438 122 432 88 q 456 201 444 156 q 485 303 468 247 q 522 418 501 358 q 635 406 579 413 q 747 393 690 400 q 739 292 739 342 q 751 182 739 235 q 790 89 764 129 q 860 24 817 49 q 963 0 903 0 q 1024 23 1004 0 q 1044 72 1044 46 q 1027 119 1044 99 q 974 139 1010 139 q 960 146 965 139 q 951 163 954 153 q 948 185 949 174 q 947 204 947 196 q 958 283 947 239 q 989 381 969 328 q 1042 388 1014 382 q 1092 405 1069 393 q 1130 437 1115 417 q 1144 486 1144 457 q 1118 535 1144 515 q 1057 556 1092 556 q 1128 754 1096 656 q 1160 935 1160 853 q 1049 1158 1160 1076 q 728 1240 938 1240 q 568 1228 649 1240 q 412 1190 488 1215 q 271 1128 336 1165 q 157 1042 206 1090 q 81 933 108 993 q 53 800 53 872 q 64 720 53 754 q 94 663 75 686 q 137 629 113 640 q 188 618 161 618 q 238 628 213 618 q 284 660 264 639 q 317 711 304 681 q 329 781 329 742 q 351 873 329 832 q 408 946 372 914 q 488 1001 443 978 q 579 1038 533 1024 q 668 1060 625 1053 q 742 1067 711 1067 q 800 1061 769 1067 q 857 1043 831 1056 q 901 1010 883 1031 q 918 960 918 989 q 903 887 918 932 q 867 785 889 842 q 822 663 846 729 q 778 528 797 597 q 675 540 726 535 q 574 553 624 546 q 644 712 606 633 q 724 857 682 790 q 736 892 736 876 q 701 938 736 922 q 624 954 665 954 q 573 949 599 954 q 524 931 547 943 q 485 903 501 919 q 460 865 468 886 q 404 715 432 792 q 353 563 376 639 q 295 556 325 561 q 240 538 265 550 q 199 503 215 525 q 183 450 183 482 q 208 401 183 421 q 268 381 232 381 m 614 1444 q 705 1381 664 1415 q 758 1325 746 1347 q 804 1296 778 1293 q 844 1313 828 1296 q 861 1354 861 1331 q 844 1399 861 1374 q 806 1451 828 1425 q 760 1501 783 1478 q 725 1535 738 1524 q 698 1551 713 1546 q 668 1557 683 1557 q 640 1552 654 1557 q 613 1539 625 1547 q 592 1518 600 1531 q 585 1490 585 1506 q 593 1464 585 1476 q 614 1444 601 1451 z "},"":{"ha":908,"x_min":0,"x_max":967,"o":"m 0 426 q 26 252 0 331 q 103 117 53 174 q 230 31 154 61 q 406 0 306 0 q 580 28 501 0 q 715 103 658 56 q 802 214 771 150 q 835 350 833 278 q 831 406 836 383 q 815 441 825 428 q 792 460 806 454 q 767 465 779 465 q 724 447 744 465 q 692 371 703 428 q 661 283 682 321 q 611 221 640 246 q 547 183 582 196 q 474 171 511 171 q 379 197 417 171 q 319 264 342 224 q 287 353 296 304 q 278 446 278 401 q 291 573 278 504 q 328 710 304 642 q 383 844 351 779 q 453 958 415 908 q 534 1037 492 1007 q 619 1067 576 1067 q 661 1056 647 1067 q 682 1032 675 1046 q 690 1005 689 1018 q 690 988 690 992 q 683 923 690 956 q 666 858 675 890 q 649 795 657 826 q 642 733 642 764 q 674 642 642 671 q 757 613 707 613 q 852 644 813 613 q 917 722 892 675 q 955 822 943 768 q 967 921 967 875 q 940 1051 967 992 q 866 1151 913 1110 q 756 1217 819 1193 q 618 1240 692 1240 q 442 1203 524 1240 q 291 1104 360 1167 q 168 960 222 1042 q 76 787 114 878 q 19 603 39 696 q 0 426 0 510 m 624 1296 q 668 1325 649 1293 q 722 1381 681 1347 q 814 1444 764 1415 q 835 1464 826 1451 q 843 1490 843 1476 q 835 1518 843 1506 q 815 1539 828 1531 q 788 1552 803 1547 q 760 1557 774 1557 q 730 1551 744 1557 q 703 1535 715 1546 q 667 1501 690 1524 q 621 1451 643 1478 q 582 1399 599 1425 q 565 1354 565 1374 q 583 1313 565 1331 q 624 1296 600 1296 z "},"":{"ha":908,"x_min":0,"x_max":967,"o":"m 0 426 q 26 252 0 331 q 103 117 53 174 q 230 31 154 61 q 406 0 306 0 q 580 28 501 0 q 715 103 658 56 q 802 214 771 150 q 835 350 833 278 q 831 406 836 383 q 815 441 825 428 q 792 460 806 454 q 767 465 779 465 q 724 447 744 465 q 692 371 703 428 q 661 283 682 321 q 611 221 640 246 q 547 183 582 196 q 474 171 511 171 q 379 197 417 171 q 319 264 342 224 q 287 353 296 304 q 278 446 278 401 q 291 573 278 504 q 328 710 304 642 q 383 844 351 779 q 453 958 415 908 q 534 1037 492 1007 q 619 1067 576 1067 q 661 1056 647 1067 q 682 1032 675 1046 q 690 1005 689 1018 q 690 988 690 992 q 683 923 690 956 q 666 858 675 890 q 649 795 657 826 q 642 733 642 764 q 674 642 642 671 q 757 613 707 613 q 852 644 813 613 q 917 722 892 675 q 955 822 943 768 q 967 921 967 875 q 940 1051 967 992 q 866 1151 913 1110 q 756 1217 819 1193 q 618 1240 692 1240 q 442 1203 524 1240 q 291 1104 360 1167 q 168 960 222 1042 q 76 787 114 878 q 19 603 39 696 q 0 426 0 510 m 510 1518 q 526 1475 510 1501 q 558 1414 546 1447 q 576 1351 571 1381 q 593 1306 583 1317 q 621 1294 603 1294 q 656 1308 639 1296 q 701 1354 674 1319 q 758 1416 724 1382 q 842 1490 792 1450 q 864 1514 854 1500 q 874 1544 874 1528 q 854 1576 874 1565 q 813 1586 835 1586 q 728 1549 765 1586 q 708 1526 719 1539 q 681 1496 696 1513 q 672 1526 676 1513 q 665 1549 668 1539 q 642 1576 658 1567 q 603 1586 625 1586 q 572 1581 589 1586 q 542 1568 556 1576 q 519 1547 528 1560 q 510 1518 510 1535 z "},";":{"ha":332,"x_min":85,"x_max":317,"o":"m 194 431 q 239 439 217 431 q 278 462 261 447 q 306 497 296 476 q 317 539 317 517 q 285 605 317 578 q 207 632 254 632 q 134 606 163 632 q 106 535 106 581 q 127 464 106 497 q 194 431 149 431 m 92 -172 q 113 -197 99 -187 q 144 -207 128 -207 q 178 -194 167 -207 q 192 -160 189 -181 q 216 -89 194 -135 q 269 3 238 -43 q 276 56 288 28 q 251 82 268 74 q 214 90 233 90 q 169 78 189 90 q 138 42 149 65 q 121 -3 132 26 q 101 -64 110 -32 q 88 -126 92 -96 q 92 -172 85 -156 z "},",":{"ha":260,"x_min":47,"x_max":240,"o":"m 106 -207 q 139 -194 128 -207 q 153 -160 150 -181 q 177 -89 156 -135 q 231 3 199 -43 q 240 36 240 22 q 219 77 240 64 q 175 90 199 90 q 129 78 150 90 q 99 42 108 65 q 84 6 93 29 q 67 -43 75 -17 q 53 -97 58 -69 q 47 -144 47 -124 q 63 -189 47 -171 q 106 -207 78 -207 z "},"":{"ha":522,"x_min":64,"x_max":482,"o":"m 218 632 q 297 647 258 632 q 370 687 336 661 q 430 750 404 713 q 468 833 456 788 q 471 899 482 882 q 440 915 460 915 q 405 903 424 915 q 368 861 386 892 q 349 833 361 849 q 322 803 338 817 q 290 779 307 789 q 254 769 272 769 q 224 778 236 769 q 206 802 213 788 q 197 833 200 817 q 194 863 194 850 q 185 903 193 892 q 161 915 178 915 q 117 898 142 915 q 76 828 92 881 q 70 749 64 785 q 96 686 76 713 q 147 646 115 660 q 218 632 179 632 z "},"":{"ha":685,"x_min":-43,"x_max":779,"o":"m 197 174 q 173 183 182 174 q 164 208 164 193 q 186 276 164 233 q 244 361 208 318 q 323 438 279 404 q 411 482 367 472 q 391 417 401 454 q 371 336 381 379 q 328 278 351 307 q 283 226 306 250 q 238 188 260 203 q 197 174 215 174 m 474 601 q 413 625 446 618 q 350 632 379 632 q 202 590 274 632 q 76 483 131 547 q -10 342 22 418 q -43 196 -43 265 q -31 119 -43 156 q 3 57 -19 83 q 60 15 26 31 q 139 0 94 0 q 261 31 203 0 q 365 108 319 61 q 412 30 379 60 q 499 0 444 0 q 603 34 557 0 q 685 119 650 68 q 744 232 721 171 q 778 347 768 293 q 779 356 779 350 q 765 385 779 375 q 732 394 750 394 q 704 388 717 394 q 685 365 692 381 q 665 321 679 353 q 631 257 650 289 q 591 200 613 225 q 551 175 569 175 q 534 188 538 175 q 531 211 531 200 q 545 292 531 243 q 578 390 560 342 q 614 477 597 439 q 635 524 631 515 q 644 560 644 542 q 617 612 644 592 q 554 632 590 632 q 514 624 535 632 q 474 601 493 617 m 353 665 q 432 680 393 665 q 505 720 471 694 q 565 783 539 746 q 603 867 590 821 q 606 932 617 915 q 575 949 594 949 q 540 937 558 949 q 503 894 521 925 q 484 866 496 882 q 457 836 472 850 q 424 813 442 822 q 389 803 407 803 q 359 812 371 803 q 341 835 347 821 q 332 867 335 850 q 329 896 329 883 q 320 937 328 925 q 296 949 313 949 q 251 931 276 949 q 211 861 226 914 q 205 782 199 818 q 231 719 211 746 q 282 679 250 693 q 353 665 314 665 z "},"":{"ha":1160,"x_min":53,"x_max":1160,"o":"m 268 381 q 286 382 278 381 q 301 386 294 383 q 270 247 282 311 q 258 138 258 182 q 268 68 258 94 q 293 26 278 42 q 326 6 308 11 q 357 0 343 0 q 408 17 385 0 q 432 69 432 33 q 438 122 432 88 q 456 201 444 156 q 485 303 468 247 q 522 418 501 358 q 635 406 579 413 q 747 393 690 400 q 739 292 739 342 q 751 182 739 235 q 790 89 764 129 q 860 24 817 49 q 963 0 903 0 q 1024 23 1004 0 q 1044 72 1044 46 q 1027 119 1044 99 q 974 139 1010 139 q 960 146 965 139 q 951 163 954 153 q 948 185 949 174 q 947 204 947 196 q 958 283 947 239 q 989 381 969 328 q 1042 388 1014 382 q 1092 405 1069 393 q 1130 437 1115 417 q 1144 486 1144 457 q 1118 535 1144 515 q 1057 556 1092 556 q 1128 754 1096 656 q 1160 935 1160 853 q 1049 1158 1160 1076 q 728 1240 938 1240 q 568 1228 649 1240 q 412 1190 488 1215 q 271 1128 336 1165 q 157 1042 206 1090 q 81 933 108 993 q 53 800 53 872 q 64 720 53 754 q 94 663 75 686 q 137 629 113 640 q 188 618 161 618 q 238 628 213 618 q 284 660 264 639 q 317 711 304 681 q 329 781 329 742 q 351 873 329 832 q 408 946 372 914 q 488 1001 443 978 q 579 1038 533 1024 q 668 1060 625 1053 q 742 1067 711 1067 q 800 1061 769 1067 q 857 1043 831 1056 q 901 1010 883 1031 q 918 960 918 989 q 903 887 918 932 q 867 785 889 842 q 822 663 846 729 q 778 528 797 597 q 675 540 726 535 q 574 553 624 546 q 644 712 606 633 q 724 857 682 790 q 736 892 736 876 q 701 938 736 922 q 624 954 665 954 q 573 949 599 954 q 524 931 547 943 q 485 903 501 919 q 460 865 468 886 q 404 715 432 792 q 353 563 376 639 q 295 556 325 561 q 240 538 265 550 q 199 503 215 525 q 183 450 183 482 q 208 401 183 421 q 268 381 232 381 m 804 1294 q 883 1309 844 1294 q 956 1349 922 1324 q 1016 1413 990 1375 q 1054 1496 1042 1450 q 1057 1561 1068 1544 q 1026 1578 1046 1578 q 991 1566 1010 1578 q 954 1524 972 1554 q 935 1495 947 1511 q 908 1465 924 1479 q 876 1442 893 1451 q 840 1432 858 1432 q 810 1441 822 1432 q 792 1465 799 1450 q 783 1496 786 1479 q 781 1525 781 1513 q 772 1566 779 1554 q 747 1578 764 1578 q 703 1560 728 1578 q 663 1490 678 1543 q 656 1411 650 1447 q 682 1349 663 1375 q 733 1308 701 1322 q 804 1294 765 1294 z "},"":{"ha":883,"x_min":-15,"x_max":981,"o":"m -15 354 q 7 224 -15 288 q 78 110 29 160 q 206 31 128 61 q 397 0 285 0 q 566 22 490 0 q 695 82 642 43 q 778 174 749 121 q 807 289 807 226 q 781 401 807 351 q 715 496 754 451 q 628 581 675 540 q 542 664 582 621 q 474 755 501 707 q 444 860 446 803 q 453 932 443 896 q 484 999 463 968 q 538 1048 506 1029 q 614 1067 571 1067 q 666 1056 647 1067 q 693 1032 685 1046 q 703 1005 701 1018 q 704 988 704 992 q 697 928 704 956 q 679 873 689 900 q 662 819 669 846 q 654 761 654 792 q 688 669 654 699 q 774 640 721 640 q 867 667 828 640 q 931 735 906 694 q 968 826 956 776 q 981 921 981 875 q 953 1051 981 992 q 876 1151 926 1110 q 756 1217 826 1193 q 600 1240 686 1240 q 440 1217 518 1240 q 300 1149 361 1194 q 201 1036 239 1104 q 164 878 164 968 q 191 736 164 800 q 258 620 218 672 q 347 524 299 568 q 435 443 394 481 q 502 371 475 406 q 529 300 529 336 q 518 256 529 278 q 485 215 507 233 q 430 185 463 197 q 356 174 397 174 q 276 185 317 174 q 201 225 235 197 q 147 298 168 253 q 125 410 125 343 q 125 438 125 422 q 120 467 125 453 q 103 492 115 482 q 69 501 92 501 q 24 485 40 501 q -1 447 7 469 q -12 399 -10 424 q -15 354 -15 374 m 488 1518 q 504 1475 488 1501 q 536 1414 524 1447 q 554 1351 549 1381 q 571 1306 561 1317 q 599 1294 581 1294 q 634 1308 617 1296 q 679 1354 651 1319 q 735 1416 701 1382 q 819 1490 769 1450 q 842 1514 832 1500 q 851 1544 851 1528 q 832 1576 851 1565 q 790 1586 813 1586 q 706 1549 743 1586 q 685 1526 697 1539 q 658 1496 674 1513 q 650 1526 654 1513 q 643 1549 646 1539 q 619 1576 636 1567 q 581 1586 603 1586 q 550 1581 567 1586 q 519 1568 533 1576 q 497 1547 506 1560 q 488 1518 488 1535 z "},"":{"ha":883,"x_min":-15,"x_max":981,"o":"m -15 354 q 7 224 -15 288 q 78 110 29 160 q 206 31 128 61 q 397 0 285 0 q 566 22 490 0 q 695 82 642 43 q 778 174 749 121 q 807 289 807 226 q 781 401 807 351 q 715 496 754 451 q 628 581 675 540 q 542 664 582 621 q 474 755 501 707 q 444 860 446 803 q 453 932 443 896 q 484 999 463 968 q 538 1048 506 1029 q 614 1067 571 1067 q 666 1056 647 1067 q 693 1032 685 1046 q 703 1005 701 1018 q 704 988 704 992 q 697 928 704 956 q 679 873 689 900 q 662 819 669 846 q 654 761 654 792 q 688 669 654 699 q 774 640 721 640 q 867 667 828 640 q 931 735 906 694 q 968 826 956 776 q 981 921 981 875 q 953 1051 981 992 q 876 1151 926 1110 q 756 1217 826 1193 q 600 1240 686 1240 q 440 1217 518 1240 q 300 1149 361 1194 q 201 1036 239 1104 q 164 878 164 968 q 191 736 164 800 q 258 620 218 672 q 347 524 299 568 q 435 443 394 481 q 502 371 475 406 q 529 300 529 336 q 518 256 529 278 q 485 215 507 233 q 430 185 463 197 q 356 174 397 174 q 276 185 317 174 q 201 225 235 197 q 147 298 168 253 q 125 410 125 343 q 125 438 125 422 q 120 467 125 453 q 103 492 115 482 q 69 501 92 501 q 24 485 40 501 q -1 447 7 469 q -12 399 -10 424 q -15 354 -15 374 m 601 1296 q 646 1325 626 1293 q 700 1381 658 1347 q 792 1444 742 1415 q 813 1464 804 1451 q 821 1490 821 1476 q 813 1518 821 1506 q 793 1539 806 1531 q 766 1552 781 1547 q 738 1557 751 1557 q 708 1551 722 1557 q 681 1535 693 1546 q 644 1501 668 1524 q 599 1451 621 1478 q 560 1399 576 1425 q 543 1354 543 1374 q 560 1313 543 1331 q 601 1296 578 1296 z "},"":{"ha":975,"x_min":49,"x_max":1029,"o":"m 503 174 q 374 213 424 174 q 324 311 324 251 q 341 378 324 346 q 385 437 358 411 q 444 478 413 463 q 507 497 476 494 q 565 522 546 500 q 583 568 583 543 q 569 612 583 592 q 532 638 556 632 q 491 660 513 642 q 451 706 469 678 q 422 769 433 733 q 410 843 410 804 q 424 923 410 883 q 465 994 438 963 q 535 1047 493 1026 q 631 1067 576 1067 q 696 1056 672 1067 q 732 1029 719 1044 q 748 997 744 1014 q 751 967 751 979 q 744 914 751 942 q 727 856 736 886 q 710 795 718 826 q 703 733 703 764 q 735 642 703 671 q 818 613 768 613 q 913 644 874 613 q 978 721 953 675 q 1017 820 1004 767 q 1029 918 1029 874 q 999 1049 1029 990 q 917 1151 969 1108 q 790 1217 864 1193 q 625 1240 715 1240 q 425 1207 517 1240 q 268 1119 333 1174 q 166 994 203 1064 q 129 853 129 925 q 142 768 129 813 q 179 684 154 724 q 243 612 204 644 q 335 563 282 579 q 215 535 268 561 q 125 469 163 510 q 68 380 88 429 q 49 282 49 331 q 74 176 49 228 q 149 86 99 125 q 274 24 199 47 q 447 0 349 0 q 629 25 546 0 q 773 96 713 50 q 867 207 833 142 q 901 353 901 272 q 880 442 901 418 q 831 465 858 465 q 788 447 808 465 q 758 376 768 429 q 724 287 749 325 q 663 224 699 249 q 586 186 628 199 q 503 174 544 174 m 629 1296 q 674 1325 654 1293 q 728 1381 686 1347 q 819 1444 769 1415 q 840 1464 832 1451 q 849 1490 849 1476 q 841 1518 849 1506 q 821 1539 833 1531 q 794 1552 808 1547 q 765 1557 779 1557 q 735 1551 750 1557 q 708 1535 721 1546 q 672 1501 696 1524 q 626 1451 649 1478 q 588 1399 604 1425 q 571 1354 571 1374 q 588 1313 571 1331 q 629 1296 606 1296 z "},"":{"ha":975,"x_min":49,"x_max":1029,"o":"m 503 174 q 374 213 424 174 q 324 311 324 251 q 341 378 324 346 q 385 437 358 411 q 444 478 413 463 q 507 497 476 494 q 565 522 546 500 q 583 568 583 543 q 569 612 583 592 q 532 638 556 632 q 491 660 513 642 q 451 706 469 678 q 422 769 433 733 q 410 843 410 804 q 424 923 410 883 q 465 994 438 963 q 535 1047 493 1026 q 631 1067 576 1067 q 696 1056 672 1067 q 732 1029 719 1044 q 748 997 744 1014 q 751 967 751 979 q 744 914 751 942 q 727 856 736 886 q 710 795 718 826 q 703 733 703 764 q 735 642 703 671 q 818 613 768 613 q 913 644 874 613 q 978 721 953 675 q 1017 820 1004 767 q 1029 918 1029 874 q 999 1049 1029 990 q 917 1151 969 1108 q 790 1217 864 1193 q 625 1240 715 1240 q 425 1207 517 1240 q 268 1119 333 1174 q 166 994 203 1064 q 129 853 129 925 q 142 768 129 813 q 179 684 154 724 q 243 612 204 644 q 335 563 282 579 q 215 535 268 561 q 125 469 163 510 q 68 380 88 429 q 49 282 49 331 q 74 176 49 228 q 149 86 99 125 q 274 24 199 47 q 447 0 349 0 q 629 25 546 0 q 773 96 713 50 q 867 207 833 142 q 901 353 901 272 q 880 442 901 418 q 831 465 858 465 q 788 447 808 465 q 758 376 768 429 q 724 287 749 325 q 663 224 699 249 q 586 186 628 199 q 503 174 544 174 m 725 1294 q 758 1301 742 1294 q 786 1318 774 1307 q 807 1344 799 1329 q 815 1375 815 1358 q 792 1424 815 1403 q 733 1444 768 1444 q 680 1425 701 1444 q 658 1371 658 1406 q 674 1319 658 1343 q 725 1294 690 1294 m 515 1294 q 548 1301 532 1294 q 576 1318 564 1307 q 597 1344 589 1329 q 606 1375 606 1358 q 582 1424 606 1403 q 524 1444 558 1444 q 470 1425 492 1444 q 449 1371 449 1406 q 465 1319 449 1343 q 515 1294 481 1294 z "},"":{"ha":975,"x_min":49,"x_max":1029,"o":"m 503 174 q 374 213 424 174 q 324 311 324 251 q 341 378 324 346 q 385 437 358 411 q 444 478 413 463 q 507 497 476 494 q 565 522 546 500 q 583 568 583 543 q 569 612 583 592 q 532 638 556 632 q 491 660 513 642 q 451 706 469 678 q 422 769 433 733 q 410 843 410 804 q 424 923 410 883 q 465 994 438 963 q 535 1047 493 1026 q 631 1067 576 1067 q 696 1056 672 1067 q 732 1029 719 1044 q 748 997 744 1014 q 751 967 751 979 q 744 914 751 942 q 727 856 736 886 q 710 795 718 826 q 703 733 703 764 q 735 642 703 671 q 818 613 768 613 q 913 644 874 613 q 978 721 953 675 q 1017 820 1004 767 q 1029 918 1029 874 q 999 1049 1029 990 q 917 1151 969 1108 q 790 1217 864 1193 q 625 1240 715 1240 q 425 1207 517 1240 q 268 1119 333 1174 q 166 994 203 1064 q 129 853 129 925 q 142 768 129 813 q 179 684 154 724 q 243 612 204 644 q 335 563 282 579 q 215 535 268 561 q 125 469 163 510 q 68 380 88 429 q 49 282 49 331 q 74 176 49 228 q 149 86 99 125 q 274 24 199 47 q 447 0 349 0 q 629 25 546 0 q 773 96 713 50 q 867 207 833 142 q 901 353 901 272 q 880 442 901 418 q 831 465 858 465 q 788 447 808 465 q 758 376 768 429 q 724 287 749 325 q 663 224 699 249 q 586 186 628 199 q 503 174 544 174 m 515 1518 q 532 1475 515 1501 q 564 1414 551 1447 q 582 1351 576 1381 q 599 1306 589 1317 q 626 1294 608 1294 q 662 1308 644 1296 q 707 1354 679 1319 q 763 1416 729 1382 q 847 1490 797 1450 q 869 1514 860 1500 q 879 1544 879 1528 q 860 1576 879 1565 q 818 1586 840 1586 q 733 1549 771 1586 q 713 1526 725 1539 q 686 1496 701 1513 q 678 1526 682 1513 q 671 1549 674 1539 q 647 1576 664 1567 q 608 1586 631 1586 q 578 1581 594 1586 q 547 1568 561 1576 q 524 1547 533 1560 q 515 1518 515 1535 z "},"":{"ha":738,"x_min":-3,"x_max":1051,"o":"m -1 725 q 10 647 -1 681 q 40 590 21 613 q 83 556 58 567 q 133 544 107 544 q 184 556 158 544 q 231 589 210 567 q 264 644 251 611 q 276 721 276 678 q 341 896 275 817 q 550 1022 407 975 q 447 837 489 938 q 374 636 406 736 q 326 460 344 544 q 291 311 308 376 q 254 207 274 246 q 203 168 235 168 q 142 144 168 168 q 117 85 117 119 q 143 24 117 49 q 201 0 169 0 q 340 25 282 0 q 441 94 399 50 q 513 197 483 138 q 566 324 543 256 q 608 466 589 392 q 650 613 628 540 q 702 786 678 703 q 759 933 726 869 q 840 1034 792 996 q 963 1072 888 1072 q 1029 1100 1007 1072 q 1051 1160 1051 1128 q 1031 1215 1051 1190 q 965 1240 1010 1240 q 789 1231 890 1240 q 580 1197 688 1221 q 368 1135 472 1174 q 181 1040 264 1097 q 48 905 99 983 q -1 725 -3 826 m 615 1278 q 660 1288 638 1278 q 701 1315 683 1297 q 721 1338 708 1324 q 747 1368 733 1351 q 757 1338 753 1351 q 764 1315 761 1324 q 825 1278 778 1278 q 856 1283 839 1278 q 886 1296 872 1288 q 910 1317 900 1304 q 919 1346 919 1329 q 901 1389 919 1361 q 870 1450 882 1417 q 851 1513 858 1483 q 835 1558 844 1546 q 807 1569 826 1569 q 773 1556 790 1568 q 728 1510 756 1544 q 672 1448 706 1482 q 588 1374 638 1414 q 565 1350 575 1364 q 556 1319 556 1336 q 575 1288 556 1299 q 615 1278 594 1278 z "},"":{"ha":1307,"x_min":-3,"x_max":1376,"o":"m 843 1003 q 835 1031 842 1015 q 892 1061 861 1050 q 963 1072 922 1072 q 1034 1100 1010 1072 q 1058 1160 1058 1128 q 1035 1215 1058 1190 q 965 1240 1013 1240 q 789 1231 890 1240 q 580 1197 688 1221 q 368 1135 472 1174 q 181 1040 264 1097 q 48 905 99 983 q -1 725 -3 826 q 10 647 -1 681 q 40 590 21 613 q 83 556 58 567 q 133 544 107 544 q 184 556 158 544 q 231 589 210 567 q 264 644 251 611 q 276 721 276 678 q 341 896 275 817 q 550 1022 407 975 q 447 837 489 938 q 374 636 406 736 q 326 460 344 544 q 291 311 308 376 q 254 207 274 246 q 203 168 235 168 q 142 144 168 168 q 117 85 117 119 q 143 24 117 49 q 201 0 169 0 q 340 25 282 0 q 441 94 399 50 q 513 197 483 138 q 566 324 543 256 q 608 466 589 392 q 650 613 628 540 q 665 660 657 636 q 679 708 672 685 q 699 511 686 614 q 738 315 713 408 q 803 147 763 222 q 901 35 843 72 l 908 31 q 1017 0 961 1 q 1115 40 1075 0 q 1156 139 1156 81 q 1151 174 1156 157 q 1139 206 1146 190 q 1208 381 1168 283 q 1286 579 1249 478 q 1350 777 1324 681 q 1376 947 1376 874 q 1368 1015 1376 983 q 1342 1070 1360 1046 q 1297 1108 1324 1094 q 1232 1122 1269 1122 q 1144 1097 1182 1122 q 1106 1019 1106 1071 q 1133 945 1106 976 q 1204 911 1161 914 q 1181 785 1204 861 q 1125 625 1158 708 q 1057 461 1092 542 q 1000 322 1022 381 q 943 464 968 381 q 900 636 918 547 q 869 807 882 725 q 850 944 857 889 l 843 1003 m 1121 1294 q 1165 1324 1146 1292 q 1219 1380 1178 1346 q 1311 1443 1261 1414 q 1332 1463 1324 1450 q 1340 1489 1340 1475 q 1333 1517 1340 1504 q 1313 1538 1325 1529 q 1285 1551 1300 1546 q 1257 1556 1271 1556 q 1227 1550 1242 1556 q 1200 1533 1213 1544 q 1164 1499 1188 1522 q 1118 1450 1140 1476 q 1079 1398 1096 1424 q 1063 1353 1063 1372 q 1080 1312 1063 1329 q 1121 1294 1097 1294 z "},"":{"ha":1307,"x_min":-3,"x_max":1376,"o":"m 843 1003 q 835 1031 842 1015 q 892 1061 861 1050 q 963 1072 922 1072 q 1034 1100 1010 1072 q 1058 1160 1058 1128 q 1035 1215 1058 1190 q 965 1240 1013 1240 q 789 1231 890 1240 q 580 1197 688 1221 q 368 1135 472 1174 q 181 1040 264 1097 q 48 905 99 983 q -1 725 -3 826 q 10 647 -1 681 q 40 590 21 613 q 83 556 58 567 q 133 544 107 544 q 184 556 158 544 q 231 589 210 567 q 264 644 251 611 q 276 721 276 678 q 341 896 275 817 q 550 1022 407 975 q 447 837 489 938 q 374 636 406 736 q 326 460 344 544 q 291 311 308 376 q 254 207 274 246 q 203 168 235 168 q 142 144 168 168 q 117 85 117 119 q 143 24 117 49 q 201 0 169 0 q 340 25 282 0 q 441 94 399 50 q 513 197 483 138 q 566 324 543 256 q 608 466 589 392 q 650 613 628 540 q 665 660 657 636 q 679 708 672 685 q 699 511 686 614 q 738 315 713 408 q 803 147 763 222 q 901 35 843 72 l 908 31 q 1017 0 961 1 q 1115 40 1075 0 q 1156 139 1156 81 q 1151 174 1156 157 q 1139 206 1146 190 q 1208 381 1168 283 q 1286 579 1249 478 q 1350 777 1324 681 q 1376 947 1376 874 q 1368 1015 1376 983 q 1342 1070 1360 1046 q 1297 1108 1324 1094 q 1232 1122 1269 1122 q 1144 1097 1182 1122 q 1106 1019 1106 1071 q 1133 945 1106 976 q 1204 911 1161 914 q 1181 785 1204 861 q 1125 625 1158 708 q 1057 461 1092 542 q 1000 322 1022 381 q 943 464 968 381 q 900 636 918 547 q 869 807 882 725 q 850 944 857 889 l 843 1003 m 1007 1517 q 1024 1474 1007 1500 q 1056 1413 1043 1446 q 1074 1350 1068 1379 q 1090 1304 1081 1315 q 1118 1293 1100 1293 q 1153 1306 1136 1294 q 1199 1353 1171 1318 q 1255 1415 1221 1381 q 1339 1489 1289 1449 q 1361 1513 1351 1499 q 1371 1543 1371 1526 q 1351 1574 1371 1564 q 1310 1585 1332 1585 q 1225 1547 1263 1585 q 1205 1524 1217 1538 q 1178 1494 1193 1511 q 1169 1524 1174 1511 q 1163 1547 1165 1538 q 1139 1575 1156 1565 q 1100 1585 1122 1585 q 1069 1580 1086 1585 q 1039 1567 1053 1575 q 1016 1546 1025 1558 q 1007 1517 1007 1533 z "},"":{"ha":1081,"x_min":57,"x_max":1100,"o":"m 282 408 q 292 508 282 454 q 320 617 301 563 q 365 722 339 672 q 421 807 390 772 q 435 706 422 760 q 473 608 447 653 q 538 533 499 563 q 631 503 576 503 q 713 532 681 503 q 746 624 746 561 q 738 685 746 654 q 722 748 731 717 q 705 810 713 779 q 697 869 697 840 q 701 920 697 888 q 717 985 706 953 q 750 1042 729 1018 q 803 1065 771 1065 q 871 1014 849 1065 q 893 882 893 963 q 879 741 893 818 q 840 585 865 664 q 776 431 814 506 q 691 299 739 357 q 586 207 643 242 q 464 172 529 172 q 376 194 411 172 q 321 251 342 217 q 291 328 300 286 q 282 408 282 369 m 443 0 q 632 38 544 0 q 793 139 719 75 q 924 286 867 203 q 1019 462 981 369 q 1079 649 1058 554 q 1100 829 1100 743 q 1078 993 1100 918 q 1015 1123 1056 1068 q 917 1208 975 1178 q 785 1239 858 1239 q 661 1213 717 1239 q 561 1146 606 1188 q 537 1150 550 1149 q 510 1151 524 1151 q 382 1119 442 1151 q 272 1033 322 1088 q 181 908 221 979 q 114 758 142 836 q 72 601 86 681 q 57 449 57 521 q 79 282 57 363 q 148 139 101 201 q 268 38 194 76 q 443 0 342 0 m 607 1336 q 645 1405 614 1361 q 717 1490 676 1449 q 733 1531 733 1510 q 708 1573 733 1558 q 658 1588 683 1588 q 585 1549 611 1588 q 562 1511 576 1536 q 533 1458 547 1486 q 509 1401 519 1429 q 499 1351 499 1372 q 516 1311 499 1328 q 557 1294 533 1294 q 589 1306 576 1294 q 607 1336 601 1318 m 815 1336 q 853 1405 822 1361 q 925 1490 885 1449 q 942 1531 942 1510 q 917 1573 942 1558 q 867 1588 892 1588 q 793 1549 819 1588 q 770 1511 785 1536 q 742 1458 756 1486 q 717 1401 728 1429 q 707 1351 707 1372 q 724 1311 707 1328 q 765 1294 742 1294 q 797 1306 785 1294 q 815 1336 810 1318 z "},"":{"ha":1081,"x_min":57,"x_max":1100,"o":"m 282 408 q 292 508 282 454 q 320 617 301 563 q 365 722 339 672 q 421 807 390 772 q 435 706 422 760 q 473 608 447 653 q 538 533 499 563 q 631 503 576 503 q 713 532 681 503 q 746 624 746 561 q 738 685 746 654 q 722 748 731 717 q 705 810 713 779 q 697 869 697 840 q 701 920 697 888 q 717 985 706 953 q 750 1042 729 1018 q 803 1065 771 1065 q 871 1014 849 1065 q 893 882 893 963 q 879 741 893 818 q 840 585 865 664 q 776 431 814 506 q 691 299 739 357 q 586 207 643 242 q 464 172 529 172 q 376 194 411 172 q 321 251 342 217 q 291 328 300 286 q 282 408 282 369 m 443 0 q 632 38 544 0 q 793 139 719 75 q 924 286 867 203 q 1019 462 981 369 q 1079 649 1058 554 q 1100 829 1100 743 q 1078 993 1100 918 q 1015 1123 1056 1068 q 917 1208 975 1178 q 785 1239 858 1239 q 661 1213 717 1239 q 561 1146 606 1188 q 537 1150 550 1149 q 510 1151 524 1151 q 382 1119 442 1151 q 272 1033 322 1088 q 181 908 221 979 q 114 758 142 836 q 72 601 86 681 q 57 449 57 521 q 79 282 57 363 q 148 139 101 201 q 268 38 194 76 q 443 0 342 0 m 753 1294 q 785 1301 769 1294 q 814 1318 801 1307 q 835 1344 826 1329 q 843 1375 843 1358 q 819 1424 843 1403 q 761 1444 796 1444 q 708 1425 729 1444 q 686 1371 686 1406 q 702 1319 686 1343 q 753 1294 718 1294 m 543 1294 q 576 1301 560 1294 q 604 1318 592 1307 q 625 1344 617 1329 q 633 1375 633 1358 q 610 1424 633 1403 q 551 1444 586 1444 q 498 1425 519 1444 q 476 1371 476 1406 q 492 1319 476 1343 q 543 1294 508 1294 z "},"":{"ha":1203,"x_min":60,"x_max":1194,"o":"m 611 407 q 537 387 558 407 q 515 343 515 367 q 530 306 515 319 q 565 287 544 293 q 608 279 586 281 q 647 278 631 278 q 709 203 678 250 q 781 112 740 157 q 875 33 821 67 q 1004 0 929 0 q 1101 25 1067 0 q 1135 97 1135 50 q 1101 176 1135 144 q 996 208 1067 208 q 888 235 932 208 q 807 307 843 263 q 958 384 888 335 q 1081 498 1029 433 q 1164 639 1133 563 q 1194 797 1194 715 q 1154 973 1194 892 q 1044 1114 1114 1054 q 881 1207 974 1174 q 681 1240 788 1240 q 527 1222 603 1240 q 382 1172 451 1204 q 253 1092 313 1139 q 151 990 194 1046 q 84 868 108 933 q 60 732 60 803 q 71 649 60 685 q 101 591 82 614 q 144 556 119 568 q 194 544 168 544 q 245 556 219 544 q 292 589 271 567 q 325 644 313 611 q 338 721 338 678 q 370 856 336 793 q 457 966 404 919 q 574 1039 510 1013 q 696 1065 638 1065 q 788 1045 747 1065 q 857 988 829 1025 q 900 901 885 951 q 915 793 915 851 q 890 645 915 715 q 824 522 865 575 q 727 438 782 469 q 611 407 672 407 m 449 865 q 376 663 411 768 q 312 459 340 557 q 266 277 283 361 q 249 138 249 193 q 258 68 249 94 q 283 26 268 42 q 315 6 297 11 q 347 0 332 0 q 398 17 375 0 q 421 69 421 33 q 431 140 421 92 q 460 255 442 189 q 504 399 478 321 q 563 556 531 476 q 633 714 596 636 q 713 857 671 792 q 725 892 725 876 q 690 938 725 922 q 614 954 656 954 q 514 931 563 954 q 449 865 465 908 m 571 1518 q 588 1475 571 1501 q 619 1414 607 1447 q 638 1351 632 1381 q 654 1306 644 1317 q 682 1294 664 1294 q 717 1308 700 1296 q 763 1354 735 1319 q 819 1416 785 1382 q 903 1490 853 1450 q 925 1514 915 1500 q 935 1544 935 1528 q 915 1576 935 1565 q 874 1586 896 1586 q 789 1549 826 1586 q 769 1526 781 1539 q 742 1496 757 1513 q 733 1526 738 1513 q 726 1549 729 1539 q 703 1576 719 1567 q 664 1586 686 1586 q 633 1581 650 1586 q 603 1568 617 1576 q 580 1547 589 1560 q 571 1518 571 1535 z "},"":{"ha":1432,"x_min":28,"x_max":1514,"o":"m 700 229 q 714 314 700 264 q 749 422 728 364 q 796 545 771 481 q 842 674 821 610 q 878 802 864 739 q 892 919 892 865 q 867 1049 892 990 q 798 1151 842 1108 q 694 1217 754 1193 q 561 1242 633 1242 q 373 1202 468 1242 q 201 1094 278 1163 q 76 935 124 1026 q 28 739 28 843 q 39 654 28 690 q 69 594 50 618 q 112 559 88 571 q 163 547 136 547 q 213 558 188 547 q 260 592 239 569 q 293 647 281 614 q 306 725 306 681 q 336 860 304 797 q 413 969 368 922 q 504 1042 457 1015 q 581 1068 551 1068 q 622 1043 611 1068 q 632 990 632 1018 q 619 904 632 954 q 587 797 606 854 q 545 675 568 739 q 503 546 522 611 q 472 415 485 481 q 458 290 458 350 q 474 175 458 228 q 519 83 489 122 q 596 22 550 44 q 701 0 642 0 q 892 58 801 0 q 1063 208 983 115 q 1126 58 1076 115 q 1258 1 1176 1 q 1336 24 1314 1 q 1358 74 1358 47 q 1341 120 1358 100 q 1288 140 1324 140 q 1278 149 1282 140 q 1270 172 1274 158 q 1265 202 1267 186 q 1264 232 1264 218 q 1279 344 1264 276 q 1317 492 1294 413 q 1369 654 1340 571 q 1424 810 1397 738 q 1473 937 1451 882 q 1506 1015 1494 992 q 1514 1047 1514 1032 q 1482 1106 1514 1083 q 1408 1129 1450 1129 q 1340 1110 1369 1129 q 1288 1063 1310 1090 q 1251 1002 1267 1035 q 1228 944 1236 969 q 1183 821 1213 897 q 1115 659 1153 744 q 1031 487 1076 574 q 936 331 985 400 q 837 217 888 261 q 739 174 786 174 q 709 189 718 174 q 700 229 700 204 m 1101 1260 q 1146 1289 1126 1257 q 1200 1345 1158 1311 q 1292 1408 1242 1379 q 1313 1428 1304 1415 q 1321 1454 1321 1440 q 1313 1482 1321 1469 q 1293 1503 1306 1494 q 1266 1516 1281 1511 q 1238 1521 1251 1521 q 1208 1515 1222 1521 q 1181 1499 1193 1510 q 1144 1465 1168 1488 q 1099 1415 1121 1442 q 1060 1363 1076 1389 q 1043 1318 1043 1338 q 1060 1277 1043 1294 q 1101 1260 1078 1260 z "},"":{"ha":1432,"x_min":28,"x_max":1514,"o":"m 701 229 q 715 314 701 264 q 751 422 729 364 q 797 545 772 481 q 842 674 821 610 q 878 802 864 739 q 892 919 892 865 q 867 1049 892 990 q 799 1151 843 1108 q 694 1217 756 1193 q 561 1242 633 1242 q 373 1202 468 1242 q 201 1094 278 1163 q 76 935 124 1026 q 28 739 28 843 q 39 654 28 690 q 69 594 50 618 q 112 559 88 571 q 163 547 136 547 q 215 558 189 547 q 260 592 240 569 q 293 647 281 614 q 306 725 306 681 q 337 860 306 797 q 413 969 368 922 q 504 1042 457 1015 q 581 1068 551 1068 q 622 1043 611 1068 q 632 990 632 1018 q 619 904 632 954 q 587 797 606 854 q 545 675 568 739 q 503 546 522 611 q 472 415 485 481 q 458 290 458 350 q 474 175 458 228 q 519 83 489 122 q 596 22 550 44 q 701 0 642 0 q 892 58 801 0 q 1063 208 983 115 q 1128 58 1078 115 q 1260 1 1178 1 q 1336 24 1314 1 q 1358 74 1358 47 q 1341 120 1358 100 q 1288 140 1324 140 q 1278 149 1282 140 q 1271 172 1274 158 q 1267 202 1268 186 q 1265 232 1265 218 q 1281 344 1265 276 q 1319 492 1296 413 q 1370 654 1342 571 q 1426 810 1399 738 q 1475 937 1453 882 q 1507 1015 1497 992 q 1514 1047 1514 1029 q 1483 1106 1514 1083 q 1410 1129 1451 1129 q 1341 1110 1371 1129 q 1289 1063 1311 1090 q 1252 1002 1267 1035 q 1229 944 1238 969 q 1184 821 1214 897 q 1116 659 1154 744 q 1032 487 1078 574 q 937 331 986 400 q 838 217 888 261 q 740 174 788 174 q 710 189 718 174 q 701 229 701 204 m 1050 1301 q 1088 1369 1057 1325 q 1160 1454 1119 1413 q 1178 1494 1178 1472 q 1153 1538 1178 1524 q 1103 1551 1128 1551 q 1060 1542 1081 1551 q 1029 1513 1040 1532 q 1006 1475 1021 1500 q 976 1422 990 1450 q 952 1365 963 1393 q 942 1315 942 1336 q 960 1276 942 1292 q 1001 1260 978 1260 q 1033 1271 1021 1260 q 1050 1301 1044 1282 m 1258 1301 q 1297 1369 1265 1325 q 1368 1454 1328 1413 q 1386 1494 1386 1472 q 1361 1538 1386 1524 q 1311 1551 1336 1551 q 1269 1542 1289 1551 q 1238 1513 1249 1532 q 1214 1475 1229 1500 q 1185 1422 1199 1450 q 1160 1365 1171 1393 q 1150 1315 1150 1336 q 1168 1276 1150 1292 q 1210 1260 1186 1260 q 1241 1271 1229 1260 q 1258 1301 1253 1282 z "},"":{"ha":1432,"x_min":28,"x_max":1514,"o":"m 700 229 q 714 314 700 264 q 749 422 728 364 q 796 545 771 481 q 842 674 821 610 q 878 802 864 739 q 892 919 892 865 q 867 1049 892 990 q 798 1151 842 1108 q 694 1217 754 1193 q 561 1242 633 1242 q 373 1202 468 1242 q 201 1094 278 1163 q 76 935 124 1026 q 28 739 28 843 q 39 654 28 690 q 69 594 50 618 q 112 559 88 571 q 163 547 136 547 q 213 558 188 547 q 260 592 239 569 q 293 647 281 614 q 306 725 306 681 q 336 860 304 797 q 413 969 368 922 q 504 1042 457 1015 q 581 1068 551 1068 q 622 1043 611 1068 q 632 990 632 1018 q 619 904 632 954 q 587 797 606 854 q 545 675 568 739 q 503 546 522 611 q 472 415 485 481 q 458 290 458 350 q 474 175 458 228 q 519 83 489 122 q 596 22 550 44 q 701 0 642 0 q 892 58 801 0 q 1063 208 983 115 q 1126 58 1076 115 q 1258 1 1176 1 q 1336 24 1314 1 q 1358 74 1358 47 q 1341 120 1358 100 q 1288 140 1324 140 q 1278 149 1282 140 q 1270 172 1274 158 q 1265 202 1267 186 q 1264 232 1264 218 q 1279 344 1264 276 q 1317 492 1294 413 q 1369 654 1340 571 q 1424 810 1397 738 q 1473 937 1451 882 q 1506 1015 1494 992 q 1514 1047 1514 1032 q 1482 1106 1514 1083 q 1408 1129 1450 1129 q 1340 1110 1369 1129 q 1288 1063 1310 1090 q 1251 1002 1267 1035 q 1228 944 1236 969 q 1183 821 1213 897 q 1115 659 1153 744 q 1031 487 1076 574 q 936 331 985 400 q 837 217 888 261 q 739 174 786 174 q 709 189 718 174 q 700 229 700 204 m 1197 1258 q 1230 1265 1214 1258 q 1258 1282 1246 1271 q 1279 1308 1271 1293 q 1288 1339 1288 1322 q 1264 1388 1288 1367 q 1206 1408 1240 1408 q 1152 1389 1174 1408 q 1131 1335 1131 1369 q 1147 1283 1131 1307 q 1197 1258 1163 1258 m 988 1258 q 1020 1265 1004 1258 q 1049 1282 1036 1271 q 1069 1308 1061 1293 q 1078 1339 1078 1322 q 1054 1388 1078 1367 q 996 1408 1031 1408 q 942 1389 964 1408 q 921 1335 921 1369 q 937 1283 921 1307 q 988 1258 953 1258 z "},"":{"ha":1431,"x_min":28,"x_max":1454,"o":"m 632 990 q 619 904 632 954 q 587 797 606 854 q 545 675 568 739 q 503 546 522 611 q 472 415 485 481 q 458 290 458 350 q 474 175 458 228 q 519 83 489 122 q 596 22 550 44 q 701 0 642 0 q 894 59 801 0 q 1065 213 986 118 q 1047 133 1058 183 q 1019 23 1035 82 q 982 -97 1003 -36 q 938 -208 961 -158 q 888 -288 914 -257 q 832 -319 861 -319 q 811 -311 817 -319 q 806 -290 806 -303 q 809 -257 806 -275 q 813 -219 813 -239 q 801 -167 813 -189 q 772 -129 790 -144 q 731 -106 754 -114 q 683 -99 708 -99 q 629 -108 656 -99 q 582 -135 603 -117 q 548 -182 561 -154 q 535 -247 535 -210 q 553 -333 535 -289 q 605 -412 571 -376 q 688 -470 639 -447 q 797 -493 736 -493 q 939 -455 876 -493 q 1052 -352 1001 -417 q 1144 -203 1103 -287 q 1219 -25 1185 -118 q 1316 257 1272 114 q 1390 525 1360 400 q 1438 745 1421 650 q 1454 882 1454 840 q 1441 946 1454 918 q 1407 993 1428 974 q 1360 1023 1386 1013 q 1308 1033 1335 1033 q 1220 999 1260 1033 q 1175 889 1181 964 q 1151 772 1172 843 q 1098 622 1131 701 q 1022 463 1065 543 q 932 319 979 383 q 835 214 885 254 q 739 174 785 174 q 709 189 718 174 q 700 229 700 204 q 714 314 700 264 q 749 422 728 364 q 796 545 771 481 q 842 674 821 610 q 878 802 864 739 q 892 919 892 865 q 867 1049 892 990 q 798 1151 842 1108 q 694 1217 754 1193 q 561 1242 633 1242 q 373 1202 468 1242 q 201 1094 278 1163 q 76 935 124 1026 q 28 739 28 843 q 39 654 28 690 q 69 594 50 618 q 112 559 88 571 q 163 547 136 547 q 213 558 188 547 q 260 592 239 569 q 293 647 281 614 q 306 725 306 681 q 336 860 304 797 q 413 969 368 922 q 504 1042 457 1015 q 581 1068 551 1068 q 622 1043 611 1068 q 632 990 632 1018 m 1079 1260 q 1124 1289 1104 1257 q 1178 1345 1136 1311 q 1269 1408 1219 1379 q 1290 1428 1282 1415 q 1299 1454 1299 1440 q 1291 1482 1299 1469 q 1271 1503 1283 1494 q 1244 1516 1258 1511 q 1215 1521 1229 1521 q 1185 1515 1200 1521 q 1158 1499 1171 1510 q 1122 1465 1146 1488 q 1076 1415 1099 1442 q 1038 1363 1054 1389 q 1021 1318 1021 1338 q 1038 1277 1021 1294 q 1079 1260 1056 1260 z "},"":{"ha":1203,"x_min":60,"x_max":1194,"o":"m 611 407 q 537 387 558 407 q 515 343 515 367 q 530 306 515 319 q 565 287 544 293 q 608 279 586 281 q 647 278 631 278 q 709 203 678 250 q 781 112 740 157 q 875 33 821 67 q 1004 0 929 0 q 1101 25 1067 0 q 1135 97 1135 50 q 1101 176 1135 144 q 996 208 1067 208 q 888 235 932 208 q 807 307 843 263 q 958 384 888 335 q 1081 498 1029 433 q 1164 639 1133 563 q 1194 797 1194 715 q 1154 973 1194 892 q 1044 1114 1114 1054 q 881 1207 974 1174 q 681 1240 788 1240 q 527 1222 603 1240 q 382 1172 451 1204 q 253 1092 313 1139 q 151 990 194 1046 q 84 868 108 933 q 60 732 60 803 q 71 649 60 685 q 101 591 82 614 q 144 556 119 568 q 194 544 168 544 q 245 556 219 544 q 292 589 271 567 q 325 644 313 611 q 338 721 338 678 q 370 856 336 793 q 457 966 404 919 q 574 1039 510 1013 q 696 1065 638 1065 q 788 1045 747 1065 q 857 988 829 1025 q 900 901 885 951 q 915 793 915 851 q 890 645 915 715 q 824 522 865 575 q 727 438 782 469 q 611 407 672 407 m 449 865 q 376 663 411 768 q 312 459 340 557 q 266 277 283 361 q 249 138 249 193 q 258 68 249 94 q 283 26 268 42 q 315 6 297 11 q 347 0 332 0 q 398 17 375 0 q 421 69 421 33 q 431 140 421 92 q 460 255 442 189 q 504 399 478 321 q 563 556 531 476 q 633 714 596 636 q 713 857 671 792 q 725 892 725 876 q 690 938 725 922 q 614 954 656 954 q 514 931 563 954 q 449 865 465 908 m 685 1296 q 729 1325 710 1293 q 783 1381 742 1347 q 875 1444 825 1415 q 896 1464 888 1451 q 904 1490 904 1476 q 897 1518 904 1506 q 876 1539 889 1531 q 849 1552 864 1547 q 821 1557 835 1557 q 791 1551 806 1557 q 764 1535 776 1546 q 728 1501 751 1524 q 682 1451 704 1478 q 643 1399 660 1425 q 626 1354 626 1374 q 644 1313 626 1331 q 685 1296 661 1296 z "},"":{"ha":1142,"x_min":0,"x_max":1071,"o":"m 1071 226 q 974 357 1071 357 q 895 327 928 357 q 863 250 863 297 q 847 199 863 219 q 805 167 832 179 q 740 151 778 156 q 658 147 703 147 q 507 154 588 147 q 347 164 426 161 q 398 249 375 204 q 440 337 421 294 q 472 415 458 379 q 493 472 485 450 q 567 710 538 601 q 620 899 596 819 q 669 1022 644 978 q 728 1067 693 1067 q 758 1053 747 1067 q 773 1025 768 1040 q 778 996 778 1010 q 779 979 779 982 q 772 913 779 944 q 754 852 764 882 q 737 793 744 822 q 729 733 729 764 q 761 642 729 671 q 842 613 793 613 q 935 644 894 613 q 1002 722 975 675 q 1043 825 1029 769 q 1057 929 1057 881 q 1032 1054 1057 997 q 963 1153 1007 1111 q 858 1217 918 1194 q 729 1240 799 1240 q 600 1215 657 1240 q 499 1149 543 1190 q 423 1055 456 1108 q 366 945 390 1001 q 322 833 342 889 q 288 729 303 776 q 216 487 242 596 q 170 301 190 378 q 128 181 150 224 q 69 139 107 139 q 21 119 42 139 q 0 69 0 99 q 22 20 0 40 q 89 0 44 0 q 160 13 122 0 q 233 49 197 25 q 336 31 278 43 q 460 6 394 18 q 593 -16 525 -7 q 725 -25 661 -25 q 859 -10 796 -25 q 969 34 922 4 q 1044 112 1017 64 q 1071 226 1071 160 m 728 1296 q 772 1325 753 1293 q 826 1381 785 1347 q 918 1444 868 1415 q 939 1464 931 1451 q 947 1490 947 1476 q 940 1518 947 1506 q 919 1539 932 1531 q 892 1552 907 1547 q 864 1557 878 1557 q 834 1551 849 1557 q 807 1535 819 1546 q 771 1501 794 1524 q 725 1451 747 1478 q 686 1399 703 1425 q 669 1354 669 1374 q 687 1313 669 1331 q 728 1296 704 1296 z "},"":{"ha":1017,"x_min":39,"x_max":1796,"o":"m 428 174 q 337 192 376 174 q 269 242 297 211 q 227 314 242 274 q 213 396 213 354 q 223 469 213 433 q 253 533 233 504 q 299 578 272 561 q 356 596 325 596 q 385 590 375 596 q 399 577 394 585 q 405 562 404 569 q 406 550 406 554 q 400 503 406 526 q 388 456 394 479 q 375 410 381 433 q 369 365 369 388 q 394 299 369 321 q 454 278 418 278 q 523 301 494 278 q 570 357 551 324 q 597 430 589 390 q 606 503 606 469 q 586 597 606 554 q 532 671 567 640 q 450 718 497 701 q 346 735 403 735 q 214 706 271 735 q 118 631 157 678 q 59 523 79 583 q 39 399 39 463 q 66 253 39 325 q 146 126 93 182 q 277 34 199 69 q 460 -1 356 -1 q 637 33 563 -1 q 764 123 711 67 q 851 251 817 179 q 908 397 886 322 q 944 544 931 472 q 970 672 958 615 q 995 764 982 729 q 1029 799 1008 799 q 1067 826 1049 800 q 1088 882 1086 853 q 1059 944 1090 918 q 957 971 1028 971 q 830 937 879 971 q 750 847 781 903 q 703 720 719 792 q 674 574 686 649 q 647 427 661 499 q 606 299 632 356 q 538 208 581 243 q 428 174 496 174 m 800 1272 q 619 1238 692 1272 q 501 1151 546 1203 q 437 1040 456 1099 q 418 933 418 982 q 443 842 418 875 q 517 808 468 808 q 595 842 563 808 q 628 943 628 875 q 649 1028 628 997 q 698 1075 669 1060 q 756 1094 726 1090 q 801 1097 785 1097 q 939 1074 871 1097 q 1082 1022 1007 1050 q 1225 977 1150 997 q 1390 957 1300 957 q 1575 988 1499 957 q 1701 1067 1651 1019 q 1773 1168 1750 1114 q 1796 1268 1796 1222 q 1784 1328 1796 1303 q 1753 1372 1772 1354 q 1709 1397 1733 1389 q 1658 1406 1685 1406 q 1607 1397 1632 1406 q 1562 1372 1582 1389 q 1530 1331 1542 1356 q 1518 1274 1518 1306 q 1486 1197 1518 1228 q 1372 1165 1454 1165 q 1265 1178 1319 1165 q 1151 1207 1210 1190 q 986 1251 1072 1231 q 800 1272 900 1272 m 876 1518 q 893 1475 876 1501 q 925 1414 913 1447 q 943 1351 938 1381 q 960 1306 950 1317 q 988 1294 969 1294 q 1023 1308 1006 1296 q 1068 1354 1040 1319 q 1124 1416 1090 1382 q 1208 1490 1158 1450 q 1231 1514 1221 1500 q 1240 1544 1240 1528 q 1221 1576 1240 1565 q 1179 1586 1201 1586 q 1094 1549 1132 1586 q 1074 1526 1086 1539 q 1047 1496 1063 1513 q 1039 1526 1043 1513 q 1032 1549 1035 1539 q 1008 1576 1025 1567 q 969 1586 992 1586 q 939 1581 956 1586 q 908 1568 922 1576 q 885 1547 894 1560 q 876 1518 876 1535 z "},"":{"ha":1325,"x_min":29,"x_max":1356,"o":"m 582 958 q 604 1021 582 996 q 664 1061 626 1046 q 751 1083 701 1076 q 857 1089 801 1089 q 999 1081 928 1089 q 910 1004 964 1056 q 792 885 857 953 q 656 738 728 817 q 513 582 583 660 q 375 432 442 504 q 255 304 308 360 q 164 215 201 249 q 114 182 126 182 q 47 158 64 182 q 29 99 29 133 q 54 38 29 63 q 113 14 79 14 q 203 23 168 14 q 267 43 239 32 q 407 24 324 35 q 579 1 490 13 q 752 -17 668 -10 q 894 -25 836 -25 q 1028 -10 965 -25 q 1139 34 1092 4 q 1213 112 1186 64 q 1240 226 1240 160 q 1215 323 1240 289 q 1143 357 1190 357 q 1065 327 1097 357 q 1032 250 1032 297 q 1017 199 1032 219 q 974 167 1001 179 q 909 151 947 156 q 826 147 871 147 q 753 149 799 147 q 653 152 707 150 q 542 156 599 154 q 435 161 485 158 q 526 235 475 186 q 637 349 578 285 q 760 486 696 413 q 887 633 824 560 q 1010 774 950 706 q 1120 896 1069 843 q 1211 982 1171 949 q 1275 1018 1251 1015 q 1334 1053 1313 1024 q 1356 1117 1356 1083 q 1337 1172 1356 1147 q 1276 1200 1318 1196 q 1033 1222 1158 1211 q 788 1233 907 1233 q 600 1222 688 1233 q 447 1183 513 1211 q 342 1106 381 1154 q 304 982 304 1057 q 315 910 304 942 q 345 858 326 879 q 388 825 364 836 q 439 814 413 814 q 491 824 465 814 q 537 853 517 835 q 569 899 557 872 q 582 958 582 926 m 757 1518 q 774 1475 757 1501 q 806 1414 793 1447 q 824 1351 818 1381 q 840 1306 831 1317 q 868 1294 850 1294 q 903 1308 886 1296 q 949 1354 921 1319 q 1005 1416 971 1382 q 1089 1490 1039 1450 q 1111 1514 1101 1500 q 1121 1544 1121 1528 q 1101 1576 1121 1565 q 1060 1586 1082 1586 q 975 1549 1013 1586 q 955 1526 967 1539 q 928 1496 943 1513 q 919 1526 924 1513 q 913 1549 915 1539 q 889 1576 906 1567 q 850 1586 872 1586 q 819 1581 836 1586 q 789 1568 803 1576 q 766 1547 775 1560 q 757 1518 757 1535 z "},"":{"ha":1325,"x_min":29,"x_max":1356,"o":"m 582 958 q 604 1021 582 996 q 664 1061 626 1046 q 751 1083 701 1076 q 857 1089 801 1089 q 999 1081 928 1089 q 910 1004 964 1056 q 792 885 857 953 q 656 738 728 817 q 513 582 583 660 q 375 432 442 504 q 255 304 308 360 q 164 215 201 249 q 114 182 126 182 q 47 158 64 182 q 29 99 29 133 q 54 38 29 63 q 113 14 79 14 q 203 23 168 14 q 267 43 239 32 q 407 24 324 35 q 579 1 490 13 q 752 -17 668 -10 q 894 -25 836 -25 q 1028 -10 965 -25 q 1139 34 1092 4 q 1213 112 1186 64 q 1240 226 1240 160 q 1215 323 1240 289 q 1143 357 1190 357 q 1065 327 1097 357 q 1032 250 1032 297 q 1017 199 1032 219 q 974 167 1001 179 q 909 151 947 156 q 826 147 871 147 q 753 149 799 147 q 653 152 707 150 q 542 156 599 154 q 435 161 485 158 q 526 235 475 186 q 637 349 578 285 q 760 486 696 413 q 887 633 824 560 q 1010 774 950 706 q 1120 896 1069 843 q 1211 982 1171 949 q 1275 1018 1251 1015 q 1334 1053 1313 1024 q 1356 1117 1356 1083 q 1337 1172 1356 1147 q 1276 1200 1318 1196 q 1033 1222 1158 1211 q 788 1233 907 1233 q 600 1222 688 1233 q 447 1183 513 1211 q 342 1106 381 1154 q 304 982 304 1057 q 315 910 304 942 q 345 858 326 879 q 388 825 364 836 q 439 814 413 814 q 491 824 465 814 q 537 853 517 835 q 569 899 557 872 q 582 958 582 926 m 871 1296 q 915 1325 896 1293 q 969 1381 928 1347 q 1061 1444 1011 1415 q 1082 1464 1074 1451 q 1090 1490 1090 1476 q 1083 1518 1090 1506 q 1063 1539 1075 1531 q 1035 1552 1050 1547 q 1007 1557 1021 1557 q 977 1551 992 1557 q 950 1535 963 1546 q 914 1501 938 1524 q 868 1451 890 1478 q 829 1399 846 1425 q 813 1354 813 1374 q 830 1313 813 1331 q 871 1296 847 1296 z "},"":{"ha":1081,"x_min":57,"x_max":1100,"o":"m 282 408 q 292 508 282 454 q 320 617 301 563 q 365 722 339 672 q 421 807 390 772 q 435 706 422 760 q 473 608 447 653 q 538 533 499 563 q 631 503 576 503 q 713 532 681 503 q 746 624 746 561 q 738 685 746 654 q 722 748 731 717 q 705 810 713 779 q 697 869 697 840 q 701 920 697 888 q 717 985 706 953 q 750 1042 729 1018 q 803 1065 771 1065 q 871 1014 849 1065 q 893 882 893 963 q 879 741 893 818 q 840 585 865 664 q 776 431 814 506 q 691 299 739 357 q 586 207 643 242 q 464 172 529 172 q 376 194 411 172 q 321 251 342 217 q 291 328 300 286 q 282 408 282 369 m 443 0 q 632 38 544 0 q 793 139 719 75 q 924 286 867 203 q 1019 462 981 369 q 1079 649 1058 554 q 1100 829 1100 743 q 1078 993 1100 918 q 1015 1123 1056 1068 q 917 1208 975 1178 q 785 1239 858 1239 q 661 1213 717 1239 q 561 1146 606 1188 q 537 1150 550 1149 q 510 1151 524 1151 q 382 1119 442 1151 q 272 1033 322 1088 q 181 908 221 979 q 114 758 142 836 q 72 601 86 681 q 57 449 57 521 q 79 282 57 363 q 148 139 101 201 q 268 38 194 76 q 443 0 342 0 m 657 1296 q 701 1325 682 1293 q 756 1381 714 1347 q 847 1444 797 1415 q 868 1464 860 1451 q 876 1490 876 1476 q 869 1518 876 1506 q 849 1539 861 1531 q 822 1552 836 1547 q 793 1557 807 1557 q 763 1551 778 1557 q 736 1535 749 1546 q 700 1501 724 1524 q 654 1451 676 1478 q 615 1399 632 1425 q 599 1354 599 1374 q 616 1313 599 1331 q 657 1296 633 1296 z "},"":{"ha":1081,"x_min":57,"x_max":1100,"o":"m 282 408 q 292 508 282 454 q 320 617 301 563 q 365 722 339 672 q 421 807 390 772 q 435 706 422 760 q 473 608 447 653 q 538 533 499 563 q 631 503 576 503 q 713 532 681 503 q 746 624 746 561 q 738 685 746 654 q 722 748 731 717 q 705 810 713 779 q 697 869 697 840 q 701 920 697 888 q 717 985 706 953 q 750 1042 729 1018 q 803 1065 771 1065 q 871 1014 849 1065 q 893 882 893 963 q 879 741 893 818 q 840 585 865 664 q 776 431 814 506 q 691 299 739 357 q 586 207 643 242 q 464 172 529 172 q 376 194 411 172 q 321 251 342 217 q 291 328 300 286 q 282 408 282 369 m 443 0 q 632 38 544 0 q 793 139 719 75 q 924 286 867 203 q 1019 462 981 369 q 1079 649 1058 554 q 1100 829 1100 743 q 1078 993 1100 918 q 1015 1123 1056 1068 q 917 1208 975 1178 q 785 1239 858 1239 q 661 1213 717 1239 q 561 1146 606 1188 q 537 1150 550 1149 q 510 1151 524 1151 q 382 1119 442 1151 q 272 1033 322 1088 q 181 908 221 979 q 114 758 142 836 q 72 601 86 681 q 57 449 57 521 q 79 282 57 363 q 148 139 101 201 q 268 38 194 76 q 443 0 342 0 m 532 1278 q 577 1288 554 1278 q 618 1315 600 1297 q 638 1338 625 1324 q 664 1368 650 1351 q 674 1338 669 1351 q 681 1315 678 1324 q 742 1278 694 1278 q 772 1283 756 1278 q 803 1296 789 1288 q 826 1317 817 1304 q 836 1346 836 1329 q 818 1389 836 1361 q 787 1450 799 1417 q 768 1513 775 1483 q 752 1558 761 1546 q 724 1569 743 1569 q 690 1556 707 1568 q 644 1510 672 1544 q 588 1448 622 1482 q 504 1374 554 1414 q 482 1350 492 1364 q 472 1319 472 1336 q 492 1288 472 1299 q 532 1278 511 1278 z "},"":{"ha":975,"x_min":49,"x_max":1029,"o":"m 503 174 q 374 213 424 174 q 324 311 324 251 q 341 378 324 346 q 385 437 358 411 q 444 478 413 463 q 507 497 476 494 q 565 522 546 500 q 583 568 583 543 q 569 612 583 592 q 532 638 556 632 q 491 660 513 642 q 451 706 469 678 q 422 769 433 733 q 410 843 410 804 q 424 923 410 883 q 465 994 438 963 q 535 1047 493 1026 q 631 1067 576 1067 q 696 1056 672 1067 q 732 1029 719 1044 q 748 997 744 1014 q 751 967 751 979 q 744 914 751 942 q 727 856 736 886 q 710 795 718 826 q 703 733 703 764 q 735 642 703 671 q 818 613 768 613 q 913 644 874 613 q 978 721 953 675 q 1017 820 1004 767 q 1029 918 1029 874 q 999 1049 1029 990 q 917 1151 969 1108 q 790 1217 864 1193 q 625 1240 715 1240 q 425 1207 517 1240 q 268 1119 333 1174 q 166 994 203 1064 q 129 853 129 925 q 142 768 129 813 q 179 684 154 724 q 243 612 204 644 q 335 563 282 579 q 215 535 268 561 q 125 469 163 510 q 68 380 88 429 q 49 282 49 331 q 74 176 49 228 q 149 86 99 125 q 274 24 199 47 q 447 0 349 0 q 629 25 546 0 q 773 96 713 50 q 867 207 833 142 q 901 353 901 272 q 880 442 901 418 q 831 465 858 465 q 788 447 808 465 q 758 376 768 429 q 724 287 749 325 q 663 224 699 249 q 586 186 628 199 q 503 174 544 174 m 436 1444 q 527 1381 486 1415 q 581 1325 568 1347 q 626 1296 600 1293 q 667 1313 650 1296 q 683 1354 683 1331 q 667 1399 683 1374 q 628 1451 650 1425 q 583 1501 606 1478 q 547 1535 560 1524 q 520 1551 535 1546 q 490 1557 506 1557 q 462 1552 476 1557 q 435 1539 447 1547 q 415 1518 422 1531 q 407 1490 407 1506 q 415 1464 407 1476 q 436 1444 424 1451 z "},"":{"ha":975,"x_min":49,"x_max":1029,"o":"m 503 174 q 374 213 424 174 q 324 311 324 251 q 341 378 324 346 q 385 437 358 411 q 444 478 413 463 q 507 497 476 494 q 565 522 546 500 q 583 568 583 543 q 569 612 583 592 q 532 638 556 632 q 491 660 513 642 q 451 706 469 678 q 422 769 433 733 q 410 843 410 804 q 424 923 410 883 q 465 994 438 963 q 535 1047 493 1026 q 631 1067 576 1067 q 696 1056 672 1067 q 732 1029 719 1044 q 748 997 744 1014 q 751 967 751 979 q 744 914 751 942 q 727 856 736 886 q 710 795 718 826 q 703 733 703 764 q 735 642 703 671 q 818 613 768 613 q 913 644 874 613 q 978 721 953 675 q 1017 820 1004 767 q 1029 918 1029 874 q 999 1049 1029 990 q 917 1151 969 1108 q 790 1217 864 1193 q 625 1240 715 1240 q 425 1207 517 1240 q 268 1119 333 1174 q 166 994 203 1064 q 129 853 129 925 q 142 768 129 813 q 179 684 154 724 q 243 612 204 644 q 335 563 282 579 q 215 535 268 561 q 125 469 163 510 q 68 380 88 429 q 49 282 49 331 q 74 176 49 228 q 149 86 99 125 q 274 24 199 47 q 447 0 349 0 q 629 25 546 0 q 773 96 713 50 q 867 207 833 142 q 901 353 901 272 q 880 442 901 418 q 831 465 858 465 q 788 447 808 465 q 758 376 768 429 q 724 287 749 325 q 663 224 699 249 q 586 186 628 199 q 503 174 544 174 m 504 1278 q 549 1288 526 1278 q 590 1315 572 1297 q 610 1338 597 1324 q 636 1368 622 1351 q 646 1338 642 1351 q 653 1315 650 1324 q 714 1278 667 1278 q 744 1283 728 1278 q 775 1296 761 1288 q 799 1317 789 1304 q 808 1346 808 1329 q 790 1389 808 1361 q 759 1450 771 1417 q 740 1513 747 1483 q 724 1558 733 1546 q 696 1569 715 1569 q 662 1556 679 1568 q 617 1510 644 1544 q 560 1448 594 1482 q 476 1374 526 1414 q 454 1350 464 1364 q 444 1319 444 1336 q 464 1288 444 1299 q 504 1278 483 1278 z "},"":{"ha":738,"x_min":-3,"x_max":1051,"o":"m -1 725 q 10 647 -1 681 q 40 590 21 613 q 83 556 58 567 q 133 544 107 544 q 184 556 158 544 q 231 589 210 567 q 264 644 251 611 q 276 721 276 678 q 341 896 275 817 q 550 1022 407 975 q 447 837 489 938 q 374 636 406 736 q 326 460 344 544 q 291 311 308 376 q 254 207 274 246 q 203 168 235 168 q 142 144 168 168 q 117 85 117 119 q 143 24 117 49 q 201 0 169 0 q 340 25 282 0 q 441 94 399 50 q 513 197 483 138 q 566 324 543 256 q 608 466 589 392 q 650 613 628 540 q 702 786 678 703 q 759 933 726 869 q 840 1034 792 996 q 963 1072 888 1072 q 1029 1100 1007 1072 q 1051 1160 1051 1128 q 1031 1215 1051 1190 q 965 1240 1010 1240 q 789 1231 890 1240 q 580 1197 688 1221 q 368 1135 472 1174 q 181 1040 264 1097 q 48 905 99 983 q -1 725 -3 826 m 836 1294 q 869 1301 853 1294 q 897 1318 885 1307 q 918 1344 910 1329 q 926 1375 926 1358 q 903 1424 926 1403 q 844 1444 879 1444 q 791 1425 813 1444 q 769 1371 769 1406 q 785 1319 769 1343 q 836 1294 801 1294 m 626 1294 q 659 1301 643 1294 q 688 1318 675 1307 q 708 1344 700 1329 q 717 1375 717 1358 q 693 1424 717 1403 q 635 1444 669 1444 q 581 1425 603 1444 q 560 1371 560 1406 q 576 1319 560 1343 q 626 1294 592 1294 z "},"":{"ha":1307,"x_min":-3,"x_max":1376,"o":"m 843 1003 q 835 1031 842 1015 q 892 1061 861 1050 q 963 1072 922 1072 q 1034 1100 1010 1072 q 1058 1160 1058 1128 q 1035 1215 1058 1190 q 965 1240 1013 1240 q 789 1231 890 1240 q 580 1197 688 1221 q 368 1135 472 1174 q 181 1040 264 1097 q 48 905 99 983 q -1 725 -3 826 q 10 647 -1 681 q 40 590 21 613 q 83 556 58 567 q 133 544 107 544 q 184 556 158 544 q 231 589 210 567 q 264 644 251 611 q 276 721 276 678 q 341 896 275 817 q 550 1022 407 975 q 447 837 489 938 q 374 636 406 736 q 326 460 344 544 q 291 311 308 376 q 254 207 274 246 q 203 168 235 168 q 142 144 168 168 q 117 85 117 119 q 143 24 117 49 q 201 0 169 0 q 340 25 282 0 q 441 94 399 50 q 513 197 483 138 q 566 324 543 256 q 608 466 589 392 q 650 613 628 540 q 665 660 657 636 q 679 708 672 685 q 699 511 686 614 q 738 315 713 408 q 803 147 763 222 q 901 35 843 72 l 908 31 q 1017 0 961 1 q 1115 40 1075 0 q 1156 139 1156 81 q 1151 174 1156 157 q 1139 206 1146 190 q 1208 381 1168 283 q 1286 579 1249 478 q 1350 777 1324 681 q 1376 947 1376 874 q 1368 1015 1376 983 q 1342 1070 1360 1046 q 1297 1108 1324 1094 q 1232 1122 1269 1122 q 1144 1097 1182 1122 q 1106 1019 1106 1071 q 1133 945 1106 976 q 1204 911 1161 914 q 1181 785 1204 861 q 1125 625 1158 708 q 1057 461 1092 542 q 1000 322 1022 381 q 943 464 968 381 q 900 636 918 547 q 869 807 882 725 q 850 944 857 889 l 843 1003 m 872 1364 q 890 1309 872 1325 q 929 1293 908 1293 q 963 1305 949 1293 q 978 1336 978 1317 q 986 1340 978 1340 q 1025 1333 1001 1340 q 1079 1315 1049 1325 q 1143 1299 1110 1307 q 1211 1292 1176 1292 q 1322 1324 1279 1292 q 1364 1414 1364 1356 q 1346 1472 1364 1453 q 1307 1490 1328 1490 q 1273 1476 1288 1490 q 1258 1436 1258 1463 q 1257 1433 1257 1435 q 1250 1431 1254 1431 q 1206 1439 1235 1431 q 1143 1457 1178 1447 q 1078 1472 1111 1465 q 1015 1479 1046 1479 q 963 1472 989 1479 q 917 1451 938 1465 q 885 1416 897 1438 q 872 1364 872 1394 z "},"":{"ha":1081,"x_min":57,"x_max":1100,"o":"m 282 408 q 292 508 282 454 q 320 617 301 563 q 365 722 339 672 q 421 807 390 772 q 435 706 422 760 q 473 608 447 653 q 538 533 499 563 q 631 503 576 503 q 713 532 681 503 q 746 624 746 561 q 738 685 746 654 q 722 748 731 717 q 705 810 713 779 q 697 869 697 840 q 701 920 697 888 q 717 985 706 953 q 750 1042 729 1018 q 803 1065 771 1065 q 871 1014 849 1065 q 893 882 893 963 q 879 741 893 818 q 840 585 865 664 q 776 431 814 506 q 691 299 739 357 q 586 207 643 242 q 464 172 529 172 q 376 194 411 172 q 321 251 342 217 q 291 328 300 286 q 282 408 282 369 m 443 0 q 632 38 544 0 q 793 139 719 75 q 924 286 867 203 q 1019 462 981 369 q 1079 649 1058 554 q 1100 829 1100 743 q 1078 993 1100 918 q 1015 1123 1056 1068 q 917 1208 975 1178 q 785 1239 858 1239 q 661 1213 717 1239 q 561 1146 606 1188 q 537 1150 550 1149 q 510 1151 524 1151 q 382 1119 442 1151 q 272 1033 322 1088 q 181 908 221 979 q 114 758 142 836 q 72 601 86 681 q 57 449 57 521 q 79 282 57 363 q 148 139 101 201 q 268 38 194 76 q 443 0 342 0 m 464 1444 q 555 1381 514 1415 q 608 1325 596 1347 q 654 1296 628 1293 q 694 1313 678 1296 q 711 1354 711 1331 q 694 1399 711 1374 q 656 1451 678 1425 q 610 1501 633 1478 q 575 1535 588 1524 q 548 1551 563 1546 q 518 1557 533 1557 q 490 1552 504 1557 q 463 1539 475 1547 q 442 1518 450 1531 q 435 1490 435 1506 q 443 1464 435 1476 q 464 1444 451 1451 z "},"":{"ha":1081,"x_min":57,"x_max":1100,"o":"m 282 408 q 292 508 282 454 q 320 617 301 563 q 365 722 339 672 q 421 807 390 772 q 435 706 422 760 q 473 608 447 653 q 538 533 499 563 q 631 503 576 503 q 713 532 681 503 q 746 624 746 561 q 738 685 746 654 q 722 748 731 717 q 705 810 713 779 q 697 869 697 840 q 701 920 697 888 q 717 985 706 953 q 750 1042 729 1018 q 803 1065 771 1065 q 871 1014 849 1065 q 893 882 893 963 q 879 741 893 818 q 840 585 865 664 q 776 431 814 506 q 691 299 739 357 q 586 207 643 242 q 464 172 529 172 q 376 194 411 172 q 321 251 342 217 q 291 328 300 286 q 282 408 282 369 m 443 0 q 632 38 544 0 q 793 139 719 75 q 924 286 867 203 q 1019 462 981 369 q 1079 649 1058 554 q 1100 829 1100 743 q 1078 993 1100 918 q 1015 1123 1056 1068 q 917 1208 975 1178 q 785 1239 858 1239 q 661 1213 717 1239 q 561 1146 606 1188 q 537 1150 550 1149 q 510 1151 524 1151 q 382 1119 442 1151 q 272 1033 322 1088 q 181 908 221 979 q 114 758 142 836 q 72 601 86 681 q 57 449 57 521 q 79 282 57 363 q 148 139 101 201 q 268 38 194 76 q 443 0 342 0 m 408 1365 q 426 1310 408 1326 q 465 1294 444 1294 q 499 1306 485 1294 q 514 1338 514 1318 q 522 1342 514 1342 q 561 1334 538 1342 q 615 1317 585 1326 q 679 1301 646 1308 q 747 1293 713 1293 q 858 1325 815 1293 q 900 1415 900 1357 q 882 1473 900 1454 q 843 1492 864 1492 q 809 1478 824 1492 q 794 1438 794 1464 q 793 1435 793 1436 q 786 1432 790 1432 q 742 1440 771 1432 q 679 1458 714 1449 q 615 1474 647 1467 q 551 1481 582 1481 q 499 1474 525 1481 q 453 1453 474 1467 q 421 1417 433 1439 q 408 1365 408 1396 z "},"":{"ha":1432,"x_min":28,"x_max":1514,"o":"m 700 229 q 714 314 700 264 q 749 422 728 364 q 796 545 771 481 q 842 674 821 610 q 878 802 864 739 q 892 919 892 865 q 867 1049 892 990 q 798 1151 842 1108 q 694 1217 754 1193 q 561 1242 633 1242 q 373 1202 468 1242 q 201 1094 278 1163 q 76 935 124 1026 q 28 739 28 843 q 39 654 28 690 q 69 594 50 618 q 112 559 88 571 q 163 547 136 547 q 213 558 188 547 q 260 592 239 569 q 293 647 281 614 q 306 725 306 681 q 336 860 304 797 q 413 969 368 922 q 504 1042 457 1015 q 581 1068 551 1068 q 622 1043 611 1068 q 632 990 632 1018 q 619 904 632 954 q 587 797 606 854 q 545 675 568 739 q 503 546 522 611 q 472 415 485 481 q 458 290 458 350 q 474 175 458 228 q 519 83 489 122 q 596 22 550 44 q 701 0 642 0 q 892 58 801 0 q 1063 208 983 115 q 1126 58 1076 115 q 1258 1 1176 1 q 1336 24 1314 1 q 1358 74 1358 47 q 1341 120 1358 100 q 1288 140 1324 140 q 1278 149 1282 140 q 1270 172 1274 158 q 1265 202 1267 186 q 1264 232 1264 218 q 1279 344 1264 276 q 1317 492 1294 413 q 1369 654 1340 571 q 1424 810 1397 738 q 1473 937 1451 882 q 1506 1015 1494 992 q 1514 1047 1514 1032 q 1482 1106 1514 1083 q 1408 1129 1450 1129 q 1340 1110 1369 1129 q 1288 1063 1310 1090 q 1251 1002 1267 1035 q 1228 944 1236 969 q 1183 821 1213 897 q 1115 659 1153 744 q 1031 487 1076 574 q 936 331 985 400 q 837 217 888 261 q 739 174 786 174 q 709 189 718 174 q 700 229 700 204 m 908 1408 q 999 1345 958 1379 q 1053 1289 1040 1311 q 1099 1260 1072 1257 q 1139 1277 1122 1260 q 1156 1318 1156 1294 q 1139 1363 1156 1338 q 1100 1415 1122 1389 q 1055 1465 1078 1442 q 1019 1499 1032 1488 q 992 1515 1007 1510 q 963 1521 978 1521 q 934 1516 949 1521 q 907 1503 919 1511 q 887 1482 894 1494 q 879 1454 879 1469 q 888 1428 879 1440 q 908 1408 896 1415 z "},"":{"ha":1432,"x_min":28,"x_max":1514,"o":"m 700 229 q 714 314 700 264 q 749 422 728 364 q 796 545 771 481 q 842 674 821 610 q 878 802 864 739 q 892 919 892 865 q 867 1049 892 990 q 798 1151 842 1108 q 694 1217 754 1193 q 561 1242 633 1242 q 373 1202 468 1242 q 201 1094 278 1163 q 76 935 124 1026 q 28 739 28 843 q 39 654 28 690 q 69 594 50 618 q 112 559 88 571 q 163 547 136 547 q 213 558 188 547 q 260 592 239 569 q 293 647 281 614 q 306 725 306 681 q 336 860 304 797 q 413 969 368 922 q 504 1042 457 1015 q 581 1068 551 1068 q 622 1043 611 1068 q 632 990 632 1018 q 619 904 632 954 q 587 797 606 854 q 545 675 568 739 q 503 546 522 611 q 472 415 485 481 q 458 290 458 350 q 474 175 458 228 q 519 83 489 122 q 596 22 550 44 q 701 0 642 0 q 892 58 801 0 q 1063 208 983 115 q 1126 58 1076 115 q 1258 1 1176 1 q 1336 24 1314 1 q 1358 74 1358 47 q 1341 120 1358 100 q 1288 140 1324 140 q 1278 149 1282 140 q 1270 172 1274 158 q 1265 202 1267 186 q 1264 232 1264 218 q 1279 344 1264 276 q 1317 492 1294 413 q 1369 654 1340 571 q 1424 810 1397 738 q 1473 937 1451 882 q 1506 1015 1494 992 q 1514 1047 1514 1032 q 1482 1106 1514 1083 q 1408 1129 1450 1129 q 1340 1110 1369 1129 q 1288 1063 1310 1090 q 1251 1002 1267 1035 q 1228 944 1236 969 q 1183 821 1213 897 q 1115 659 1153 744 q 1031 487 1076 574 q 936 331 985 400 q 837 217 888 261 q 739 174 786 174 q 709 189 718 174 q 700 229 700 204 m 976 1242 q 1022 1251 999 1242 q 1063 1279 1044 1261 q 1082 1301 1069 1288 q 1108 1332 1094 1315 q 1118 1301 1114 1315 q 1125 1279 1122 1288 q 1186 1242 1139 1242 q 1217 1247 1200 1242 q 1247 1260 1233 1251 q 1271 1281 1261 1268 q 1281 1310 1281 1293 q 1263 1353 1281 1325 q 1231 1414 1243 1381 q 1213 1476 1219 1447 q 1197 1522 1206 1510 q 1168 1533 1188 1533 q 1134 1520 1151 1532 q 1089 1474 1117 1508 q 1033 1412 1067 1446 q 949 1338 999 1378 q 926 1314 936 1328 q 917 1283 917 1300 q 936 1252 917 1263 q 976 1242 956 1242 z "},"":{"ha":738,"x_min":-3,"x_max":1051,"o":"m -1 725 q 10 647 -1 681 q 40 590 21 613 q 83 556 58 567 q 133 544 107 544 q 184 556 158 544 q 231 589 210 567 q 264 644 251 611 q 276 721 276 678 q 341 896 275 817 q 550 1022 407 975 q 447 837 489 938 q 374 636 406 736 q 326 460 344 544 q 291 311 308 376 q 254 207 274 246 q 203 168 235 168 q 142 144 168 168 q 117 85 117 119 q 143 24 117 49 q 201 0 169 0 q 340 25 282 0 q 441 94 399 50 q 513 197 483 138 q 566 324 543 256 q 608 466 589 392 q 650 613 628 540 q 702 786 678 703 q 759 933 726 869 q 840 1034 792 996 q 963 1072 888 1072 q 1029 1100 1007 1072 q 1051 1160 1051 1128 q 1031 1215 1051 1190 q 965 1240 1010 1240 q 789 1231 890 1240 q 580 1197 688 1221 q 368 1135 472 1174 q 181 1040 264 1097 q 48 905 99 983 q -1 725 -3 826 m 547 1444 q 638 1381 597 1415 q 692 1325 679 1347 q 738 1296 711 1293 q 778 1313 761 1296 q 794 1354 794 1331 q 778 1399 794 1374 q 739 1451 761 1425 q 694 1501 717 1478 q 658 1535 671 1524 q 631 1551 646 1546 q 601 1557 617 1557 q 573 1552 588 1557 q 546 1539 558 1547 q 526 1518 533 1531 q 518 1490 518 1506 q 526 1464 518 1476 q 547 1444 535 1451 z "},"":{"ha":738,"x_min":-3,"x_max":1051,"o":"m -1 725 q 10 647 -1 681 q 40 590 21 613 q 83 556 58 567 q 133 544 107 544 q 184 556 158 544 q 231 589 210 567 q 264 644 251 611 q 276 721 276 678 q 341 896 275 817 q 550 1022 407 975 q 447 837 489 938 q 374 636 406 736 q 326 460 344 544 q 291 311 308 376 q 254 207 274 246 q 203 168 235 168 q 142 144 168 168 q 117 85 117 119 q 143 24 117 49 q 201 0 169 0 q 340 25 282 0 q 441 94 399 50 q 513 197 483 138 q 566 324 543 256 q 608 466 589 392 q 650 613 628 540 q 702 786 678 703 q 759 933 726 869 q 840 1034 792 996 q 963 1072 888 1072 q 1029 1100 1007 1072 q 1051 1160 1051 1128 q 1031 1215 1051 1190 q 965 1240 1010 1240 q 789 1231 890 1240 q 580 1197 688 1221 q 368 1135 472 1174 q 181 1040 264 1097 q 48 905 99 983 q -1 725 -3 826 m 740 1296 q 785 1325 765 1293 q 839 1381 797 1347 q 931 1444 881 1415 q 951 1464 943 1451 q 960 1490 960 1476 q 952 1518 960 1506 q 932 1539 944 1531 q 905 1552 919 1547 q 876 1557 890 1557 q 847 1551 861 1557 q 819 1535 832 1546 q 783 1501 807 1524 q 738 1451 760 1478 q 699 1399 715 1425 q 682 1354 682 1374 q 699 1313 682 1331 q 740 1296 717 1296 z "},"":{"ha":1325,"x_min":29,"x_max":1356,"o":"m 582 958 q 604 1021 582 996 q 664 1061 626 1046 q 751 1083 701 1076 q 857 1089 801 1089 q 999 1081 928 1089 q 910 1004 964 1056 q 792 885 857 953 q 656 738 728 817 q 513 582 583 660 q 375 432 442 504 q 255 304 308 360 q 164 215 201 249 q 114 182 126 182 q 47 158 64 182 q 29 99 29 133 q 54 38 29 63 q 113 14 79 14 q 203 23 168 14 q 267 43 239 32 q 407 24 324 35 q 579 1 490 13 q 752 -17 668 -10 q 894 -25 836 -25 q 1028 -10 965 -25 q 1139 34 1092 4 q 1213 112 1186 64 q 1240 226 1240 160 q 1215 323 1240 289 q 1143 357 1190 357 q 1065 327 1097 357 q 1032 250 1032 297 q 1017 199 1032 219 q 974 167 1001 179 q 909 151 947 156 q 826 147 871 147 q 753 149 799 147 q 653 152 707 150 q 542 156 599 154 q 435 161 485 158 q 526 235 475 186 q 637 349 578 285 q 760 486 696 413 q 887 633 824 560 q 1010 774 950 706 q 1120 896 1069 843 q 1211 982 1171 949 q 1275 1018 1251 1015 q 1334 1053 1313 1024 q 1356 1117 1356 1083 q 1337 1172 1356 1147 q 1276 1200 1318 1196 q 1033 1222 1158 1211 q 788 1233 907 1233 q 600 1222 688 1233 q 447 1183 513 1211 q 342 1106 381 1154 q 304 982 304 1057 q 315 910 304 942 q 345 858 326 879 q 388 825 364 836 q 439 814 413 814 q 491 824 465 814 q 537 853 517 835 q 569 899 557 872 q 582 958 582 926 m 868 1294 q 930 1318 901 1294 q 958 1375 958 1342 q 935 1424 958 1403 q 878 1444 913 1444 q 823 1425 844 1444 q 801 1371 801 1406 q 817 1319 801 1343 q 868 1294 833 1294 z "},"-":{"ha":599,"x_min":74,"x_max":524,"o":"m 136 418 l 454 417 q 503 435 482 417 q 524 483 524 453 q 506 529 524 508 q 461 550 488 550 l 144 550 q 94 531 114 550 q 74 479 74 511 q 92 436 74 454 q 136 418 110 418 z "},"":{"ha":697,"x_min":-49,"x_max":829,"o":"m 408 482 q 379 354 390 418 q 335 293 360 325 q 285 235 311 261 q 235 191 260 208 q 192 174 211 174 q 160 208 160 174 q 182 276 160 233 q 240 361 204 318 q 319 439 275 404 q 408 482 364 474 m -49 196 q -37 119 -49 156 q -1 57 -25 83 q 56 15 22 31 q 133 0 90 0 q 266 35 204 0 q 374 125 328 71 q 421 33 388 67 q 511 0 454 0 q 616 34 569 0 q 698 119 663 68 q 757 232 733 171 q 790 347 781 293 q 792 356 792 350 q 777 385 792 375 q 746 394 763 394 q 717 388 731 394 q 697 365 704 381 q 677 321 692 353 q 643 257 663 289 q 603 200 624 225 q 563 175 582 175 q 544 190 547 175 q 540 218 540 206 q 557 319 540 256 q 599 457 574 382 q 653 610 624 532 q 711 753 683 688 q 749 756 728 754 q 787 763 769 757 q 817 780 804 768 q 829 815 829 792 q 817 850 829 835 q 783 865 804 865 q 764 861 775 865 l 758 861 q 773 891 767 878 q 783 911 779 904 q 794 934 792 924 q 797 956 797 944 q 771 1006 797 988 q 708 1025 744 1025 q 635 1003 672 1025 q 575 933 599 982 q 561 901 569 921 q 542 857 553 882 q 436 858 490 857 q 335 862 382 860 q 254 867 289 864 q 204 872 219 869 q 190 874 200 874 q 153 859 167 874 q 139 821 139 844 q 162 762 139 788 q 218 736 185 736 q 356 737 288 736 q 494 740 425 738 q 471 678 483 710 q 447 613 458 646 q 396 628 422 624 q 346 632 369 632 q 198 590 269 632 q 72 483 126 547 q -16 342 17 418 q -49 196 -49 265 z "},"=":{"ha":558,"x_min":74,"x_max":482,"o":"m 74 271 q 92 228 74 246 q 136 210 110 210 l 413 208 q 462 226 442 208 q 482 275 482 244 q 464 321 482 300 q 419 342 446 342 l 144 342 q 94 322 114 342 q 74 271 74 303 m 74 451 q 92 408 74 426 q 136 390 110 390 l 413 389 q 462 407 442 389 q 482 456 482 425 q 464 501 482 481 q 419 522 446 522 l 144 522 q 94 503 114 522 q 74 451 74 483 z "},"":{"ha":1239,"x_min":0,"x_max":1229,"o":"m 0 719 q 12 644 0 676 q 42 590 24 613 q 85 557 61 568 q 136 546 110 546 q 187 557 161 546 q 233 589 213 568 q 267 641 254 610 q 279 713 279 672 q 322 853 278 788 q 432 965 365 918 q 578 1040 499 1013 q 729 1067 658 1067 q 838 1043 796 1067 q 906 980 881 1019 q 940 887 931 940 q 950 772 950 833 q 940 629 950 703 q 910 485 929 556 q 863 351 890 414 q 801 240 835 288 q 727 165 767 193 q 643 138 688 138 q 579 155 608 138 q 550 204 550 172 q 557 235 550 225 q 594 256 579 238 q 608 299 608 274 q 591 344 608 325 q 542 363 574 363 q 493 349 517 363 q 451 310 469 335 q 421 255 432 286 q 410 189 410 224 q 426 117 410 151 q 474 56 442 82 q 554 14 507 29 q 664 -1 601 -1 q 826 29 750 -1 q 964 112 901 60 q 1076 235 1026 164 q 1159 386 1125 306 q 1211 553 1193 467 q 1229 722 1229 639 q 1201 920 1229 826 q 1113 1085 1172 1014 q 963 1198 1053 1156 q 747 1240 872 1240 q 581 1222 667 1240 q 411 1171 494 1204 q 253 1091 328 1138 q 123 986 179 1044 q 33 860 67 928 q 0 719 0 793 m 138 399 q 168 381 153 385 q 203 376 183 376 q 221 378 214 376 q 191 243 201 304 q 181 138 181 182 q 190 68 181 94 q 215 26 200 42 q 247 6 229 11 q 279 0 264 0 q 330 17 307 0 q 353 69 353 33 q 358 117 353 86 q 374 189 364 147 q 400 281 385 231 q 433 388 415 332 q 512 398 478 392 q 556 415 546 404 q 572 455 571 431 q 557 494 572 479 q 526 506 546 506 q 507 503 521 506 q 474 499 500 501 q 553 686 510 593 q 646 857 597 779 q 657 892 657 876 q 622 938 657 922 q 546 954 588 954 q 446 931 494 954 q 381 865 397 908 q 316 685 347 778 q 257 504 285 593 q 212 509 232 507 q 176 514 192 511 q 163 515 172 515 q 126 500 142 515 q 112 449 106 479 q 138 399 118 418 z "},"!":{"ha":472,"x_min":121,"x_max":535,"o":"m 235 228 q 285 245 261 228 q 308 307 308 263 q 322 411 308 336 q 361 584 335 486 q 428 792 388 682 q 522 1003 468 903 q 535 1039 535 1024 q 500 1085 535 1069 q 424 1100 465 1100 q 324 1077 372 1100 q 258 1011 275 1054 q 197 817 221 914 q 160 638 174 721 q 141 490 146 554 q 136 393 136 426 q 146 308 136 340 q 170 258 156 275 q 202 234 185 240 q 235 228 219 228 m 211 0 q 255 8 233 0 q 294 31 276 17 q 322 66 311 46 q 332 108 332 86 q 301 174 332 147 q 222 201 269 201 q 149 176 178 201 q 121 104 121 150 q 142 33 121 67 q 211 0 164 0 z "}}}
